SplineFontDB: 3.0
FontName: Ayanna-ExtraBold
FullName: Ayanna
FamilyName: Ayanna
Weight: Bold
Copyright: Copyright (c) 2015 mooniak (http://mooniak.com)
Version: 0
ItalicAngle: 0
UnderlinePosition: 0
UnderlineWidth: 0
Ascent: 800
Descent: 200
InvalidEm: 0
UFOAscent: 800
UFODescent: -200
LayerCount: 3
Layer: 0 0 "Back" 1
Layer: 1 0 "Fore" 0
Layer: 2 0 "Back 2" 1
StyleMap: 0x0040
FSType: 0
OS2Version: 0
OS2_WeightWidthSlopeOnly: 0
OS2_UseTypoMetrics: 0
CreationTime: 1453642220
ModificationTime: 1502854105
PfmFamily: 16
TTFWeight: 400
TTFWidth: 5
LineGap: 0
VLineGap: 0
Panose: 2 0 6 0 0 0 0 0 0 0
OS2TypoAscent: 800
OS2TypoAOffset: 0
OS2TypoDescent: -200
OS2TypoDOffset: 0
OS2TypoLinegap: 0
OS2WinAscent: 954
OS2WinAOffset: 0
OS2WinDescent: 386
OS2WinDOffset: 0
HheadAscent: 954
HheadAOffset: 0
HheadDescent: -386
HheadDOffset: 0
OS2SubXSize: 841
OS2SubYSize: 780
OS2SubXOff: 0
OS2SubYOff: 240
OS2SupXSize: 841
OS2SupYSize: 780
OS2SupXOff: 0
OS2SupYOff: 601
OS2StrikeYSize: 60
OS2StrikeYPos: 300
OS2CapHeight: 700
OS2XHeight: 500
OS2Vendor: 'ACE '
OS2CodePages: 00000001.00000000
OS2UnicodeRanges: 80108003.00002042.00000000.00000000
Lookup: 260 0 0 "blwmBelowBaseMarkinTamillookup1" { "blwmBelowBaseMarkinTamillookup1 subtable"  } ['blwm' ('taml' <'dflt' > 'DFLT' <'dflt' > ) ]
Lookup: 260 0 0 "abvmAboveBaseMarkinTamillookup0" { "abvmAboveBaseMarkinTamillookup0 subtable"  } ['abvm' ('taml' <'dflt' > 'DFLT' <'dflt' > ) ]
DEI: 91125
LangName: 1033 "Copyright (c) 2015 mooniak (http://mooniak.com)" "" "" "" "" "Version "
PickledDataWithLists: "(dp1
S'public.glyphOrder'
p2
(lp3
S'tml_A'
p4
aS'tml_Aa'
p5
aS'tml_I'
p6
aS'tml_Ii'
p7
aS'tml_U'
p8
aS'tml_Uu'
p9
aS'tml_E'
p10
aS'tml_Ee'
p11
aS'tml_Ai'
p12
aS'tml_O'
p13
aS'tml_Oo'
p14
aS'tml_Au'
p15
aS'tml_Ka'
p16
aS'tml_Nga'
p17
aS'tml_Ca'
p18
aS'tml_Ja'
p19
aS'tml_Nya'
p20
aS'tml_Tta'
p21
aS'tml_Nna'
p22
aS'tml_Ta'
p23
aS'tml_Na'
p24
aS'tml_Nnna'
p25
aS'tml_Pa'
p26
aS'tml_Ma'
p27
aS'tml_Ya'
p28
aS'tml_Ra'
p29
aS'tml_Rra'
p30
aS'tml_La'
p31

StartChar: tml_A
Encoding: 1 2949 1
GlifName: tml_A_
Width: 917
VWidth: 0
GlyphClass: 2
Flags: W
LayerCount: 3
Fore
SplineSet
750 -85 m 257
 750 559 l 257
 857 559 l 257
 857 -85 l 257
 750 -85 l 257
344 328 m 256
 369 328 387 348 387 376 c 256
 387 402 369 420 344 420 c 256
 319 420 301 402 300 377 c 257
 246 379 l 257
 246 444 291 491 354 491 c 256
 422 491 471 441 471 373 c 256
 471 301 419 249 347 249 c 256
 269 249 213 300 213 384 c 256
 213 489 299 574 421 573 c 256
 604 572 684 420 684 262 c 256
 684 29 518 -104 308 -104 c 256
 134 -104 42 -28 42 76 c 256
 42 166 106 221 225 221 c 258
 808 221 l 257
 808 123 l 257
 232 123 l 258
 177 123 150 110 150 78 c 256
 150 33 198 0 311 0 c 256
 457 0 578 89 578 262 c 256
 578 369 533 482 423 482 c 256
 360 482 300 438 300 377 c 256
 300 349 318 328 344 328 c 256
  PathStart: -2
EndSplineSet
Layer: 2
SplineSet
750 -85 m 257
 750 559 l 257
 857 559 l 257
 857 -85 l 257
 750 -85 l 257
344 328 m 256
 369 328 387 348 387 376 c 256
 387 402 369 420 344 420 c 256
 319 420 301 402 300 377 c 257
 246 379 l 257
 246 444 291 491 354 491 c 256
 422 491 471 441 471 373 c 256
 471 301 419 249 347 249 c 256
 269 249 213 300 213 384 c 256
 213 489 299 574 421 573 c 256
 604 572 684 420 684 262 c 256
 684 29 518 -104 308 -104 c 256
 134 -104 42 -28 42 76 c 256
 42 166 106 221 225 221 c 258
 808 221 l 257
 808 123 l 257
 232 123 l 258
 177 123 150 110 150 78 c 256
 150 33 198 0 311 0 c 256
 457 0 578 89 578 262 c 256
 578 369 533 482 423 482 c 256
 360 482 300 438 300 377 c 256
 300 349 318 328 344 328 c 256
EndSplineSet
EndChar

StartChar: tml_Aa
Encoding: 2 2950 2
GlifName: tml_A_a
Width: 1001
VWidth: 0
GlyphClass: 2
Flags: W
LayerCount: 3
Fore
SplineSet
750 -85 m 257
 750 559 l 257
 857 559 l 257
 857 -85 l 257
 750 -85 l 257
344 328 m 256
 369 328 387 348 387 376 c 256
 387 402 369 420 344 420 c 256
 319 420 301 402 300 377 c 257
 246 379 l 257
 246 444 291 491 354 491 c 256
 422 491 471 441 471 373 c 256
 471 301 419 249 347 249 c 256
 269 249 213 300 213 384 c 256
 213 489 299 574 421 573 c 256
 604 572 684 420 684 262 c 256
 684 29 518 -104 308 -104 c 256
 134 -104 42 -28 42 76 c 256
 42 166 106 221 225 221 c 258
 808 221 l 257
 808 123 l 257
 232 123 l 258
 177 123 150 110 150 78 c 256
 150 33 198 0 311 0 c 256
 457 0 578 89 578 262 c 256
 578 369 533 482 423 482 c 256
 360 482 300 438 300 377 c 256
 300 349 318 328 344 328 c 256
  PathStart: -2
606 -186 m 256
 606 -222 666 -258 752 -258 c 256
 839 -258 930 -208 930 -95 c 256
 930 -44 903 -22 881 -22 c 256
 868 -22 857 -30 857 -47 c 257
 801 5 l 257
 829 43 861 59 892 58 c 256
 959 58 1026 9 1026 -98 c 256
 1026 -246 900 -350 752 -350 c 256
 618 -350 508 -281 508 -186 c 256
 508 -118 557 -69 658 -69 c 257
 658 -161 l 257
 626 -161 606 -163 606 -186 c 256
  PathStart: -2
EndSplineSet
Layer: 2
SplineSet
750 -85 m 257
 750 559 l 257
 857 559 l 257
 857 -85 l 257
 750 -85 l 257
344 328 m 256
 369 328 387 348 387 376 c 256
 387 402 369 420 344 420 c 256
 319 420 301 402 300 377 c 257
 246 379 l 257
 246 444 291 491 354 491 c 256
 422 491 471 441 471 373 c 256
 471 301 419 249 347 249 c 256
 269 249 213 300 213 384 c 256
 213 489 299 574 421 573 c 256
 604 572 684 420 684 262 c 256
 684 29 518 -104 308 -104 c 256
 134 -104 42 -28 42 76 c 256
 42 166 106 221 225 221 c 258
 808 221 l 257
 808 123 l 257
 232 123 l 258
 177 123 150 110 150 78 c 256
 150 33 198 0 311 0 c 256
 457 0 578 89 578 262 c 256
 578 369 533 482 423 482 c 256
 360 482 300 438 300 377 c 256
 300 349 318 328 344 328 c 256
606 -186 m 256
 606 -222 666 -258 752 -258 c 256
 839 -258 930 -208 930 -95 c 256
 930 -44 903 -22 881 -22 c 256
 868 -22 857 -30 857 -47 c 257
 801 5 l 257
 829 43 861 59 892 58 c 256
 959 58 1026 9 1026 -98 c 256
 1026 -246 900 -350 752 -350 c 256
 618 -350 508 -281 508 -186 c 256
 508 -118 557 -69 658 -69 c 257
 658 -161 l 257
 626 -161 606 -163 606 -186 c 256
EndSplineSet
EndChar

StartChar: tml_Above
Encoding: 3 3064 3
GlifName: tml_A_bove
Width: 1233
VWidth: 0
GlyphClass: 2
Flags: W
LayerCount: 3
Fore
SplineSet
389 756 m 256
 572 756 692 586 692 339 c 256
 692 140 635 -27 517 -27 c 256
 436 -27 385 20 385 110 c 256
 385 260 476 404 627 404 c 256
 730 404 831 328 831 190 c 256
 831 157 822 125 808 97 c 257
 1080 97 l 258
 1084 97 1091 100 1091 107 c 256
 1091 114 1086 118 1081 121 c 258
 913 228 l 258
 873 253 849 288 850 335 c 256
 851 425 921 461 975 461 c 256
 1074 461 1108 376 1090 296 c 258
 992 -148 l 257
 890 -148 l 257
 990 300 l 258
 992 309 1004 363 973 363 c 256
 955 363 948 351 948 340 c 256
 948 325 955 319 974 306 c 257
 1136 198 l 257
 1188 167 1191 131 1191 103 c 256
 1191 33 1138 0 1080 0 c 258
 688 0 l 257
 688 78 l 257
 712 99 737 138 737 186 c 256
 737 259 687 306 617 306 c 256
 523 306 481 181 481 116 c 256
 481 93 487 71 511 71 c 256
 565 71 589 228 589 330 c 256
 589 482 536 648 379 648 c 256
 187 648 118 384 144 185 c 256
 152 120 171 69 212 69 c 256
 254 69 263 125 263 183 c 256
 263 251 236 302 200 302 c 256
 162 302 144 265 144 186 c 257
 85 232 l 257
 85 294 121 402 217 402 c 256
 312 402 361 305 361 175 c 256
 361 50 304 -29 209 -29 c 256
 83 -29 42 144 42 314 c 256
 42 596 204 756 389 756 c 256
  PathStart: -2
EndSplineSet
PickledDataWithLists: "(dp1
S'com.typemytype.robofont.layerData'
p2
(dp3
S'Bold Jan 21 16, 05:11'
p4
(dp5
S'name'
p6
S'tml_Above'
p7
sS'lib'
p8
(dp9
sS'unicodes'
p10
(lp11
sS'width'
p12
I1277
sS'contours'
p13
(lp14
(dp15
S'points'
p16
(lp17
(dp18
S'y'
I570
sS'x'
I30
sS'smooth'
p19
I00
sa(dp20
S'y'
I755
sS'x'
I173
sg19
I00
sa(dp21
S'segmentType'
p22
S'curve'
p23
sS'x'
I374
sg19
I01
sS'y'
I755
sa(dp24
S'y'
I755
sS'x'
I578
sg19
I00
sa(dp25
S'y'
I537
sS'x'
I675
sg19
I00
sa(dp26
g22
S'curve'
p27
sS'x'
I675
sg19
I01
sS'y'
I346
sa(dp28
S'y'
I63
sS'x'
I675
sg19
I00
sa(dp29
S'y'
I-32
sS'x'
I590
sg19
I00
sa(dp30
g22
S'curve'
p31
sS'x'
I498
sg19
I01
sS'y'
I-32
sa(dp32
S'y'
I-32
sS'x'
I432
sg19
I00
sa(dp33
S'y'
I7
sS'x'
I376
sg19
I00
sa(dp34
g22
S'curve'
p35
sS'x'
I376
sg19
I01
sS'y'
I126
sa(dp36
S'y'
I275
sS'x'
I376
sg19
I00
sa(dp37
S'y'
I402
sS'x'
I478
sg19
I00
sa(dp38
g22
S'curve'
p39
sS'x'
I611
sg19
I01
sS'y'
I402
sa(dp40
S'y'
I402
sS'x'
I733
sg19
I00
sa(dp41
S'y'
I309
sS'x'
I798
sg19
I00
sa(dp42
g22
S'curve'
p43
sS'x'
I794
sg19
I01
sS'y'
I198
sa(dp44
S'y'
I131
sS'x'
I792
sg19
I00
sa(dp45
S'y'
I70
sS'x'
I764
sg19
I00
sa(dp46
g22
S'curve'
p47
sS'x'
I744
sg19
I00
sS'y'
I42
sa(dp48
g22
S'line'
p49
sS'x'
I1029
sg19
I01
sS'y'
I42
sa(dp50
S'y'
I42
sS'x'
I1065
sg19
I00
sa(dp51
S'y'
I49
sS'x'
I1077
sg19
I00
sa(dp52
g22
S'curve'
p53
sS'x'
I1077
sg19
I01
sS'y'
I68
sa(dp54
S'y'
I82
sS'x'
I1077
sg19
I00
sa(dp55
S'y'
I88
sS'x'
I1071
sg19
I00
sa(dp56
g22
S'curve'
p57
sS'x'
I1031
sg19
I01
sS'y'
I112
sa(dp58
g22
S'line'
p59
sS'x'
I908
sg19
I00
sS'y'
I189
sa(dp60
S'y'
I227
sS'x'
I840
sg19
I00
sa(dp61
S'y'
I270
sS'x'
I815
sg19
I00
sa(dp62
g22
S'curve'
p63
sS'x'
I815
sg19
I01
sS'y'
I313
sa(dp64
S'y'
I393
sS'x'
I815
sg19
I00
sa(dp65
S'y'
I420
sS'x'
I868
sg19
I00
sa(dp66
g22
S'curve'
p67
sS'x'
I918
sg19
I01
sS'y'
I420
sa(dp68
S'y'
I420
sS'x'
I989
sg19
I00
sa(dp69
S'y'
I359
sS'x'
I1034
sg19
I00
sa(dp70
g22
S'curve'
p71
sS'x'
I1009
sg19
I01
sS'y'
I250
sa(dp72
g22
S'line'
p73
sS'x'
I918
sg19
I00
sS'y'
I-148
sa(dp74
g22
S'line'
p75
sS'x'
I875
sg19
I00
sS'y'
I-148
sa(dp76
g22
S'line'
p77
sS'x'
I961
sg19
I01
sS'y'
I230
sa(dp78
S'y'
I333
sS'x'
I988
sg19
I00
sa(dp79
S'y'
I378
sS'x'
I962
sg19
I00
sa(dp80
g22
S'curve'
p81
sS'x'
I916
sg19
I01
sS'y'
I378
sa(dp82
S'y'
I378
sS'x'
I876
sg19
I00
sa(dp83
S'y'
I348
sS'x'
I857
sg19
I00
sa(dp84
g22
S'curve'
p85
sS'x'
I857
sg19
I01
sS'y'
I317
sa(dp86
S'y'
I291
sS'x'
I857
sg19
I00
sa(dp87
S'y'
I264
sS'x'
I869
sg19
I00
sa(dp88
g22
S'curve'
p89
sS'x'
I898
sg19
I01
sS'y'
I246
sa(dp90
g22
S'line'
p91
sS'x'
I1037
sg19
I01
sS'y'
I158
sa(dp92
S'y'
I121
sS'x'
I1100
sg19
I00
sa(dp93
S'y'
I106
sS'x'
I1114
sg19
I00
sa(dp94
g22
S'curve'
p95
sS'x'
I1114
sg19
I01
sS'y'
I77
sa(dp96
S'y'
I32
sS'x'
I1114
sg19
I00
sa(dp97
S'y'
I0
sS'x'
I1094
sg19
I00
sa(dp98
g22
S'curve'
p99
sS'x'
I1033
sg19
I01
sS'y'
I0
sa(dp100
g22
S'line'
p101
sS'x'
I685
sg19
I00
sS'y'
I0
sa(dp102
g22
S'line'
p103
sS'x'
I685
sg19
I00
sS'y'
I31
sa(dp104
S'y'
I86
sS'x'
I726
sg19
I00
sa(dp105
S'y'
I136
sS'x'
I752
sg19
I00
sa(dp106
g22
S'curve'
p107
sS'x'
I752
sg19
I01
sS'y'
I196
sa(dp108
S'y'
I300
sS'x'
I752
sg19
I00
sa(dp109
S'y'
I362
sS'x'
I692
sg19
I00
sa(dp110
g22
S'curve'
p111
sS'x'
I612
sg19
I01
sS'y'
I362
sa(dp112
S'y'
I362
sS'x'
I496
sg19
I00
sa(dp113
S'y'
I241
sS'x'
I418
sg19
I00
sa(dp114
g22
S'curve'
p115
sS'x'
I418
sg19
I01
sS'y'
I126
sa(dp116
S'y'
I51
sS'x'
I418
sg19
I00
sa(dp117
S'y'
I10
sS'x'
I444
sg19
I00
sa(dp118
g22
S'curve'
p119
sS'x'
I493
sg19
I01
sS'y'
I10
sa(dp120
S'y'
I10
sS'x'
I573
sg19
I00
sa(dp121
S'y'
I111
sS'x'
I633
sg19
I00
sa(dp122
g22
S'curve'
p123
sS'x'
I633
sg19
I01
sS'y'
I354
sa(dp124
S'y'
I507
sS'x'
I633
sg19
I00
sa(dp125
S'y'
I710
sS'x'
I546
sg19
I00
sa(dp126
g22
S'curve'
p127
sS'x'
I370
sg19
I01
sS'y'
I710
sa(dp128
S'y'
I710
sS'x'
I226
sg19
I00
sa(dp129
S'y'
I563
sS'x'
I75
sg19
I00
sa(dp130
g22
S'curve'
p131
sS'x'
I75
sg19
I01
sS'y'
I313
sa(dp132
S'y'
I180
sS'x'
I75
sg19
I00
sa(dp133
S'y'
I12
sS'x'
I112
sg19
I00
sa(dp134
g22
S'curve'
p135
sS'x'
I200
sg19
I01
sS'y'
I12
sa(dp136
S'y'
I12
sS'x'
I273
sg19
I00
sa(dp137
S'y'
I115
sS'x'
I287
sg19
I00
sa(dp138
g22
S'curve'
p139
sS'x'
I287
sg19
I01
sS'y'
I180
sa(dp140
S'y'
I265
sS'x'
I287
sg19
I00
sa(dp141
S'y'
I357
sS'x'
I252
sg19
I00
sa(dp142
g22
S'curve'
p143
sS'x'
I183
sg19
I01
sS'y'
I357
sa(dp144
S'y'
I357
sS'x'
I111
sg19
I00
sa(dp145
S'y'
I251
sS'x'
I79
sg19
I00
sa(dp146
g22
S'curve'
p147
sS'x'
I97
sg19
I00
sS'y'
I133
sa(dp148
g22
S'line'
p149
sS'x'
I57
sg19
I00
sS'y'
I171
sa(dp150
S'y'
I319
sS'x'
I51
sg19
I00
sa(dp151
S'y'
I399
sS'x'
I114
sg19
I00
sa(dp152
g22
S'curve'
p153
sS'x'
I183
sg19
I01
sS'y'
I399
sa(dp154
S'y'
I399
sS'x'
I272
sg19
I00
sa(dp155
S'y'
I311
sS'x'
I327
sg19
I00
sa(dp156
g22
S'curve'
p157
sS'x'
I327
sg19
I01
sS'y'
I187
sa(dp158
S'y'
I83
sS'x'
I327
sg19
I00
sa(dp159
S'y'
I-30
sS'x'
I301
sg19
I00
sa(dp160
g22
S'curve'
p161
sS'x'
I200
sg19
I01
sS'y'
I-30
sa(dp162
S'y'
I-30
sS'x'
I58
sg19
I00
sa(dp163
S'y'
I191
sS'x'
I30
sg19
I00
sa(dp164
g22
S'curve'
p165
sS'x'
I30
sg19
I01
sS'y'
I320
sasasS'components'
p166
(lp167
sS'anchors'
p168
(lp169
sss."
Layer: 2
SplineSet
389 756 m 256
 572 756 692 586 692 339 c 256
 692 140 635 -27 517 -27 c 256
 436 -27 385 20 385 110 c 256
 385 260 476 404 627 404 c 256
 730 404 831 328 831 190 c 256
 831 157 822 125 808 97 c 257
 1080 97 l 258
 1084 97 1091 100 1091 107 c 256
 1091 114 1086 118 1081 121 c 258
 913 228 l 258
 873 253 849 288 850 335 c 256
 851 425 921 461 975 461 c 256
 1074 461 1108 376 1090 296 c 258
 992 -148 l 257
 890 -148 l 257
 990 300 l 258
 992 309 1004 363 973 363 c 256
 955 363 948 351 948 340 c 256
 948 325 955 319 974 306 c 257
 1136 198 l 257
 1188 167 1191 131 1191 103 c 256
 1191 33 1138 0 1080 0 c 258
 688 0 l 257
 688 78 l 257
 712 99 737 138 737 186 c 256
 737 259 687 306 617 306 c 256
 523 306 481 181 481 116 c 256
 481 93 487 71 511 71 c 256
 565 71 589 228 589 330 c 256
 589 482 536 648 379 648 c 256
 187 648 118 384 144 185 c 256
 152 120 171 69 212 69 c 256
 254 69 263 125 263 183 c 256
 263 251 236 302 200 302 c 256
 162 302 144 265 144 186 c 257
 85 232 l 257
 85 294 121 402 217 402 c 256
 312 402 361 305 361 175 c 256
 361 50 304 -29 209 -29 c 256
 83 -29 42 144 42 314 c 256
 42 596 204 756 389 756 c 256
EndSplineSet
EndChar

StartChar: tml_Ai
Encoding: 4 2960 4
GlifName: tml_A_i
Width: 773
VWidth: 0
GlyphClass: 2
Flags: W
LayerCount: 3
Fore
SplineSet
45 21 m 256
 45 202 245 229 380 240 c 256
 497 250 626 277 626 395 c 256
 626 445 597 485 557 485 c 256
 511 485 458 431 457 299 c 257
 356 299 l 257
 359 479 432 581 562 581 c 256
 670 581 731 509 731 402 c 256
 731 182 534 151 381 141 c 256
 234 131 158 89 158 27 c 256
 158 -18 194 -49 240 -49 c 256
 293 -49 349 -18 349 74 c 257
 462 74 l 257
 462 12 484 -57 553 -54 c 256
 598 -52 626 0 606 65 c 257
 709 81 l 257
 709 95 775 -153 554 -153 c 256
 426 -153 410 -57 410 -57 c 256
 410 -57 393 -155 236 -155 c 256
 145 -155 45 -99 45 21 c 256
  PathStart: -2
356 299 m 257
 358 374 334 488 237 488 c 256
 186 488 129 460 129 371 c 256
 129 336 148 317 167 317 c 256
 193 317 206 344 206 370 c 256
 206 407 186 422 166 422 c 256
 148 422 129 406 129 370 c 257
 69 412 l 256
 69 412 93 494 171 495 c 256
 207 495 284 467 284 362 c 256
 284 273 226 234 164 234 c 256
 83 234 41 294 42 384 c 256
 43 513 125 583 240 582 c 256
 409 581 455 447 456 299 c 257
 356 299 l 257
EndSplineSet
Layer: 2
SplineSet
45 21 m 256
 45 202 245 229 380 240 c 256
 497 250 626 277 626 395 c 256
 626 445 597 485 557 485 c 256
 511 485 458 431 457 299 c 257
 356 299 l 257
 359 479 432 581 562 581 c 256
 670 581 731 509 731 402 c 256
 731 182 534 151 381 141 c 256
 234 131 158 89 158 27 c 256
 158 -18 194 -49 240 -49 c 256
 293 -49 349 -18 349 74 c 257
 462 74 l 257
 462 12 484 -57 553 -54 c 256
 598 -52 626 0 606 65 c 257
 709 81 l 257
 709 95 775 -153 554 -153 c 256
 426 -153 410 -57 410 -57 c 256
 410 -57 393 -155 236 -155 c 256
 145 -155 45 -99 45 21 c 256
356 299 m 257
 358 374 334 488 237 488 c 256
 186 488 129 460 129 371 c 256
 129 336 148 317 167 317 c 256
 193 317 206 344 206 370 c 256
 206 407 186 422 166 422 c 256
 148 422 129 406 129 370 c 257
 69 412 l 256
 69 412 93 494 171 495 c 256
 207 495 284 467 284 362 c 256
 284 273 226 234 164 234 c 256
 83 234 41 294 42 384 c 256
 43 513 125 583 240 582 c 256
 409 581 455 447 456 299 c 257
 356 299 l 257
EndSplineSet
EndChar

StartChar: tml_Anusvara
Encoding: 5 2946 5
GlifName: tml_A_nusvara
Width: 0
VWidth: 0
GlyphClass: 2
Flags: W
LayerCount: 3
Fore
SplineSet
-105 702 m 256
 -105 760 -59 807 0 807 c 256
 59 807 106 760 106 702 c 256
 106 644 59 596 0 596 c 256
 -59 596 -105 644 -105 702 c 256
  PathStart: -2
30 704 m 256
 30 721 16 734 -1 734 c 256
 -18 734 -31 721 -31 704 c 256
 -31 687 -18 673 -1 673 c 256
 16 673 30 687 30 704 c 256
  PathStart: -2
EndSplineSet
PickledDataWithLists: "(dp1
S'com.schriftgestaltung.Glyphs.ColorIndex'
p2
I0
sS'com.typemytype.robofont.guides'
p3
(lp4
(dp5
S'y'
I704
sS'x'
I17
sS'angle'
p6
I0
sS'isGlobal'
p7
I00
sasS'public.markColor'
p8
S'0.85,0.26,0.06,1'
p9
s."
Layer: 2
SplineSet
-105 702 m 256
 -105 760 -59 807 0 807 c 256
 59 807 106 760 106 702 c 256
 106 644 59 596 0 596 c 256
 -59 596 -105 644 -105 702 c 256
30 704 m 256
 30 721 16 734 -1 734 c 256
 -18 734 -31 721 -31 704 c 256
 -31 687 -18 673 -1 673 c 256
 16 673 30 687 30 704 c 256
EndSplineSet
EndChar

StartChar: tml_CU
Encoding: 8 -1 8
GlifName: tml_C_U_
Width: 665
VWidth: 0
GlyphClass: 2
Flags: W
LayerCount: 3
Fore
SplineSet
573 252 m 257
 573 0 l 257
 477 0 l 257
 477 252 l 257
 573 252 l 257
623 341 m 257
 623 244 l 257
 527 244 l 257
 527 341 l 257
 623 341 l 257
EndSplineSet
Refer: 10 2970 N 1 0 0 1 12 0 2
Layer: 2
SplineSet
573 252 m 257
 573 0 l 257
 477 0 l 257
 477 252 l 257
 573 252 l 257
623 341 m 257
 623 244 l 257
 527 244 l 257
 527 341 l 257
 623 341 l 257
EndSplineSet
Refer: 10 2970 N 1 0 0 1 12 0 2
EndChar

StartChar: tml_CUu
Encoding: 9 -1 9
GlifName: tml_C_U_u
Width: 966
VWidth: 0
GlyphClass: 2
Flags: W
LayerCount: 3
Fore
SplineSet
530 -274 m 256
 245 -273 43 -83 42 228 c 256
 41 369 92 478 150 573 c 257
 239 528 l 257
 183 435 146 351 146 228 c 256
 146 -16 302 -171 531 -170 c 256
 759 -169 854 -68 854 15 c 256
 854 54 836 88 811 88 c 256
 775 88 775 49 775 25 c 257
 726 56 l 256
 726 129 774 179 838 179 c 256
 907 179 956 108 956 12 c 256
 956 -116 837 -275 530 -274 c 256
775 252 m 257
 775 0 l 257
 679 0 l 257
 679 252 l 257
 775 252 l 257
825 341 m 257
 825 244 l 257
 729 244 l 257
 729 341 l 257
 825 341 l 257
EndSplineSet
Refer: 10 2970 N 1 0 0 1 213.999 0 2
Layer: 2
SplineSet
530 -274 m 256
 245 -273 43 -83 42 228 c 256
 41 369 92 478 150 573 c 257
 239 528 l 257
 183 435 146 351 146 228 c 256
 146 -16 302 -171 531 -170 c 256
 759 -169 854 -68 854 15 c 256
 854 54 836 88 811 88 c 256
 775 88 775 49 775 25 c 257
 726 56 l 256
 726 129 774 179 838 179 c 256
 907 179 956 108 956 12 c 256
 956 -116 837 -275 530 -274 c 256
775 252 m 257
 775 0 l 257
 679 0 l 257
 679 252 l 257
 775 252 l 257
825 341 m 257
 825 244 l 257
 729 244 l 257
 729 341 l 257
 825 341 l 257
EndSplineSet
Refer: 10 2970 N 1 0 0 1 213.999 0 2
EndChar

StartChar: tml_Ca
Encoding: 10 2970 10
GlifName: tml_C_a
Width: 572
VWidth: 0
GlyphClass: 2
Flags: W
AnchorPoint: "MatraIi" 485 560 basechar 0
AnchorPoint: "MatraI.stylalt1" 123 275 basechar 0
AnchorPoint: "virama" 384 0 basechar 0
AnchorPoint: "MatraI.alt2" 465 560 basechar 0
AnchorPoint: "MatraIi.stylalt1" 127 280 basechar 0
LayerCount: 3
Fore
SplineSet
224 341 m 258
 530 341 l 257
 530 244 l 257
 224 244 l 258
 171 244 142 212 142 167 c 256
 142 124 178 85 229 85 c 256
 294 85 320 140 320 207 c 258
 320 289 l 257
 330 301 l 257
 330 461 l 257
 235 461 l 257
 235 309 l 257
 151 309 l 257
 151 560 l 257
 530 560 l 257
 530 461 l 257
 427 461 l 257
 427 207 l 258
 427 103 387 -13 229 -13 c 256
 94 -13 42 75 42 172 c 256
 42 271 106 341 224 341 c 258
  PathStart: -2
EndSplineSet
Layer: 2
SplineSet
224 341 m 258
 530 341 l 257
 530 244 l 257
 224 244 l 258
 171 244 142 212 142 167 c 256
 142 124 178 85 229 85 c 256
 294 85 320 140 320 207 c 258
 320 289 l 257
 330 301 l 257
 330 461 l 257
 235 461 l 257
 235 309 l 257
 151 309 l 257
 151 560 l 257
 530 560 l 257
 530 461 l 257
 427 461 l 257
 427 207 l 258
 427 103 387 -13 229 -13 c 256
 94 -13 42 75 42 172 c 256
 42 271 106 341 224 341 c 258
EndSplineSet
EndChar

StartChar: tml_Credit
Encoding: 11 3063 11
GlifName: tml_C_redit
Width: 1154
VWidth: 0
GlyphClass: 2
Flags: W
LayerCount: 3
Fore
SplineSet
737 -23 m 256
 632 -23 581 52 581 156 c 256
 581 297 676 404 819 404 c 256
 977 404 1042 282 1042 173 c 256
 1042 65 992 14 992 14 c 256
 913 50 l 256
 913 50 952 81 952 161 c 256
 952 250 898 321 822 321 c 256
 735 321 681 229 681 151 c 256
 681 110 702 75 738 75 c 256
 764 75 779 103 779 144 c 256
 779 192 756 221 700 221 c 258
 486 221 l 257
 486 319 l 257
 672 319 l 257
 713 309 l 256
 760 309 886 285 886 144 c 256
 886 35 829 -23 737 -23 c 256
912 0 m 257
 913 50 l 257
 948 92 l 257
 1134 92 l 257
 1133 0 l 257
 912 0 l 257
EndSplineSet
Refer: 14 2958 N 1 0 0 1 12 0 2
Layer: 2
SplineSet
737 -23 m 256
 632 -23 581 52 581 156 c 256
 581 297 676 404 819 404 c 256
 977 404 1042 282 1042 173 c 256
 1042 65 992 14 992 14 c 256
 913 50 l 256
 913 50 952 81 952 161 c 256
 952 250 898 321 822 321 c 256
 735 321 681 229 681 151 c 256
 681 110 702 75 738 75 c 256
 764 75 779 103 779 144 c 256
 779 192 756 221 700 221 c 258
 486 221 l 257
 486 319 l 257
 672 319 l 257
 713 309 l 256
 760 309 886 285 886 144 c 256
 886 35 829 -23 737 -23 c 256
912 0 m 257
 913 50 l 257
 948 92 l 257
 1134 92 l 257
 1133 0 l 257
 912 0 l 257
EndSplineSet
Refer: 14 2958 N 1 0 0 1 12 0 2
EndChar

StartChar: tml_Day
Encoding: 12 3059 12
GlifName: tml_D_ay
Width: 634
VWidth: 0
GlyphClass: 2
Flags: W
LayerCount: 3
Fore
SplineSet
209 -24 m 256
 104 -24 42 90 42 245 c 256
 42 448 135 570 291 570 c 256
 428 570 525 452 524 279 c 256
 523 162 495 101 476 59 c 257
 391 84 l 257
 408 123 421 174 421 263 c 256
 421 389 369 473 289 473 c 256
 190 473 144 376 144 255 c 256
 144 158 161 74 209 74 c 256
 255 74 264 139 264 178 c 256
 264 246 236 281 210 281 c 256
 167 281 147 235 150 167 c 257
 94 196 l 257
 94 269 137 362 221 362 c 256
 294 362 360 297 360 174 c 256
 360 53 303 -24 209 -24 c 256
391 84 m 257
 491 99 l 257
 614 99 l 257
 614 1 l 257
 392 1 l 257
 391 84 l 257
EndSplineSet
Layer: 2
SplineSet
209 -24 m 256
 104 -24 42 90 42 245 c 256
 42 448 135 570 291 570 c 256
 428 570 525 452 524 279 c 256
 523 162 495 101 476 59 c 257
 391 84 l 257
 408 123 421 174 421 263 c 256
 421 389 369 473 289 473 c 256
 190 473 144 376 144 255 c 256
 144 158 161 74 209 74 c 256
 255 74 264 139 264 178 c 256
 264 246 236 281 210 281 c 256
 167 281 147 235 150 167 c 257
 94 196 l 257
 94 269 137 362 221 362 c 256
 294 362 360 297 360 174 c 256
 360 53 303 -24 209 -24 c 256
391 84 m 257
 491 99 l 257
 614 99 l 257
 614 1 l 257
 392 1 l 257
 391 84 l 257
EndSplineSet
EndChar

StartChar: tml_Debit
Encoding: 13 3062 13
GlifName: tml_D_ebit
Width: 797
VWidth: 0
GlyphClass: 2
Flags: W
LayerCount: 3
Fore
SplineSet
282 -349 m 256
 135 -349 42 -262 42 -180 c 256
 42 -125 83 -64 181 -64 c 258
 630 -62 l 257
 630 560 l 257
 737 560 l 257
 737 -159 l 257
 195 -158 l 258
 164 -158 149 -165 149 -190 c 256
 149 -222 212 -252 282 -252 c 256
 374 -252 436 -187 434 4 c 257
 541 4 l 257
 541 -228 435 -349 282 -349 c 256
  PathStart: -2
EndSplineSet
Refer: 92 2986 N 1 0 0 1 51 0 2
Layer: 2
SplineSet
282 -349 m 256
 135 -349 42 -262 42 -180 c 256
 42 -125 83 -64 181 -64 c 258
 630 -62 l 257
 630 560 l 257
 737 560 l 257
 737 -159 l 257
 195 -158 l 258
 164 -158 149 -165 149 -190 c 256
 149 -222 212 -252 282 -252 c 256
 374 -252 436 -187 434 4 c 257
 541 4 l 257
 541 -228 435 -349 282 -349 c 256
EndSplineSet
Refer: 92 2986 N 1 0 0 1 51 0 2
EndChar

StartChar: tml_E
Encoding: 14 2958 14
GlifName: tml_E_
Width: 646
VWidth: 0
GlyphClass: 2
Flags: W
LayerCount: 3
Fore
SplineSet
209 -24 m 256
 104 -24 42 90 42 245 c 256
 42 442 133 560 289 560 c 258
 636 560 l 257
 636 462 l 257
 533 461 l 257
 533 0 l 257
 426 0 l 257
 426 461 l 257
 283 461 l 258
 184 461 144 370 144 255 c 256
 144 158 161 74 209 74 c 256
 255 74 264 139 264 178 c 256
 264 246 236 281 210 281 c 256
 167 281 147 235 150 167 c 257
 94 196 l 257
 94 269 137 362 221 362 c 256
 294 362 360 297 360 174 c 256
 360 53 303 -24 209 -24 c 256
EndSplineSet
Layer: 2
SplineSet
209 -24 m 256
 104 -24 42 90 42 245 c 256
 42 442 133 560 289 560 c 258
 636 560 l 257
 636 462 l 257
 533 461 l 257
 533 0 l 257
 426 0 l 257
 426 461 l 257
 283 461 l 258
 184 461 144 370 144 255 c 256
 144 158 161 74 209 74 c 256
 255 74 264 139 264 178 c 256
 264 246 236 281 210 281 c 256
 167 281 147 235 150 167 c 257
 94 196 l 257
 94 269 137 362 221 362 c 256
 294 362 360 297 360 174 c 256
 360 53 303 -24 209 -24 c 256
EndSplineSet
EndChar

StartChar: tml_Ee
Encoding: 15 2959 15
GlifName: tml_E_e
Width: 646
VWidth: 0
GlyphClass: 2
Flags: W
LayerCount: 3
Fore
SplineSet
197 -162 m 257
 426 52 l 257
 533 0 l 257
 272 -239 l 257
 197 -162 l 257
EndSplineSet
Refer: 14 2958 N 1 0 0 1 12 0 2
Layer: 2
SplineSet
197 -162 m 257
 426 52 l 257
 533 0 l 257
 272 -239 l 257
 197 -162 l 257
EndSplineSet
Refer: 14 2958 N 1 0 0 1 12 0 2
EndChar

StartChar: tml_Five
Encoding: 17 3051 17
GlifName: tml_F_ive
Width: 1175
VWidth: 0
GlyphClass: 2
Flags: W
LayerCount: 3
Fore
SplineSet
339 0 m 257
 339 560 l 257
 808 560 l 257
 808 462 l 257
 705 462 l 257
 705 0 l 257
 597 0 l 257
 597 462 l 257
 446 462 l 257
 446 0 l 257
 339 0 l 257
1115 316 m 258
 1115 -1 l 257
 1003 -1 l 257
 1003 281 l 258
 1003 557 812 694 579 694 c 256
 366 694 161 569 161 244 c 256
 161 20 292 -161 531 -160 c 256
 739 -159 824 -54 824 134 c 256
 824 213 797 267 756 267 c 256
 714 267 705 229 705 204 c 257
 656 235 l 256
 656 308 704 358 768 358 c 256
 862 358 926 280 926 131 c 256
 926 -117 798 -266 520 -265 c 256
 225 -264 42 -47 42 247 c 256
 42 568 247 803 573 801 c 256
 914 799 1115 601 1115 316 c 258
  PathStart: -2
EndSplineSet
Layer: 2
SplineSet
339 0 m 257
 339 560 l 257
 808 560 l 257
 808 462 l 257
 705 462 l 257
 705 0 l 257
 597 0 l 257
 597 462 l 257
 446 462 l 257
 446 0 l 257
 339 0 l 257
1115 316 m 258
 1115 -1 l 257
 1003 -1 l 257
 1003 281 l 258
 1003 557 812 694 579 694 c 256
 366 694 161 569 161 244 c 256
 161 20 292 -161 531 -160 c 256
 739 -159 824 -54 824 134 c 256
 824 213 797 267 756 267 c 256
 714 267 705 229 705 204 c 257
 656 235 l 256
 656 308 704 358 768 358 c 256
 862 358 926 280 926 131 c 256
 926 -117 798 -266 520 -265 c 256
 225 -264 42 -47 42 247 c 256
 42 568 247 803 573 801 c 256
 914 799 1115 601 1115 316 c 258
EndSplineSet
EndChar

StartChar: tml_Four
Encoding: 18 3050 18
GlifName: tml_F_our
Width: 731
VWidth: 0
GlyphClass: 2
Flags: W
LayerCount: 3
Fore
SplineSet
598 341 m 257
 598 560 l 257
 689 560 l 257
 689 243 l 257
 471 243 l 257
 471 341 l 257
 598 341 l 257
EndSplineSet
Refer: 10 2970 N 1 0 0 1 12 0 2
Layer: 2
SplineSet
598 341 m 257
 598 560 l 257
 689 560 l 257
 689 243 l 257
 471 243 l 257
 471 341 l 257
 598 341 l 257
EndSplineSet
Refer: 10 2970 N 1 0 0 1 12 0 2
EndChar

StartChar: tml_Ha
Encoding: 19 3001 19
GlifName: tml_H_a
Width: 1277
VWidth: 0
GlyphClass: 2
Flags: W
AnchorPoint: "MatraIi.alt1" 1118 552 basechar 0
AnchorPoint: "virama" 642 0 basechar 0
AnchorPoint: "MatraI.alt6" 1118 553 basechar 0
AnchorPoint: "MatraU" 1026 573 basechar 0
AnchorPoint: "MatraUu" 1026 573 basechar 0
LayerCount: 3
Fore
SplineSet
209 -24 m 256
 104 -24 42 90 42 245 c 256
 42 448 135 573 291 573 c 256
 428 573 526 455 524 280 c 256
 523 185 501 101 482 59 c 257
 391 84 l 257
 408 123 421 174 421 263 c 256
 421 389 369 476 289 476 c 256
 190 476 144 376 144 255 c 256
 144 158 161 74 209 74 c 256
 255 74 264 139 264 178 c 256
 264 246 236 281 210 281 c 256
 167 281 147 235 150 167 c 257
 94 196 l 257
 94 269 137 362 221 362 c 256
 294 362 360 297 360 174 c 256
 360 53 303 -24 209 -24 c 256
56 -243 m 257
 57 -136 99 -61 239 -61 c 258
 933 -61 l 258
 1052 -61 1127 23 1125 244 c 256
 1123 426 1089 476 1026 476 c 256
 972 476 953 420 953 390 c 257
 882 431 l 257
 882 506 944 573 1026 573 c 256
 1173 573 1235 461 1235 234 c 256
 1235 -8 1166 -164 939 -164 c 258
 245 -165 l 258
 177 -165 167 -204 166 -243 c 257
 56 -243 l 257
943 416 m 257
 847 390 l 257
 848 443 821 473 779 473 c 256
 749 473 714 460 714 400 c 258
 714 80 l 257
 609 80 l 257
 609 426 l 258
 609 524 685 574 775 574 c 256
 855 574 940 514 943 416 c 257
  PathStart: -2
391 1 m 257
 391 84 l 257
 496 101 l 257
 609 101 l 257
 609 219 l 257
 714 219 l 257
 714 1 l 257
 391 1 l 257
847 1 m 257
 847 460 l 257
 954 460 l 257
 950 -1 l 257
 847 1 l 257
EndSplineSet
Layer: 2
SplineSet
209 -24 m 256
 104 -24 42 90 42 245 c 256
 42 448 135 573 291 573 c 256
 428 573 526 455 524 280 c 256
 523 185 501 101 482 59 c 257
 391 84 l 257
 408 123 421 174 421 263 c 256
 421 389 369 476 289 476 c 256
 190 476 144 376 144 255 c 256
 144 158 161 74 209 74 c 256
 255 74 264 139 264 178 c 256
 264 246 236 281 210 281 c 256
 167 281 147 235 150 167 c 257
 94 196 l 257
 94 269 137 362 221 362 c 256
 294 362 360 297 360 174 c 256
 360 53 303 -24 209 -24 c 256
56 -243 m 257
 57 -136 99 -61 239 -61 c 258
 933 -61 l 258
 1052 -61 1127 23 1125 244 c 256
 1123 426 1089 476 1026 476 c 256
 972 476 953 420 953 390 c 257
 882 431 l 257
 882 506 944 573 1026 573 c 256
 1173 573 1235 461 1235 234 c 256
 1235 -8 1166 -164 939 -164 c 258
 245 -165 l 258
 177 -165 167 -204 166 -243 c 257
 56 -243 l 257
943 416 m 257
 847 390 l 257
 848 443 821 473 779 473 c 256
 749 473 714 460 714 400 c 258
 714 80 l 257
 609 80 l 257
 609 426 l 258
 609 524 685 574 775 574 c 256
 855 574 940 514 943 416 c 257
391 1 m 257
 391 84 l 257
 496 101 l 257
 609 101 l 257
 609 219 l 257
 714 219 l 257
 714 1 l 257
 391 1 l 257
847 1 m 257
 847 460 l 257
 954 460 l 257
 950 -1 l 257
 847 1 l 257
EndSplineSet
EndChar

StartChar: tml_Hundred
Encoding: 20 3057 20
GlifName: tml_H_undred
Width: 750
VWidth: 0
GlyphClass: 2
Flags: W
LayerCount: 3
Fore
SplineSet
194 578 m 256
 299 578 334 493 339 402 c 257
 283 383 l 257
 283 440 258 478 215 478 c 256
 181 478 149 454 149 394 c 258
 149 1 l 257
 42 1 l 257
 42 429 l 258
 42 528 106 578 194 578 c 256
  PathStart: -2
283 1 m 257
 283 414 l 257
 323 560 l 257
 750 559 l 257
 750 460 l 257
 650 461 l 257
 650 1 l 257
 543 1 l 257
 543 462 l 257
 390 462 l 257
 390 1 l 257
 283 1 l 257
EndSplineSet
Layer: 2
SplineSet
194 578 m 256
 299 578 334 493 339 402 c 257
 283 383 l 257
 283 440 258 478 215 478 c 256
 181 478 149 454 149 394 c 258
 149 1 l 257
 42 1 l 257
 42 429 l 258
 42 528 106 578 194 578 c 256
283 1 m 257
 283 414 l 257
 323 560 l 257
 750 559 l 257
 750 460 l 257
 650 461 l 257
 650 1 l 257
 543 1 l 257
 543 462 l 257
 390 462 l 257
 390 1 l 257
 283 1 l 257
EndSplineSet
EndChar

StartChar: tml_I
Encoding: 21 2951 21
GlifName: tml_I_
Width: 1033
VWidth: 0
GlyphClass: 2
Flags: W
LayerCount: 3
Fore
SplineSet
514.995 480 m 256
 451.995 480 391.995 438 391.995 377 c 256
 391.995 349 409.995 328 435.995 328 c 256
 460.995 328 478.995 348 478.995 376 c 256
 478.995 402 460.995 420 435.995 420 c 256
 410.995 420 392.995 402 391.995 377 c 257
 337.995 379 l 257
 337.995 444 382.995 491 445.995 491 c 256
 513.995 491 562.995 441 562.995 373 c 256
 562.995 301 510.995 249 438.995 249 c 256
 360.995 249 304.995 300 304.995 384 c 256
 304.995 489 390.995 573 512.995 573 c 256
 649.995 573 745.995 468 745.995 310 c 256
 734.995 8 442.995 -210 229.995 -210 c 256
 120.995 -210 41.9951 -146 41.9951 -57 c 256
 41.9951 141 271.995 216 435.995 216 c 256
 602.995 216 826.995 139 826.995 -60 c 256
 826.995 -147 741.995 -210 623.995 -210 c 256
 393.995 -210 114.995 28 114.995 357 c 256
 114.995 610 283.995 754 525.995 754 c 256
 834.995 754 983.995 587 982.995 239 c 258
 981.995 0 l 257
 868.995 0 l 257
 868.995 223 l 258
 868.995 539 742.995 647 522.995 647 c 256
 354.995 647 229.995 545 229.995 357 c 256
 229.995 91 456.995 -112 616.995 -112 c 256
 670.995 -112 709.995 -79 709.995 -43 c 256
 709.995 33 592.995 112 436.995 112 c 256
 272.995 112 156.995 41 156.995 -47 c 256
 156.995 -79 190.995 -112 238.995 -112 c 256
 394.995 -112 638.995 71 639.995 310 c 256
 639.995 393 592.995 480 514.995 480 c 256
  PathStart: -2
EndSplineSet
Layer: 2
SplineSet
514.995 480 m 256
 451.995 480 391.995 438 391.995 377 c 256
 391.995 349 409.995 328 435.995 328 c 256
 460.995 328 478.995 348 478.995 376 c 256
 478.995 402 460.995 420 435.995 420 c 256
 410.995 420 392.995 402 391.995 377 c 257
 337.995 379 l 257
 337.995 444 382.995 491 445.995 491 c 256
 513.995 491 562.995 441 562.995 373 c 256
 562.995 301 510.995 249 438.995 249 c 256
 360.995 249 304.995 300 304.995 384 c 256
 304.995 489 390.995 573 512.995 573 c 256
 649.995 573 745.995 468 745.995 310 c 256
 734.995 8 442.995 -210 229.995 -210 c 256
 120.995 -210 41.9951 -146 41.9951 -57 c 256
 41.9951 141 271.995 216 435.995 216 c 256
 602.995 216 826.995 139 826.995 -60 c 256
 826.995 -147 741.995 -210 623.995 -210 c 256
 393.995 -210 114.995 28 114.995 357 c 256
 114.995 610 283.995 754 525.995 754 c 256
 834.995 754 983.995 587 982.995 239 c 258
 981.995 0 l 257
 868.995 0 l 257
 868.995 223 l 258
 868.995 539 742.995 647 522.995 647 c 256
 354.995 647 229.995 545 229.995 357 c 256
 229.995 91 456.995 -112 616.995 -112 c 256
 670.995 -112 709.995 -79 709.995 -43 c 256
 709.995 33 592.995 112 436.995 112 c 256
 272.995 112 156.995 41 156.995 -47 c 256
 156.995 -79 190.995 -112 238.995 -112 c 256
 394.995 -112 638.995 71 639.995 310 c 256
 639.995 393 592.995 480 514.995 480 c 256
EndSplineSet
EndChar

StartChar: tml_Ii
Encoding: 22 2952 22
GlifName: tml_I_i
Width: 690
VWidth: 0
GlyphClass: 2
Flags: W
LayerCount: 3
Fore
SplineSet
60 1 m 257
 60 560 l 257
 630 559 l 257
 630 461 l 257
 458 461 l 257
 458 1 l 257
 351 1 l 257
 351 462 l 257
 167 462 l 257
 167 1 l 257
 60 1 l 257
195 255 m 256
 195 285 221 314 253 314 c 256
 283 314 311 285 311 255 c 256
 311 225 283 197 253 197 c 256
 221 197 195 225 195 255 c 256
493 255 m 256
 493 285 521 314 551 314 c 256
 583 314 609 285 609 255 c 256
 609 225 583 197 551 197 c 256
 521 197 493 225 493 255 c 256
EndSplineSet
Layer: 2
SplineSet
60 1 m 257
 60 560 l 257
 630 559 l 257
 630 461 l 257
 458 461 l 257
 458 1 l 257
 351 1 l 257
 351 462 l 257
 167 462 l 257
 167 1 l 257
 60 1 l 257
195 255 m 256
 195 285 221 314 253 314 c 256
 283 314 311 285 311 255 c 256
 311 225 283 197 253 197 c 256
 221 197 195 225 195 255 c 256
493 255 m 256
 493 285 521 314 551 314 c 256
 583 314 609 285 609 255 c 256
 609 225 583 197 551 197 c 256
 521 197 493 225 493 255 c 256
EndSplineSet
EndChar

StartChar: tml_Ja
Encoding: 23 2972 23
GlifName: tml_J_a
Width: 782
VWidth: 0
GlyphClass: 2
Flags: W
AnchorPoint: "MatraI.alt7" 659 554 basechar 0
AnchorPoint: "virama" 408 0 basechar 0
AnchorPoint: "MatraIi.alt1" 659 554 basechar 0
AnchorPoint: "MatraU" 561 581 basechar 0
AnchorPoint: "MatraUu" 561 581 basechar 0
LayerCount: 3
Fore
SplineSet
243 -155 m 256
 139 -155 45 -99 45 24 c 256
 45 202 241 236 380 250 c 256
 501 262 616 275 616 397 c 256
 616 444 599 475 558 475 c 256
 511 475 471 435 471 354 c 258
 471 299 l 257
 366 299 l 257
 370 465 423 581 561 581 c 256
 661 581 731 520 731 396 c 256
 731 179 516 154 368 141 c 256
 295 135 165 119 165 30 c 256
 165 -18 204 -39 245 -39 c 256
 364 -39 405 143 583 143 c 256
 674 143 740 78 740 -11 c 256
 740 -94 669 -154 578 -154 c 258
 488 -154 l 257
 489 -48 l 257
 575 -48 l 258
 603 -48 623 -31 623 -7 c 256
 623 16 603 33 576 33 c 256
 480 33 434 -155 243 -155 c 256
163 234 m 256
 86 234 42 289 42 384 c 256
 43 518 132 584 240 582 c 256
 399 579 461 432 463 299 c 257
 361 299 l 257
 361 344 l 258
 361 415 302 488 247 488 c 256
 179 488 129 441 129 377 c 256
 129 332 148 317 167 317 c 256
 193 317 206 344 206 372 c 256
 206 406 186 422 167 422 c 256
 148 422 129 406 129 370 c 257
 69 412 l 256
 69 412 97 495 167 495 c 256
 208 495 284 467 284 363 c 256
 284 273 227 234 163 234 c 256
EndSplineSet
Layer: 2
SplineSet
243 -155 m 256
 139 -155 45 -99 45 24 c 256
 45 202 241 236 380 250 c 256
 501 262 616 275 616 397 c 256
 616 444 599 475 558 475 c 256
 511 475 471 435 471 354 c 258
 471 299 l 257
 366 299 l 257
 370 465 423 581 561 581 c 256
 661 581 731 520 731 396 c 256
 731 179 516 154 368 141 c 256
 295 135 165 119 165 30 c 256
 165 -18 204 -39 245 -39 c 256
 364 -39 405 143 583 143 c 256
 674 143 740 78 740 -11 c 256
 740 -94 669 -154 578 -154 c 258
 488 -154 l 257
 489 -48 l 257
 575 -48 l 258
 603 -48 623 -31 623 -7 c 256
 623 16 603 33 576 33 c 256
 480 33 434 -155 243 -155 c 256
163 234 m 256
 86 234 42 289 42 384 c 256
 43 518 132 584 240 582 c 256
 399 579 461 432 463 299 c 257
 361 299 l 257
 361 344 l 258
 361 415 302 488 247 488 c 256
 179 488 129 441 129 377 c 256
 129 332 148 317 167 317 c 256
 193 317 206 344 206 372 c 256
 206 406 186 422 167 422 c 256
 148 422 129 406 129 370 c 257
 69 412 l 256
 69 412 97 495 167 495 c 256
 208 495 284 467 284 363 c 256
 284 273 227 234 163 234 c 256
EndSplineSet
EndChar

StartChar: tml_KSsU
Encoding: 24 -1 24
GlifName: tml_K_S_sU_
Width: 1812
VWidth: 0
GlyphClass: 2
Flags: W
LayerCount: 3
Fore
SplineSet
1655 211 m 256
 1556 211 1507 282 1507 373 c 256
 1507 472 1566 522 1656 522 c 257
 1651 462 l 257
 1619 462 1606 419 1606 383 c 256
 1606 350 1617 307 1650 307 c 256
 1682 307 1692 348 1692 385 c 256
 1692 448 1663 462 1649 462 c 258
 1461 462 l 257
 1461 452 l 257
 1354 452 l 257
 1354 560 l 257
 1611 560 l 258
 1692 560 1802 539 1802 385 c 256
 1802 272 1747 211 1655 211 c 256
EndSplineSet
Refer: 26 -1 N 1 0 0 1 2 0 2
Layer: 2
SplineSet
1655 211 m 256
 1556 211 1507 282 1507 373 c 256
 1507 472 1566 522 1656 522 c 257
 1651 462 l 257
 1619 462 1606 419 1606 383 c 256
 1606 350 1617 307 1650 307 c 256
 1682 307 1692 348 1692 385 c 256
 1692 448 1663 462 1649 462 c 258
 1461 462 l 257
 1461 452 l 257
 1354 452 l 257
 1354 560 l 257
 1611 560 l 258
 1692 560 1802 539 1802 385 c 256
 1802 272 1747 211 1655 211 c 256
EndSplineSet
Refer: 26 -1 N 1 0 0 1 2 0 2
EndChar

StartChar: tml_KSsUu
Encoding: 25 -1 25
GlifName: tml_K_S_sU_u
Width: 1978
VWidth: 0
GlyphClass: 2
Flags: W
LayerCount: 3
Fore
SplineSet
1909 196 m 257
 1827 230 l 257
 1827 230 1878 315 1878 402 c 256
 1878 491 1824 562 1748 562 c 256
 1661 562 1607 470 1607 392 c 256
 1607 351 1628 316 1664 316 c 256
 1690 316 1705 344 1705 385 c 256
 1705 433 1682 462 1626 462 c 258
 1461 462 l 257
 1461 452 l 257
 1354 452 l 257
 1354 560 l 257
 1598 560 l 257
 1639 550 l 257
 1686 550 1812 526 1812 385 c 256
 1812 276 1755 218 1663 218 c 256
 1558 218 1507 293 1507 397 c 256
 1507 538 1602 645 1745 645 c 256
 1903 645 1968 523 1968 414 c 256
 1968 296 1909 196 1909 196 c 257
EndSplineSet
Refer: 26 -1 N 1 0 0 1 2 0 2
Layer: 2
SplineSet
1909 196 m 257
 1827 230 l 257
 1827 230 1878 315 1878 402 c 256
 1878 491 1824 562 1748 562 c 256
 1661 562 1607 470 1607 392 c 256
 1607 351 1628 316 1664 316 c 256
 1690 316 1705 344 1705 385 c 256
 1705 433 1682 462 1626 462 c 258
 1461 462 l 257
 1461 452 l 257
 1354 452 l 257
 1354 560 l 257
 1598 560 l 257
 1639 550 l 257
 1686 550 1812 526 1812 385 c 256
 1812 276 1755 218 1663 218 c 256
 1558 218 1507 293 1507 397 c 256
 1507 538 1602 645 1745 645 c 256
 1903 645 1968 523 1968 414 c 256
 1968 296 1909 196 1909 196 c 257
EndSplineSet
Refer: 26 -1 N 1 0 0 1 2 0 2
EndChar

StartChar: tml_KSsa
Encoding: 26 -1 26
GlifName: tml_K_S_sa
Width: 1519
VWidth: 0
GlyphClass: 2
Flags: W
AnchorPoint: "MatraIi.alt1" 1217 552 basechar 0
AnchorPoint: "MatraI.alt8" 1256 510 basechar 0
AnchorPoint: "virama" 768 0 basechar 0
LayerCount: 3
Fore
SplineSet
830 0 m 257
 830 84 l 257
 937 99 l 257
 1352 99 l 257
 1352 473 l 257
 1459 473 l 257
 1459 0 l 257
 830 0 l 257
1274 -146 m 257
 1167 -146 l 257
 1167 428 l 258
 1167 450 1161 475 1136 475 c 256
 1113 475 1094 452 1094 401 c 256
 1094 360 1106 256 1224 256 c 256
 1330 256 1351 308 1352 379 c 256
 1407 376 l 256
 1407 271 1380 155 1220 155 c 256
 1102 155 993 240 991 410 c 256
 990 514 1057 573 1132 573 c 256
 1255 573 1275 483 1274 418 c 258
 1274 -146 l 257
491 191 m 256
 491 382 604 475 731 475 c 256
 869 475 965 381 965 215 c 256
 965 125 927 72 921 59 c 257
 830 84 l 257
 848 110 866 149 866 215 c 256
 866 312 823 378 729 378 c 256
 649 378 588 309 588 189 c 256
 588 122 607 74 661 74 c 256
 704 74 713 120 713 140 c 256
 713 208 675 244 589 244 c 258
 495 244 l 257
 495 341 l 257
 600 341 l 258
 723 341 809 264 809 151 c 256
 809 55 752 -24 658 -24 c 256
 553 -24 491 65 491 191 c 256
  PathStart: -2
EndSplineSet
Refer: 10 2970 N 1 0 0 1 12 0 2
Layer: 2
SplineSet
830 0 m 257
 830 84 l 257
 937 99 l 257
 1352 99 l 257
 1352 473 l 257
 1459 473 l 257
 1459 0 l 257
 830 0 l 257
1274 -146 m 257
 1167 -146 l 257
 1167 428 l 258
 1167 450 1161 475 1136 475 c 256
 1113 475 1094 452 1094 401 c 256
 1094 360 1106 256 1224 256 c 256
 1330 256 1351 308 1352 379 c 256
 1407 376 l 256
 1407 271 1380 155 1220 155 c 256
 1102 155 993 240 991 410 c 256
 990 514 1057 573 1132 573 c 256
 1255 573 1275 483 1274 418 c 258
 1274 -146 l 257
491 191 m 256
 491 382 604 475 731 475 c 256
 869 475 965 381 965 215 c 256
 965 125 927 72 921 59 c 257
 830 84 l 257
 848 110 866 149 866 215 c 256
 866 312 823 378 729 378 c 256
 649 378 588 309 588 189 c 256
 588 122 607 74 661 74 c 256
 704 74 713 120 713 140 c 256
 713 208 675 244 589 244 c 258
 495 244 l 257
 495 341 l 257
 600 341 l 258
 723 341 809 264 809 151 c 256
 809 55 752 -24 658 -24 c 256
 553 -24 491 65 491 191 c 256
EndSplineSet
Refer: 10 2970 N 1 0 0 1 12 0 2
EndChar

StartChar: tml_KU
Encoding: 27 -1 27
GlifName: tml_K_U_
Width: 880
VWidth: 0
GlyphClass: 2
Flags: W
LayerCount: 3
Fore
SplineSet
459 -274 m 256
 211 -274 43 -104 42 121 c 256
 41 262 92 372 150 466 c 257
 239 421 l 257
 182 328 146 244 146 121 c 256
 146 -77 304 -177 459 -177 c 256
 637 -177 740 -68 740 87 c 256
 740 184 691 241 619 242 c 258
 423 244 l 258
 370 245 341 212 341 167 c 256
 341 124 375 89 426 89 c 256
 481 89 519 130 519 207 c 258
 519 289 l 257
 529 301 l 257
 529 461 l 257
 434 461 l 257
 434 309 l 257
 350 309 l 257
 350 560 l 257
 729 560 l 257
 729 461 l 257
 626 461 l 257
 626 207 l 258
 626 103 586 -9 428 -9 c 256
 293 -9 241 75 241 172 c 256
 241 271 303 341 421 341 c 258
 622 341 l 258
 761 341 838 226 838 87 c 256
 838 -116 721 -274 459 -274 c 256
EndSplineSet
Layer: 2
SplineSet
459 -274 m 256
 211 -274 43 -104 42 121 c 256
 41 262 92 372 150 466 c 257
 239 421 l 257
 182 328 146 244 146 121 c 256
 146 -77 304 -177 459 -177 c 256
 637 -177 740 -68 740 87 c 256
 740 184 691 241 619 242 c 258
 423 244 l 258
 370 245 341 212 341 167 c 256
 341 124 375 89 426 89 c 256
 481 89 519 130 519 207 c 258
 519 289 l 257
 529 301 l 257
 529 461 l 257
 434 461 l 257
 434 309 l 257
 350 309 l 257
 350 560 l 257
 729 560 l 257
 729 461 l 257
 626 461 l 257
 626 207 l 258
 626 103 586 -9 428 -9 c 256
 293 -9 241 75 241 172 c 256
 241 271 303 341 421 341 c 258
 622 341 l 258
 761 341 838 226 838 87 c 256
 838 -116 721 -274 459 -274 c 256
EndSplineSet
EndChar

StartChar: tml_KUu
Encoding: 28 -1 28
GlifName: tml_K_U_u
Width: 1072
VWidth: 0
GlyphClass: 2
Flags: W
LayerCount: 3
Fore
SplineSet
481 191 m 256
 481 382 594 475 721 475 c 256
 859 475 955 381 955 215 c 256
 955 125 917 72 911 59 c 257
 820 84 l 257
 838 110 856 149 856 215 c 256
 856 312 813 378 719 378 c 256
 639 378 578 309 578 189 c 256
 578 122 597 74 651 74 c 256
 694 74 703 120 703 140 c 256
 703 208 665 244 579 244 c 258
 485 244 l 257
 485 341 l 257
 590 341 l 258
 713 341 799 264 799 151 c 256
 799 55 742 -24 648 -24 c 256
 543 -24 481 65 481 191 c 256
  PathStart: -2
820 84 m 257
 920 99 l 257
 1052 99 l 257
 1052 1 l 257
 821 1 l 257
 820 84 l 257
EndSplineSet
Refer: 10 2970 N 1 0 0 1 12 0 2
Layer: 2
SplineSet
481 191 m 256
 481 382 594 475 721 475 c 256
 859 475 955 381 955 215 c 256
 955 125 917 72 911 59 c 257
 820 84 l 257
 838 110 856 149 856 215 c 256
 856 312 813 378 719 378 c 256
 639 378 578 309 578 189 c 256
 578 122 597 74 651 74 c 256
 694 74 703 120 703 140 c 256
 703 208 665 244 579 244 c 258
 485 244 l 257
 485 341 l 257
 590 341 l 258
 713 341 799 264 799 151 c 256
 799 55 742 -24 648 -24 c 256
 543 -24 481 65 481 191 c 256
820 84 m 257
 920 99 l 257
 1052 99 l 257
 1052 1 l 257
 821 1 l 257
 820 84 l 257
EndSplineSet
Refer: 10 2970 N 1 0 0 1 12 0 2
EndChar

StartChar: tml_Ka
Encoding: 29 2965 29
GlifName: tml_K_a
Width: 665
VWidth: 0
GlyphClass: 2
Flags: W
AnchorPoint: "MatraI.alt2" 455 560 basechar 0
AnchorPoint: "MatraIi" 475 560 basechar 0
AnchorPoint: "MatraI.stylalt1" 132 275 basechar 0
AnchorPoint: "virama" 380 0 basechar 0
AnchorPoint: "MatraIi.stylalt1" 136 280 basechar 0
AnchorPoint: "MatraI.alt1" 450 560 basechar 0
LayerCount: 3
Fore
SplineSet
222 341 m 258
 453 341 l 258
 547 341 623 306 623 167 c 256
 623 17 540 0 458 0 c 258
 437 0 l 257
 437 93 l 257
 453 93 l 258
 497 93 525 123 525 168 c 256
 525 225 491 242 450 242 c 258
 224 244 l 258
 171 244 142 212 142 167 c 256
 142 124 176 89 227 89 c 256
 282 89 320 130 320 207 c 258
 320 289 l 257
 330 301 l 257
 330 461 l 257
 235 461 l 257
 235 309 l 257
 151 309 l 257
 151 560 l 257
 530 560 l 257
 530 461 l 257
 427 461 l 257
 427 207 l 258
 427 103 387 -9 229 -9 c 256
 94 -9 42 75 42 172 c 256
 42 271 104 341 222 341 c 258
  PathStart: -2
EndSplineSet
Layer: 2
SplineSet
222 341 m 258
 453 341 l 258
 547 341 623 306 623 167 c 256
 623 17 540 0 458 0 c 258
 437 0 l 257
 437 93 l 257
 453 93 l 258
 497 93 525 123 525 168 c 256
 525 225 491 242 450 242 c 258
 224 244 l 258
 171 244 142 212 142 167 c 256
 142 124 176 89 227 89 c 256
 282 89 320 130 320 207 c 258
 320 289 l 257
 330 301 l 257
 330 461 l 257
 235 461 l 257
 235 309 l 257
 151 309 l 257
 151 560 l 257
 530 560 l 257
 530 461 l 257
 427 461 l 257
 427 207 l 258
 427 103 387 -9 229 -9 c 256
 94 -9 42 75 42 172 c 256
 42 271 104 341 222 341 c 258
EndSplineSet
EndChar

StartChar: tml_LU
Encoding: 30 -1 30
GlifName: tml_L_U_
Width: 954
VWidth: 0
GlyphClass: 2
Flags: W
LayerCount: 3
Fore
SplineSet
610 0 m 257
 610 -173 541 -349 308 -349 c 256
 150 -349 62 -275 62 -193 c 256
 62 -124 113 -74 189 -74 c 258
 787 -74 l 257
 787 573 l 257
 894 573 l 257
 894 -171 l 257
 204 -169 l 258
 186 -169 169 -177 169 -199 c 256
 169 -215 185 -252 308 -252 c 256
 426 -252 506 -190 506 0 c 257
 610 0 l 257
EndSplineSet
Refer: 32 2994 N 1 0 0 1 2 0 2
Layer: 2
SplineSet
610 0 m 257
 610 -173 541 -349 308 -349 c 256
 150 -349 62 -275 62 -193 c 256
 62 -124 113 -74 189 -74 c 258
 787 -74 l 257
 787 573 l 257
 894 573 l 257
 894 -171 l 257
 204 -169 l 258
 186 -169 169 -177 169 -199 c 256
 169 -215 185 -252 308 -252 c 256
 426 -252 506 -190 506 0 c 257
 610 0 l 257
EndSplineSet
Refer: 32 2994 N 1 0 0 1 2 0 2
EndChar

StartChar: tml_LUu
Encoding: 31 -1 31
GlifName: tml_L_U_u
Width: 1199
VWidth: 0
GlyphClass: 2
Flags: W
LayerCount: 3
Fore
SplineSet
1199 573 m 257
 1199 476 l 257
 1099 476 l 257
 1099 -13 l 257
 992 -13 l 257
 992 476 l 257
 877 476 l 257
 877 573 l 257
 1199 573 l 257
EndSplineSet
Refer: 30 -1 N 1 0 0 1 -5 0 2
Layer: 2
SplineSet
1199 573 m 257
 1199 476 l 257
 1099 476 l 257
 1099 -13 l 257
 992 -13 l 257
 992 476 l 257
 877 476 l 257
 877 573 l 257
 1199 573 l 257
EndSplineSet
Refer: 30 -1 N 1 0 0 1 -5 0 2
EndChar

StartChar: tml_La
Encoding: 32 2994 32
GlifName: tml_L_a
Width: 786
VWidth: 0
GlyphClass: 2
Flags: W
AnchorPoint: "virama" 422 0 basechar 0
AnchorPoint: "MatraAi.alt" 44 244 basechar 0
AnchorPoint: "MatraIi.alt2" 636 584 basechar 0
AnchorPoint: "MatraI.alt5" 618 573 basechar 0
LayerCount: 3
Fore
SplineSet
209 -23 m 256
 104 -23 42 90 42 245 c 256
 42 448 134 572 292 573 c 256
 427 574 513 463 513 332 c 256
 513 290 504 229 504 181 c 256
 504 121 522 75 570 75 c 256
 631 75 638 161 638 256 c 256
 638 445 549 530 549 530 c 256
 636 584 l 256
 691 525 744 401 744 255 c 256
 744 151 726 -23 570 -23 c 256
 425 -23 403 79 403 190 c 256
 403 240 409 293 409 335 c 256
 408 425 344 476 292 476 c 256
 192 476 143 377 143 256 c 256
 143 159 161 75 209 75 c 256
 255 75 264 139 264 178 c 256
 264 245 235 282 209 282 c 256
 170 282 141 228 153 148 c 257
 93 197 l 257
 93 268 138 362 221 362 c 256
 285 362 360 308 360 175 c 256
 360 54 304 -23 209 -23 c 256
EndSplineSet
Layer: 2
SplineSet
209 -23 m 256
 104 -23 42 90 42 245 c 256
 42 448 134 572 292 573 c 256
 427 574 513 463 513 332 c 256
 513 290 504 229 504 181 c 256
 504 121 522 75 570 75 c 256
 631 75 638 161 638 256 c 256
 638 445 549 530 549 530 c 256
 636 584 l 256
 691 525 744 401 744 255 c 256
 744 151 726 -23 570 -23 c 256
 425 -23 403 79 403 190 c 256
 403 240 409 293 409 335 c 256
 408 425 344 476 292 476 c 256
 192 476 143 377 143 256 c 256
 143 159 161 75 209 75 c 256
 255 75 264 139 264 178 c 256
 264 245 235 282 209 282 c 256
 170 282 141 228 153 148 c 257
 93 197 l 257
 93 268 138 362 221 362 c 256
 285 362 360 308 360 175 c 256
 360 54 304 -23 209 -23 c 256
EndSplineSet
EndChar

StartChar: tml_LlU
Encoding: 33 -1 33
GlifName: tml_L_lU_
Width: 1249
VWidth: 0
GlyphClass: 2
Flags: W
LayerCount: 3
Fore
SplineSet
650 -271 m 256
 350 -271 42 -147 42 242 c 256
 42 388 90 510 138 572 c 257
 227 527 l 257
 218 514 146 417 146 252 c 256
 146 -64 401 -168 646 -168 c 256
 869 -168 1105 -84 1105 137 c 256
 1105 208 1081 267 1034 267 c 256
 998 267 986 231 986 204 c 257
 937 235 l 257
 937 308 983 358 1053 358 c 256
 1143 358 1207 274 1207 138 c 256
 1207 -147 987 -271 650 -271 c 256
EndSplineSet
Refer: 35 2995 N 1 0 0 1 211 0 2
Layer: 2
SplineSet
650 -271 m 256
 350 -271 42 -147 42 242 c 256
 42 388 90 510 138 572 c 257
 227 527 l 257
 218 514 146 417 146 252 c 256
 146 -64 401 -168 646 -168 c 256
 869 -168 1105 -84 1105 137 c 256
 1105 208 1081 267 1034 267 c 256
 998 267 986 231 986 204 c 257
 937 235 l 257
 937 308 983 358 1053 358 c 256
 1143 358 1207 274 1207 138 c 256
 1207 -147 987 -271 650 -271 c 256
EndSplineSet
Refer: 35 2995 N 1 0 0 1 211 0 2
EndChar

StartChar: tml_LlUu
Encoding: 34 -1 34
GlifName: tml_L_lU_u
Width: 1378
VWidth: 0
GlyphClass: 2
Flags: W
LayerCount: 3
Fore
SplineSet
761 -168 m 256
 999 -167 1234 -84 1234 134 c 256
 1234 213 1207 267 1166 267 c 256
 1124 267 1115 229 1115 204 c 257
 1066 235 l 256
 1066 308 1114 358 1178 358 c 256
 1272 358 1336 280 1336 131 c 256
 1336 -147 1068 -270 760 -275 c 256
 421 -281 42 -120 42 238 c 256
 42 381 76 572 231 572 c 256
 322 572 359 491 359 427 c 256
 359 361 320 286 237 286 c 256
 158 286 127 353 127 407 c 256
 127 460 158 500 203 510 c 257
 222 486 l 257
 201 481 188 459 188 425 c 256
 188 389 203 365 232 365 c 256
 259 365 275 389 275 424 c 256
 275 459 262 487 233 487 c 257
 171 490 142 348 142 253 c 256
 142 -48 470 -169 761 -168 c 256
  PathStart: -2
EndSplineSet
Refer: 35 2995 N 1 0 0 1 331 0 2
Layer: 2
SplineSet
761 -168 m 256
 999 -167 1234 -84 1234 134 c 256
 1234 213 1207 267 1166 267 c 256
 1124 267 1115 229 1115 204 c 257
 1066 235 l 256
 1066 308 1114 358 1178 358 c 256
 1272 358 1336 280 1336 131 c 256
 1336 -147 1068 -270 760 -275 c 256
 421 -281 42 -120 42 238 c 256
 42 381 76 572 231 572 c 256
 322 572 359 491 359 427 c 256
 359 361 320 286 237 286 c 256
 158 286 127 353 127 407 c 256
 127 460 158 500 203 510 c 257
 222 486 l 257
 201 481 188 459 188 425 c 256
 188 389 203 365 232 365 c 256
 259 365 275 389 275 424 c 256
 275 459 262 487 233 487 c 257
 171 490 142 348 142 253 c 256
 142 -48 470 -169 761 -168 c 256
EndSplineSet
Refer: 35 2995 N 1 0 0 1 331 0 2
EndChar

StartChar: tml_Lla
Encoding: 35 2995 35
GlifName: tml_L_la
Width: 890
VWidth: 0
GlyphClass: 2
Flags: W
AnchorPoint: "MatraIi" 835 560 basechar 0
AnchorPoint: "MatraAi.alt" 42 244 basechar 0
AnchorPoint: "virama" 488 0 basechar 0
AnchorPoint: "MatraI.alt2" 815 560 basechar 0
LayerCount: 3
Fore
SplineSet
209 -24 m 256
 104 -24 42 90 42 245 c 256
 42 450 131 573 281 573 c 256
 411 573 502 436 502 235 c 256
 421 257 l 256
 421 388 366 476 281 476 c 256
 188 476 144 378 144 255 c 256
 144 158 161 74 209 74 c 256
 255 74 264 139 264 178 c 256
 264 246 236 281 210 281 c 256
 167 281 147 235 150 167 c 257
 91 196 l 257
 91 259 134 362 219 362 c 256
 294 362 362 297 362 174 c 256
 362 53 305 -24 209 -24 c 256
421 1 m 257
 421 462 l 257
 436 466 l 257
 436 560 l 257
 890 560 l 257
 890 462 l 257
 787 462 l 257
 787 1 l 257
 680 1 l 257
 680 462 l 257
 529 462 l 257
 529 1 l 257
 421 1 l 257
EndSplineSet
Layer: 2
SplineSet
209 -24 m 256
 104 -24 42 90 42 245 c 256
 42 450 131 573 281 573 c 256
 411 573 502 436 502 235 c 256
 421 257 l 256
 421 388 366 476 281 476 c 256
 188 476 144 378 144 255 c 256
 144 158 161 74 209 74 c 256
 255 74 264 139 264 178 c 256
 264 246 236 281 210 281 c 256
 167 281 147 235 150 167 c 257
 91 196 l 257
 91 259 134 362 219 362 c 256
 294 362 362 297 362 174 c 256
 362 53 305 -24 209 -24 c 256
421 1 m 257
 421 462 l 257
 436 466 l 257
 436 560 l 257
 890 560 l 257
 890 462 l 257
 787 462 l 257
 787 1 l 257
 680 1 l 257
 680 462 l 257
 529 462 l 257
 529 1 l 257
 421 1 l 257
EndSplineSet
EndChar

StartChar: tml_LllU
Encoding: 36 -1 36
GlifName: tml_L_llU_
Width: 924
VWidth: 0
GlyphClass: 2
Flags: W
LayerCount: 3
Fore
SplineSet
729.99 -173 m 256
 729.99 -108 672.99 -112 656.99 -160 c 257
 548.99 -160 l 257
 549.99 32 l 257
 657.99 33 l 257
 657.99 -61 l 257
 687.99 -32 832.99 -28 832.99 -173 c 256
 832.99 -271 725.99 -386 514.99 -386 c 256
 199.99 -385 41.9902 -124 41.9902 167 c 256
 41.9902 348 92.9902 476 149.99 572 c 257
 238.99 527 l 257
 200.99 454 145.99 350 145.99 167 c 256
 145.99 -27 226.99 -279 515.99 -278 c 256
 655.99 -278 729.99 -233 729.99 -173 c 256
  PathStart: -2
EndSplineSet
Refer: 41 2990 N 1 0 0 1 264.99 0 2
PickledDataWithLists: "(dp1
S'com.typemytype.robofont.guides'
p2
(lp3
(dp4
S'y'
I-275
sS'x'
I1395
sS'angle'
p5
I0
sS'isGlobal'
p6
I00
sasS'com.typemytype.robofont.layerData'
p7
(dp8
S'background'
p9
(dp10
S'name'
p11
S'tml_LllU'
p12
sS'lib'
p13
(dp14
sS'unicodes'
p15
(lp16
sS'width'
p17
I920
sS'contours'
p18
(lp19
(dp20
S'points'
p21
(lp22
(dp23
S'y'
I-278
sS'x'
I644
sS'smooth'
p24
I00
sa(dp25
S'y'
I-233
sS'x'
I718
sg24
I00
sa(dp26
S'segmentType'
p27
S'curve'
p28
sS'x'
I718
sg24
I01
sS'y'
I-173
sa(dp29
S'y'
I-108
sS'x'
I718
sg24
I00
sa(dp30
S'y'
I-112
sS'x'
I661
sg24
I00
sa(dp31
g27
S'curve'
p32
sS'x'
I645
sg24
I00
sS'y'
I-160
sa(dp33
g27
S'line'
p34
sS'x'
I537
sg24
I00
sS'y'
I-160
sa(dp35
g27
S'line'
p36
sS'x'
I538
sg24
I00
sS'y'
I32
sa(dp37
g27
S'line'
p38
sS'x'
I646
sg24
I00
sS'y'
I33
sa(dp39
g27
S'line'
p40
sS'x'
I646
sg24
I00
sS'y'
I-61
sa(dp41
S'y'
I-32
sS'x'
I676
sg24
I00
sa(dp42
S'y'
I-28
sS'x'
I821
sg24
I00
sa(dp43
g27
S'curve'
p44
sS'x'
I821
sg24
I01
sS'y'
I-173
sa(dp45
S'y'
I-271
sS'x'
I821
sg24
I00
sa(dp46
S'y'
I-386
sS'x'
I714
sg24
I00
sa(dp47
g27
S'curve'
p48
sS'x'
I503
sg24
I00
sS'y'
I-386
sa(dp49
S'y'
I-385
sS'x'
I158
sg24
I00
sa(dp50
S'y'
I-84
sS'x'
I11
sg24
I00
sa(dp51
g27
S'curve'
p52
sS'x'
I10
sg24
I01
sS'y'
I227
sa(dp53
S'y'
I368
sS'x'
I10
sg24
I00
sa(dp54
S'y'
I477
sS'x'
I60
sg24
I00
sa(dp55
g27
S'curve'
p56
sS'x'
I118
sg24
I00
sS'y'
I572
sa(dp57
g27
S'line'
p58
sS'x'
I207
sg24
I00
sS'y'
I527
sa(dp59
S'y'
I434
sS'x'
I151
sg24
I00
sa(dp60
S'y'
I350
sS'x'
I114
sg24
I00
sa(dp61
g27
S'curve'
p62
sS'x'
I114
sg24
I01
sS'y'
I227
sa(dp63
S'y'
I13
sS'x'
I114
sg24
I00
sa(dp64
S'y'
I-279
sS'x'
I215
sg24
I00
sa(dp65
g27
S'curve'
p66
sS'x'
I504
sg24
I00
sS'y'
I-278
sasasS'components'
p67
(lp68
sS'anchors'
p69
(lp70
sss."
Layer: 2
SplineSet
729.99 -173 m 256
 729.99 -108 672.99 -112 656.99 -160 c 257
 548.99 -160 l 257
 549.99 32 l 257
 657.99 33 l 257
 657.99 -61 l 257
 687.99 -32 832.99 -28 832.99 -173 c 256
 832.99 -271 725.99 -386 514.99 -386 c 256
 199.99 -385 41.9902 -124 41.9902 167 c 256
 41.9902 348 92.9902 476 149.99 572 c 257
 238.99 527 l 257
 200.99 454 145.99 350 145.99 167 c 256
 145.99 -27 226.99 -279 515.99 -278 c 256
 655.99 -278 729.99 -233 729.99 -173 c 256
EndSplineSet
Refer: 41 2990 N 1 0 0 1 264.99 0 2
EndChar

StartChar: tml_LllUu
Encoding: 37 -1 37
GlifName: tml_L_llU_u
Width: 1011
VWidth: 0
GlyphClass: 2
Flags: W
LayerCount: 3
Fore
SplineSet
582.99 -386 m 256
 232.99 -386 41.9902 -144 41.9902 181 c 256
 41.9902 334 83.9902 573 238.99 573 c 256
 329.99 573 366.99 492 366.99 428 c 256
 366.99 362 327.99 287 244.99 287 c 256
 165.99 287 134.99 354 134.99 408 c 256
 134.99 461 165.99 501 210.99 511 c 257
 229.99 487 l 257
 208.99 482 195.99 460 195.99 426 c 256
 195.99 390 210.99 366 239.99 366 c 256
 266.99 366 282.99 390 282.99 425 c 256
 282.99 460 269.99 488 240.99 488 c 256
 165.99 488 141.99 336 141.99 214 c 256
 141.99 -94 294.99 -278 581.99 -278 c 256
 711.99 -278 816.99 -240 816.99 -167 c 256
 816.99 -113 759.99 -111 743.99 -160 c 257
 635.99 -160 l 257
 636.99 32 l 257
 744.99 33 l 257
 744.99 -61 l 257
 774.99 -30 919.99 -36 919.99 -166 c 256
 919.99 -271 823.99 -386 582.99 -386 c 256
EndSplineSet
Refer: 41 2990 N 1 0 0 1 351.99 0 2
Layer: 2
SplineSet
582.99 -386 m 256
 232.99 -386 41.9902 -144 41.9902 181 c 256
 41.9902 334 83.9902 573 238.99 573 c 256
 329.99 573 366.99 492 366.99 428 c 256
 366.99 362 327.99 287 244.99 287 c 256
 165.99 287 134.99 354 134.99 408 c 256
 134.99 461 165.99 501 210.99 511 c 257
 229.99 487 l 257
 208.99 482 195.99 460 195.99 426 c 256
 195.99 390 210.99 366 239.99 366 c 256
 266.99 366 282.99 390 282.99 425 c 256
 282.99 460 269.99 488 240.99 488 c 256
 165.99 488 141.99 336 141.99 214 c 256
 141.99 -94 294.99 -278 581.99 -278 c 256
 711.99 -278 816.99 -240 816.99 -167 c 256
 816.99 -113 759.99 -111 743.99 -160 c 257
 635.99 -160 l 257
 636.99 32 l 257
 744.99 33 l 257
 744.99 -61 l 257
 774.99 -30 919.99 -36 919.99 -166 c 256
 919.99 -271 823.99 -386 582.99 -386 c 256
EndSplineSet
Refer: 41 2990 N 1 0 0 1 351.99 0 2
EndChar

StartChar: tml_Llla
Encoding: 38 2996 38
GlifName: tml_L_lla
Width: 671
VWidth: 0
GlyphClass: 2
Flags: W
AnchorPoint: "MatraIi.alt1" 505.671 552 basechar 0
AnchorPoint: "MatraI.alt6" 500.671 554 basechar 0
AnchorPoint: "virama" 291.671 0 basechar 0
LayerCount: 3
Fore
SplineSet
250.671 -293 m 256
 129.671 -293 45.6709 -206 45.6709 -83 c 257
 158.671 -82 l 257
 158.671 -133 175.671 -190 257.671 -190 c 256
 324.671 -190 349.671 -133 349.671 -133 c 256
 349.671 -133 393.671 -178 396.671 -175 c 257
 349.671 -175 276.671 -136 276.671 8 c 258
 276.671 429 l 258
 276.671 518 312.671 573 409.671 573 c 256
 570.671 573 624.671 432 628.671 299 c 256
 634.671 128 558.671 0 399.671 0 c 258
 41.6709 0 l 257
 41.6709 559 l 257
 148.671 559 l 257
 148.671 98 l 257
 380.671 98 l 258
 510.671 95 530.671 182 530.671 275 c 256
 530.671 414 485.671 484 425.671 484 c 256
 396.671 484 384.671 467 384.671 429 c 258
 384.671 -2 l 258
 384.671 -57 403.671 -89 468.671 -89 c 258
 557.671 -89 l 257
 557.671 -179 l 257
 424.671 -179 l 257
 424.671 -179 451.671 -163 451.671 -166 c 256
 451.671 -197 377.671 -293 250.671 -293 c 256
EndSplineSet
Layer: 2
SplineSet
250.671 -293 m 256
 129.671 -293 45.6709 -206 45.6709 -83 c 257
 158.671 -82 l 257
 158.671 -133 175.671 -190 257.671 -190 c 256
 324.671 -190 349.671 -133 349.671 -133 c 256
 349.671 -133 393.671 -178 396.671 -175 c 257
 349.671 -175 276.671 -136 276.671 8 c 258
 276.671 429 l 258
 276.671 518 312.671 573 409.671 573 c 256
 570.671 573 624.671 432 628.671 299 c 256
 634.671 128 558.671 0 399.671 0 c 258
 41.6709 0 l 257
 41.6709 559 l 257
 148.671 559 l 257
 148.671 98 l 257
 380.671 98 l 258
 510.671 95 530.671 182 530.671 275 c 256
 530.671 414 485.671 484 425.671 484 c 256
 396.671 484 384.671 467 384.671 429 c 258
 384.671 -2 l 258
 384.671 -57 403.671 -89 468.671 -89 c 258
 557.671 -89 l 257
 557.671 -179 l 257
 424.671 -179 l 257
 424.671 -179 451.671 -163 451.671 -166 c 256
 451.671 -197 377.671 -293 250.671 -293 c 256
EndSplineSet
EndChar

StartChar: tml_MU
Encoding: 39 -1 39
GlifName: tml_M_U_
Width: 933
VWidth: 0
GlyphClass: 2
Flags: W
LayerCount: 3
Fore
SplineSet
41.9902 184 m 256
 41.9902 354 94.9902 483 158.99 573 c 257
 248.99 528 l 257
 187.99 435 145.99 340 145.99 189 c 256
 145.99 -42 244.99 -170 383.99 -170 c 256
 485.99 -170 558.99 -101 558.99 29 c 257
 666.99 29 l 257
 666.99 -170 534.99 -267 384.99 -267 c 256
 185.99 -267 41.9902 -96 41.9902 184 c 256
  PathStart: -2
EndSplineSet
Refer: 41 2990 N 1 0 0 1 273.99 0 2
Layer: 2
SplineSet
41.9902 184 m 256
 41.9902 354 94.9902 483 158.99 573 c 257
 248.99 528 l 257
 187.99 435 145.99 340 145.99 189 c 256
 145.99 -42 244.99 -170 383.99 -170 c 256
 485.99 -170 558.99 -101 558.99 29 c 257
 666.99 29 l 257
 666.99 -170 534.99 -267 384.99 -267 c 256
 185.99 -267 41.9902 -96 41.9902 184 c 256
EndSplineSet
Refer: 41 2990 N 1 0 0 1 273.99 0 2
EndChar

StartChar: tml_MUu
Encoding: 40 -1 40
GlifName: tml_M_U_u
Width: 1012
VWidth: 0
GlyphClass: 2
Flags: W
LayerCount: 3
Fore
SplineSet
432.99 -170 m 256
 534.99 -170 637.99 -101 637.99 29 c 257
 745.99 29 l 257
 745.99 -170 583.99 -267 433.99 -267 c 256
 224.99 -267 41.9902 -99 41.9902 181 c 256
 41.9902 334 83.9902 573 238.99 573 c 256
 329.99 573 366.99 492 366.99 428 c 256
 366.99 362 327.99 287 244.99 287 c 256
 165.99 287 134.99 354 134.99 408 c 256
 134.99 461 165.99 501 210.99 511 c 257
 229.99 487 l 257
 208.99 482 195.99 460 195.99 426 c 256
 195.99 390 210.99 366 239.99 366 c 256
 266.99 366 282.99 390 282.99 425 c 256
 282.99 460 269.99 488 240.99 488 c 256
 165.99 488 141.99 336 141.99 214 c 256
 141.99 -17 255.99 -170 432.99 -170 c 256
  PathStart: -2
EndSplineSet
Refer: 41 2990 N 1 0 0 1 352.99 0 2
Layer: 2
SplineSet
432.99 -170 m 256
 534.99 -170 637.99 -101 637.99 29 c 257
 745.99 29 l 257
 745.99 -170 583.99 -267 433.99 -267 c 256
 224.99 -267 41.9902 -99 41.9902 181 c 256
 41.9902 334 83.9902 573 238.99 573 c 256
 329.99 573 366.99 492 366.99 428 c 256
 366.99 362 327.99 287 244.99 287 c 256
 165.99 287 134.99 354 134.99 408 c 256
 134.99 461 165.99 501 210.99 511 c 257
 229.99 487 l 257
 208.99 482 195.99 460 195.99 426 c 256
 195.99 390 210.99 366 239.99 366 c 256
 266.99 366 282.99 390 282.99 425 c 256
 282.99 460 269.99 488 240.99 488 c 256
 165.99 488 141.99 336 141.99 214 c 256
 141.99 -17 255.99 -170 432.99 -170 c 256
EndSplineSet
Refer: 41 2990 N 1 0 0 1 352.99 0 2
EndChar

StartChar: tml_Ma
Encoding: 41 2990 41
GlifName: tml_M_a
Width: 679
VWidth: 0
GlyphClass: 2
Flags: W
AnchorPoint: "MatraIi.alt1" 517.99 552 basechar 0
AnchorPoint: "MatraI.alt6" 514.99 554 basechar 0
AnchorPoint: "virama" 329.99 0 basechar 0
LayerCount: 3
Fore
SplineSet
49.9902 0 m 257
 49.9902 559 l 257
 156.99 559 l 257
 156.99 98 l 257
 395.99 98 l 257
 411.99 0 l 257
 49.9902 0 l 257
284.99 68 m 257
 284.99 442 l 258
 284.99 534 324.99 575 417.99 576 c 256
 580.99 577 635.99 426 636.99 299 c 256
 637.99 114 563.99 0 407.99 0 c 257
 388.99 98 l 257
 528.99 97 539.99 215 539.99 299 c 256
 539.99 381 506.99 487 428.99 487 c 256
 401.99 487 392.99 467 392.99 432 c 258
 392.99 68 l 257
 284.99 68 l 257
EndSplineSet
Layer: 2
SplineSet
49.9902 0 m 257
 49.9902 559 l 257
 156.99 559 l 257
 156.99 98 l 257
 395.99 98 l 257
 411.99 0 l 257
 49.9902 0 l 257
284.99 68 m 257
 284.99 442 l 258
 284.99 534 324.99 575 417.99 576 c 256
 580.99 577 635.99 426 636.99 299 c 256
 637.99 114 563.99 0 407.99 0 c 257
 388.99 98 l 257
 528.99 97 539.99 215 539.99 299 c 256
 539.99 381 506.99 487 428.99 487 c 256
 401.99 487 392.99 467 392.99 432 c 258
 392.99 68 l 257
 284.99 68 l 257
EndSplineSet
EndChar

StartChar: tml_MatraAa
Encoding: 42 3006 42
GlifName: tml_M_atraA_a
Width: 539
VWidth: 0
GlyphClass: 2
Flags: W
LayerCount: 3
Fore
SplineSet
60 1 m 257
 60 560 l 257
 539 560 l 257
 539 462 l 257
 436 462 l 257
 436 1 l 257
 328 1 l 257
 328 462 l 257
 167 462 l 257
 167 1 l 257
 60 1 l 257
EndSplineSet
Layer: 2
SplineSet
60 1 m 257
 60 560 l 257
 539 560 l 257
 539 462 l 257
 436 462 l 257
 436 1 l 257
 328 1 l 257
 328 462 l 257
 167 462 l 257
 167 1 l 257
 60 1 l 257
EndSplineSet
EndChar

StartChar: tml_MatraAi
Encoding: 43 3016 43
GlifName: tml_M_atraA_i
Width: 1010
VWidth: 0
GlyphClass: 2
Flags: HW
LayerCount: 3
Fore
SplineSet
213 -24 m 256
 104 -24 42 91 42 236 c 256
 42 483 224 570 353 570 c 256
 461 570 700 510 700 200 c 256
 700 52 633.275 -23 543 -23 c 260
 447.215189873 -23 382 57 382 206 c 256
 382 401 489.35749697 572 690 572 c 256
 837.850187266 572 968 469.630769231 968 256 c 256
 968 117.414448669 899 0.54752851711 772 -16 c 257
 758 86 l 257
 826 92 860 177 860 249 c 256
 860 394 788.283018868 474 679 474 c 256
 530.962616822 474 487 327 487 199 c 256
 487 123 505.924528302 65 546 65 c 256
 580.5 65 592 124 592 194 c 256
 592 397 467.005028316 475.662230112 344 474 c 256
 270 473 144 418 144 233 c 256
 144 165 152 64 211 64 c 256
 254 64 264 139 264 179 c 256
 264 238 242 281 207 281 c 256
 170 281 143 234 147 167 c 257
 94 196 l 257
 94 269 136 362 222 362 c 256
 294 362 360 298 360 171 c 256
 360 50 300 -24 213 -24 c 256
EndSplineSet
Layer: 2
SplineSet
213 -24 m 256
 104 -24 42 91 42 236 c 256
 42 483 224 570 353 570 c 256
 461 570 700 510 700 200 c 256
 700 52 633.275 -23 543 -23 c 260
 447.215189873 -23 382 57 382 206 c 256
 382 401 489.35749697 572 690 572 c 256
 837.850187266 572 968 469.630769231 968 256 c 256
 968 117.414448669 899 0.54752851711 772 -16 c 257
 758 86 l 257
 826 92 860 177 860 249 c 256
 860 394 788.283018868 474 679 474 c 256
 530.962616822 474 487 327 487 199 c 256
 487 123 505.924528302 65 546 65 c 256
 580.5 65 592 124 592 194 c 256
 592 397 467.005028316 475.662230112 344 474 c 256
 270 473 144 418 144 233 c 256
 144 165 152 64 211 64 c 256
 254 64 264 139 264 179 c 256
 264 238 242 281 207 281 c 256
 170 281 143 234 147 167 c 257
 94 196 l 257
 94 269 136 362 222 362 c 256
 294 362 360 298 360 171 c 256
 360 50 300 -24 213 -24 c 256
EndSplineSet
EndChar

StartChar: tml_MatraAi.alt
Encoding: 44 -1 44
GlifName: tml_M_atraA_i.alt
Width: -666
VWidth: 0
GlyphClass: 2
Flags: W
AnchorPoint: "MatraAi.alt" -744 244 mark 0
LayerCount: 3
Fore
SplineSet
-725 566 m 256
 -725 418 -884 263 -884 166 c 256
 -884 101 -852 76 -813 76 c 256
 -754 76 -744 147 -744 245 c 257
 -666 201 l 257
 -666 62 -714 -23 -813 -23 c 256
 -903 -23 -985 23 -985 166 c 256
 -985 329 -822 440 -822 566 c 256
 -822 664 -872 708 -939 708 c 256
 -1002 708 -1047 664 -1047 603 c 256
 -1047 575 -1029 554 -1003 554 c 256
 -978 554 -960 574 -960 602 c 256
 -960 628 -978 646 -1003 646 c 256
 -1028 646 -1046 628 -1047 603 c 257
 -1101 605 l 257
 -1101 670 -1056 717 -993 717 c 256
 -925 717 -876 667 -876 599 c 256
 -876 527 -928 475 -1000 475 c 256
 -1078 475 -1134 526 -1134 610 c 256
 -1134 715 -1058 801 -936 800 c 256
 -822 800 -725 724 -725 566 c 256
  PathStart: -2
EndSplineSet
Layer: 2
SplineSet
-725 566 m 256
 -725 418 -884 263 -884 166 c 256
 -884 101 -852 76 -813 76 c 256
 -754 76 -744 147 -744 245 c 257
 -666 201 l 257
 -666 62 -714 -23 -813 -23 c 256
 -903 -23 -985 23 -985 166 c 256
 -985 329 -822 440 -822 566 c 256
 -822 664 -872 708 -939 708 c 256
 -1002 708 -1047 664 -1047 603 c 256
 -1047 575 -1029 554 -1003 554 c 256
 -978 554 -960 574 -960 602 c 256
 -960 628 -978 646 -1003 646 c 256
 -1028 646 -1046 628 -1047 603 c 257
 -1101 605 l 257
 -1101 670 -1056 717 -993 717 c 256
 -925 717 -876 667 -876 599 c 256
 -876 527 -928 475 -1000 475 c 256
 -1078 475 -1134 526 -1134 610 c 256
 -1134 715 -1058 801 -936 800 c 256
 -822 800 -725 724 -725 566 c 256
EndSplineSet
EndChar

StartChar: tml_MatraE
Encoding: 46 3014 46
GlifName: tml_M_atraE_
Width: 633
VWidth: 0
GlyphClass: 2
Flags: W
LayerCount: 3
Fore
SplineSet
212 -29 m 256
 84 -29 42 117 42 347 c 256
 42 659 186 805 351 806 c 256
 496 807 588 729 589 459 c 258
 591 0 l 257
 483 0 l 257
 482 457 l 258
 482 661 411 698 347 698 c 256
 241 698 148 573 148 382 c 256
 148 332 155 302 157 180 c 256
 158 130 171 69 212 69 c 256
 254 69 266 125 266 183 c 256
 266 251 250 302 214 302 c 256
 181 302 157 260 157 181 c 257
 88 232 l 257
 88 294 124 402 220 402 c 256
 315 402 364 305 364 175 c 256
 364 50 307 -29 212 -29 c 256
EndSplineSet
Layer: 2
SplineSet
212 -29 m 256
 84 -29 42 117 42 347 c 256
 42 659 186 805 351 806 c 256
 496 807 588 729 589 459 c 258
 591 0 l 257
 483 0 l 257
 482 457 l 258
 482 661 411 698 347 698 c 256
 241 698 148 573 148 382 c 256
 148 332 155 302 157 180 c 256
 158 130 171 69 212 69 c 256
 254 69 266 125 266 183 c 256
 266 251 250 302 214 302 c 256
 181 302 157 260 157 181 c 257
 88 232 l 257
 88 294 124 402 220 402 c 256
 315 402 364 305 364 175 c 256
 364 50 307 -29 212 -29 c 256
EndSplineSet
EndChar

StartChar: tml_MatraEe
Encoding: 47 3015 47
GlifName: tml_M_atraE_e
Width: 512
VWidth: 0
GlyphClass: 2
Flags: W
LayerCount: 3
Fore
SplineSet
312 -19 m 256
 111 -19 42 175 42 378 c 256
 42 623 142 807 311 807 c 256
 409 807 470 728 470 607 c 256
 470 466 390 411 322 411 c 256
 242 411 187 485 187 571 c 256
 187 699 261 741 261 741 c 257
 317 709 l 257
 317 709 266 711 266 607 c 256
 266 544 296 511 318 511 c 256
 344 511 370 543 370 604 c 256
 370 643 362 708 319 708 c 256
 215 708 144 580 144 379 c 256
 144 216 187 69 316 69 c 256
 359 69 366 133 366 168 c 256
 366 238 344 271 316 271 c 256
 290 271 269 227 269 168 c 256
 269 141 278 70 315 70 c 257
 276 22 l 257
 276 22 193 78 193 180 c 256
 193 311 253 367 322 367 c 256
 391 367 470 309 470 168 c 256
 470 53 411 -19 312 -19 c 256
EndSplineSet
Layer: 2
SplineSet
312 -19 m 256
 111 -19 42 175 42 378 c 256
 42 623 142 807 311 807 c 256
 409 807 470 728 470 607 c 256
 470 466 390 411 322 411 c 256
 242 411 187 485 187 571 c 256
 187 699 261 741 261 741 c 257
 317 709 l 257
 317 709 266 711 266 607 c 256
 266 544 296 511 318 511 c 256
 344 511 370 543 370 604 c 256
 370 643 362 708 319 708 c 256
 215 708 144 580 144 379 c 256
 144 216 187 69 316 69 c 256
 359 69 366 133 366 168 c 256
 366 238 344 271 316 271 c 256
 290 271 269 227 269 168 c 256
 269 141 278 70 315 70 c 257
 276 22 l 257
 276 22 193 78 193 180 c 256
 193 311 253 367 322 367 c 256
 391 367 470 309 470 168 c 256
 470 53 411 -19 312 -19 c 256
EndSplineSet
EndChar

StartChar: tml_MatraI
Encoding: 48 3007 48
GlifName: tml_M_atraI_
Width: 269
VWidth: 0
GlyphClass: 2
Flags: W
LayerCount: 3
Fore
SplineSet
-236 550 m 256
 -161 503 l 256
 -136 608 -75 638 -18 638 c 256
 78 638 110 583 110 479 c 258
 111 0 l 257
 219 0 l 257
 217 479 l 258
 216 659 137 747 -14 746 c 256
 -96 745 -191 703 -236 550 c 256
EndSplineSet
Layer: 2
SplineSet
-236 550 m 256
 -161 503 l 256
 -136 608 -75 638 -18 638 c 256
 78 638 110 583 110 479 c 258
 111 0 l 257
 219 0 l 257
 217 479 l 258
 216 659 137 747 -14 746 c 256
 -96 745 -191 703 -236 550 c 256
EndSplineSet
EndChar

StartChar: tml_MatraI.alt1
Encoding: 49 -1 49
GlifName: tml_M_atraI_.alt1
Width: 165
VWidth: 0
GlyphClass: 2
Flags: W
AnchorPoint: "MatraI.alt1" -200 560 mark 0
LayerCount: 3
Fore
SplineSet
-230 492 m 257
 -200 560 l 257
 -217 560 -236 573 -236 597 c 256
 -236 626 -203 650 -143 650 c 256
 -57 650 16 592 16 471 c 258
 17 1 l 257
 125 1 l 257
 123 467 l 258
 122 676 4 758 -139 758 c 256
 -225 758 -330 711 -330 597 c 256
 -330 541 -279 492 -230 492 c 257
EndSplineSet
Layer: 2
SplineSet
-230 492 m 257
 -200 560 l 257
 -217 560 -236 573 -236 597 c 256
 -236 626 -203 650 -143 650 c 256
 -57 650 16 592 16 471 c 258
 17 1 l 257
 125 1 l 257
 123 467 l 258
 122 676 4 758 -139 758 c 256
 -225 758 -330 711 -330 597 c 256
 -330 541 -279 492 -230 492 c 257
EndSplineSet
EndChar

StartChar: tml_MatraI.alt2
Encoding: 50 -1 50
GlifName: tml_M_atraI_.alt2
Width: 182
VWidth: 0
GlyphClass: 2
Flags: HW
AnchorPoint: "MatraI.alt2" -102 560 mark 0
LayerCount: 3
Fore
SplineSet
-120 482 m 261
 -184 482 -250 525 -250 597 c 260
 -250 706 -158 758 -72 758 c 260
 71 758 139 656 140 487 c 262
 142 1 l 261
 34 1 l 261
 33 491 l 262
 33 582 10 650 -76 650 c 260
 -121 650 -148 624 -148 595 c 260
 -148 564 -124 560 -102 560 c 261
 -120 482 l 261
EndSplineSet
Layer: 2
SplineSet
-120 482 m 261
 -184 482 -250 525 -250 597 c 260
 -250 706 -158 758 -72 758 c 260
 71 758 139 656 140 487 c 262
 142 1 l 261
 34 1 l 261
 33 491 l 262
 33 582 10 650 -76 650 c 260
 -121 650 -148 624 -148 595 c 260
 -148 564 -124 560 -102 560 c 261
 -120 482 l 261
EndSplineSet
EndChar

StartChar: tml_MatraI.alt3
Encoding: 51 -1 51
GlifName: tml_M_atraI_.alt3
Width: 182
VWidth: 0
GlyphClass: 2
Flags: W
AnchorPoint: "MatraI.alt3" -147 530 mark 0
LayerCount: 3
Fore
SplineSet
-147 442 m 257
 -147 530 l 257
 -164 530 -193 542 -193 583 c 256
 -193 624 -149 650 -104 650 c 256
 -18 650 35 592 35 501 c 258
 35 1 l 257
 142 1 l 257
 142 497 l 258
 141 666 43 758 -100 758 c 256
 -195 758 -288 691 -288 582 c 256
 -288 490 -211 442 -147 442 c 257
EndSplineSet
Layer: 2
SplineSet
-147 442 m 257
 -147 530 l 257
 -164 530 -193 542 -193 583 c 256
 -193 624 -149 650 -104 650 c 256
 -18 650 35 592 35 501 c 258
 35 1 l 257
 142 1 l 257
 142 497 l 258
 141 666 43 758 -100 758 c 256
 -195 758 -288 691 -288 582 c 256
 -288 490 -211 442 -147 442 c 257
EndSplineSet
EndChar

StartChar: tml_MatraI.alt4
Encoding: 52 -1 52
GlifName: tml_M_atraI_.alt4
Width: 209
VWidth: 0
GlyphClass: 2
Flags: W
AnchorPoint: "MatraI.alt4" -113 560 mark 0
LayerCount: 3
Fore
SplineSet
-113 472 m 257
 -113 560 l 257
 -130 560 -159 566 -159 600 c 256
 -159 629 -124 650 -79 650 c 256
 7 650 60 592 60 501 c 258
 61 1 l 257
 169 1 l 257
 167 497 l 258
 166 666 68 758 -75 758 c 256
 -170 758 -258 694 -258 600 c 256
 -258 508 -177 472 -113 472 c 257
EndSplineSet
Layer: 2
SplineSet
-113 472 m 257
 -113 560 l 257
 -130 560 -159 566 -159 600 c 256
 -159 629 -124 650 -79 650 c 256
 7 650 60 592 60 501 c 258
 61 1 l 257
 169 1 l 257
 167 497 l 258
 166 666 68 758 -75 758 c 256
 -170 758 -258 694 -258 600 c 256
 -258 508 -177 472 -113 472 c 257
EndSplineSet
EndChar

StartChar: tml_MatraI.alt5
Encoding: 53 -1 53
GlifName: tml_M_atraI_.alt5
Width: 156
VWidth: 0
GlyphClass: 2
Flags: W
AnchorPoint: "MatraI.alt5" -166 573 mark 0
LayerCount: 3
Fore
SplineSet
-172 478 m 257
 -166 573 l 257
 -192 557 -217 570 -217 591 c 256
 -217 624 -180 650 -125 650 c 256
 -39 650 7 592 7 501 c 258
 8 1 l 257
 116 1 l 257
 114 497 l 258
 113 666 22 758 -121 758 c 256
 -226 758 -321 686 -321 592 c 256
 -321 503 -239 467 -172 478 c 257
EndSplineSet
Layer: 2
SplineSet
-172 478 m 257
 -166 573 l 257
 -192 557 -217 570 -217 591 c 256
 -217 624 -180 650 -125 650 c 256
 -39 650 7 592 7 501 c 258
 8 1 l 257
 116 1 l 257
 114 497 l 258
 113 666 22 758 -121 758 c 256
 -226 758 -321 686 -321 592 c 256
 -321 503 -239 467 -172 478 c 257
EndSplineSet
EndChar

StartChar: tml_MatraI.alt6
Encoding: 54 -1 54
GlifName: tml_M_atraI_.alt6
Width: 176
VWidth: 0
GlyphClass: 2
Flags: W
AnchorPoint: "MatraI.alt6" -156 554 mark 0
LayerCount: 3
Fore
SplineSet
-169 491 m 257
 -156 554 l 257
 -176 565 -190 567 -191 588 c 256
 -192 617 -161 649 -99 649 c 256
 -25 649 29 591 29 480 c 258
 29 0 l 257
 136 0 l 257
 136 500 l 258
 135 647 51 757 -95 757 c 256
 -187 757 -295 710 -295 594 c 256
 -295 520 -218 491 -169 491 c 257
EndSplineSet
Layer: 2
SplineSet
-169 491 m 257
 -156 554 l 257
 -176 565 -190 567 -191 588 c 256
 -192 617 -161 649 -99 649 c 256
 -25 649 29 591 29 480 c 258
 29 0 l 257
 136 0 l 257
 136 500 l 258
 135 647 51 757 -95 757 c 256
 -187 757 -295 710 -295 594 c 256
 -295 520 -218 491 -169 491 c 257
EndSplineSet
EndChar

StartChar: tml_MatraI.alt7
Encoding: 55 -1 55
GlifName: tml_M_atraI_.alt7
Width: 201
VWidth: 0
GlyphClass: 4
Flags: W
AnchorPoint: "MatraI.alt7" -119 554 mark 0
LayerCount: 3
Fore
SplineSet
-132 491 m 257
 -119 554 l 257
 -139 568 -154 570 -154 590 c 256
 -154 619 -124 649 -62 649 c 256
 12 649 54 591 54 480 c 258
 54 0 l 257
 161 0 l 257
 161 500 l 258
 161 643 88 757 -58 757 c 256
 -150 757 -258 710 -258 594 c 256
 -258 520 -181 491 -132 491 c 257
EndSplineSet
Layer: 2
SplineSet
-132 491 m 257
 -119 554 l 257
 -139 568 -154 570 -154 590 c 256
 -154 619 -124 649 -62 649 c 256
 12 649 54 591 54 480 c 258
 54 0 l 257
 161 0 l 257
 161 500 l 258
 161 643 88 757 -58 757 c 256
 -150 757 -258 710 -258 594 c 256
 -258 520 -181 491 -132 491 c 257
EndSplineSet
EndChar

StartChar: tml_MatraI.alt8
Encoding: 56 -1 56
GlifName: tml_M_atraI_.alt8
Width: 207
VWidth: 0
GlyphClass: 4
Flags: W
AnchorPoint: "MatraI.alt8" -243 510 mark 0
LayerCount: 3
Fore
SplineSet
-281 452 m 257
 -243 510 l 257
 -252 528 -269 543 -269 566 c 256
 -269 605 -237 649 -148 649 c 256
 -24 649 60 561 60 420 c 258
 60 0 l 257
 167 0 l 257
 167 445 l 258
 167 602 58 757 -148 757 c 256
 -310 757 -379 649 -379 573 c 256
 -379 509 -330 452 -281 452 c 257
EndSplineSet
Layer: 2
SplineSet
-281 452 m 257
 -243 510 l 257
 -252 528 -269 543 -269 566 c 256
 -269 605 -237 649 -148 649 c 256
 -24 649 60 561 60 420 c 258
 60 0 l 257
 167 0 l 257
 167 445 l 258
 167 602 58 757 -148 757 c 256
 -310 757 -379 649 -379 573 c 256
 -379 509 -330 452 -281 452 c 257
EndSplineSet
EndChar

StartChar: tml_MatraI.stylalt1
Encoding: 57 -1 57
GlifName: tml_M_atraI_.stylalt1
Width: 154
VWidth: 0
GlyphClass: 2
Flags: HW
AnchorPoint: "MatraI.stylalt1" -533 275 mark 0
LayerCount: 3
Fore
SplineSet
-600 192 m 257
 -533 275 l 257
 -581 314 -602 354 -602 441 c 256
 -602 593 -485 688 -321 690 c 256
 -144 692 -5 596 -5 337 c 257
 -5 -13 l 257
 104 -14 l 257
 104 328 l 257
 104 611 -34 800 -321 800 c 256
 -569 800 -710 630 -710 441 c 256
 -710 305 -645 226 -600 192 c 257
EndSplineSet
PickledDataWithLists: "(dp1
S'com.typemytype.robofont.guides'
p2
(lp3
(dp4
S'y'
I-274
sS'x'
I1215
sS'angle'
p5
I0
sS'isGlobal'
p6
I00
sas."
Layer: 2
SplineSet
-600 192 m 257
 -533 275 l 257
 -581 314 -602 354 -602 441 c 256
 -602 593 -485 688 -321 690 c 256
 -144 692 -5 596 -5 337 c 257
 -5 -13 l 257
 104 -14 l 257
 104 328 l 257
 104 611 -34 800 -321 800 c 256
 -569 800 -710 630 -710 441 c 256
 -710 305 -645 226 -600 192 c 257
EndSplineSet
EndChar

StartChar: tml_MatraIi
Encoding: 58 3008 58
GlifName: tml_M_atraI_i
Width: 0
VWidth: 0
GlyphClass: 2
Flags: W
AnchorPoint: "MatraIi" 0 560 mark 0
LayerCount: 3
Fore
SplineSet
0 467 m 256
 -67 467 -179 519 -179 666 c 256
 -179 833 -59 903 54 902 c 256
 156 901 204 830 204 738 c 256
 204 616 134 590 80 590 c 256
 12 590 -44 629 -45 728 c 256
 -45 797 6 855 43 881 c 257
 79 806 l 257
 53 806 37 768 37 736 c 256
 37 684 56 664 81 664 c 256
 107 664 120 693 120 738 c 256
 120 764 114 806 78 806 c 256
 -18 806 -75 763 -75 665 c 256
 -75 600 -44 561 0 560 c 256
 0 467 l 256
EndSplineSet
Layer: 2
SplineSet
0 467 m 256
 -67 467 -179 519 -179 666 c 256
 -179 833 -59 903 54 902 c 256
 156 901 204 830 204 738 c 256
 204 616 134 590 80 590 c 256
 12 590 -44 629 -45 728 c 256
 -45 797 6 855 43 881 c 257
 79 806 l 257
 53 806 37 768 37 736 c 256
 37 684 56 664 81 664 c 256
 107 664 120 693 120 738 c 256
 120 764 114 806 78 806 c 256
 -18 806 -75 763 -75 665 c 256
 -75 600 -44 561 0 560 c 256
 0 467 l 256
EndSplineSet
EndChar

StartChar: tml_MatraIi.alt1
Encoding: 59 -1 59
GlifName: tml_M_atraI_i.alt1
Width: 0
VWidth: 0
GlyphClass: 2
Flags: W
AnchorPoint: "MatraIi.alt1" 0 552 mark 0
LayerCount: 3
Fore
SplineSet
-179 666 m 256
 -179 833 -59 903 54 902 c 256
 156 901 204 830 204 738 c 256
 204 616 134 590 80 590 c 256
 12 590 -44 629 -45 728 c 256
 -45 797 6 855 43 881 c 257
 79 806 l 257
 53 806 37 768 37 736 c 256
 37 684 56 664 81 664 c 256
 107 664 120 693 120 738 c 256
 120 764 114 806 78 806 c 256
 -18 806 -75 763 -75 665 c 256
 -75 600 -36 572 0 552 c 257
 0 470 l 257
 -67 470 -179 519 -179 666 c 256
  PathStart: -2
EndSplineSet
Layer: 2
SplineSet
-179 666 m 256
 -179 833 -59 903 54 902 c 256
 156 901 204 830 204 738 c 256
 204 616 134 590 80 590 c 256
 12 590 -44 629 -45 728 c 256
 -45 797 6 855 43 881 c 257
 79 806 l 257
 53 806 37 768 37 736 c 256
 37 684 56 664 81 664 c 256
 107 664 120 693 120 738 c 256
 120 764 114 806 78 806 c 256
 -18 806 -75 763 -75 665 c 256
 -75 600 -36 572 0 552 c 257
 0 470 l 257
 -67 470 -179 519 -179 666 c 256
EndSplineSet
EndChar

StartChar: tml_MatraIi.alt2
Encoding: 60 -1 60
GlifName: tml_M_atraI_i.alt2
Width: 0
VWidth: 0
GlyphClass: 2
Flags: W
AnchorPoint: "MatraIi.alt2" 0 584 mark 0
LayerCount: 3
Fore
SplineSet
-224 666 m 256
 -224 833 -94 903 19 902 c 256
 121 901 169 830 169 738 c 256
 169 616 99 590 45 590 c 256
 -23 590 -79 629 -80 728 c 256
 -80 797 -29 855 8 881 c 257
 44 806 l 257
 18 806 2 768 2 736 c 256
 2 684 21 664 46 664 c 256
 72 664 85 693 85 738 c 256
 85 764 79 806 43 806 c 256
 -53 806 -120 764 -120 666 c 256
 -120 589 -61 546 0 584 c 257
 -5 482 l 257
 -82 445 -224 509 -224 666 c 256
  PathStart: -2
EndSplineSet
Layer: 2
SplineSet
-224 666 m 256
 -224 833 -94 903 19 902 c 256
 121 901 169 830 169 738 c 256
 169 616 99 590 45 590 c 256
 -23 590 -79 629 -80 728 c 256
 -80 797 -29 855 8 881 c 257
 44 806 l 257
 18 806 2 768 2 736 c 256
 2 684 21 664 46 664 c 256
 72 664 85 693 85 738 c 256
 85 764 79 806 43 806 c 256
 -53 806 -120 764 -120 666 c 256
 -120 589 -61 546 0 584 c 257
 -5 482 l 257
 -82 445 -224 509 -224 666 c 256
EndSplineSet
EndChar

StartChar: tml_MatraIi.alt3
Encoding: 61 -1 61
GlifName: tml_M_atraI_i.alt3
Width: 0
VWidth: 0
GlyphClass: 4
Flags: W
AnchorPoint: "MatraIi.alt3" 0 542 mark 0
LayerCount: 3
Fore
SplineSet
-196 666 m 256
 -196 833 -76 903 37 902 c 256
 139 901 187 830 187 738 c 256
 187 616 117 590 63 590 c 256
 -5 590 -61 629 -62 728 c 256
 -62 797 -11 855 26 881 c 257
 62 806 l 257
 36 806 20 768 20 736 c 256
 20 684 39 664 64 664 c 256
 90 664 103 693 103 738 c 256
 103 764 97 806 61 806 c 256
 -35 806 -92 763 -92 665 c 256
 -92 581 -33 557 0 542 c 257
 -14 470 l 257
 -81 470 -196 519 -196 666 c 256
  PathStart: -2
EndSplineSet
Layer: 2
SplineSet
-196 666 m 256
 -196 833 -76 903 37 902 c 256
 139 901 187 830 187 738 c 256
 187 616 117 590 63 590 c 256
 -5 590 -61 629 -62 728 c 256
 -62 797 -11 855 26 881 c 257
 62 806 l 257
 36 806 20 768 20 736 c 256
 20 684 39 664 64 664 c 256
 90 664 103 693 103 738 c 256
 103 764 97 806 61 806 c 256
 -35 806 -92 763 -92 665 c 256
 -92 581 -33 557 0 542 c 257
 -14 470 l 257
 -81 470 -196 519 -196 666 c 256
EndSplineSet
EndChar

StartChar: tml_MatraIi.stylalt1
Encoding: 62 -1 62
GlifName: tml_M_atraI_i.stylalt1
Width: 15
VWidth: 0
GlyphClass: 2
Flags: W
AnchorPoint: "MatraIi.stylalt1" -512 280 mark 0
LayerCount: 3
Fore
SplineSet
-579 197 m 257
 -624 231 -710 314 -710 511 c 256
 -710 740 -565 954 -325 954 c 256
 -145 954 -27 862 -27 734 c 256
 -27 654 -83 601 -159 601 c 256
 -234 601 -285 653 -285 724 c 256
 -285 793 -236 843 -169 843 c 256
 -104 843 -60 796 -60 731 c 257
 -114 729 l 257
 -115 754 -133 772 -158 772 c 256
 -183 772 -201 754 -201 727 c 256
 -201 700 -183 680 -158 680 c 256
 -132 680 -114 701 -114 729 c 256
 -114 768 -131 801 -162 824 c 256
 -193 847 -238 860 -295 859 c 256
 -467 857 -605 724 -605 511 c 256
 -605 365 -560 319 -512 280 c 257
 -579 197 l 257
EndSplineSet
Layer: 2
SplineSet
-579 197 m 257
 -624 231 -710 314 -710 511 c 256
 -710 740 -565 954 -325 954 c 256
 -145 954 -27 862 -27 734 c 256
 -27 654 -83 601 -159 601 c 256
 -234 601 -285 653 -285 724 c 256
 -285 793 -236 843 -169 843 c 256
 -104 843 -60 796 -60 731 c 257
 -114 729 l 257
 -115 754 -133 772 -158 772 c 256
 -183 772 -201 754 -201 727 c 256
 -201 700 -183 680 -158 680 c 256
 -132 680 -114 701 -114 729 c 256
 -114 768 -131 801 -162 824 c 256
 -193 847 -238 860 -295 859 c 256
 -467 857 -605 724 -605 511 c 256
 -605 365 -560 319 -512 280 c 257
 -579 197 l 257
EndSplineSet
EndChar

StartChar: tml_MatraU
Encoding: 65 3009 65
GlifName: tml_M_atraU_
Width: 388
VWidth: 0
GlyphClass: 2
Flags: W
AnchorPoint: "MatraU" -170 560 mark 0
LayerCount: 3
Fore
SplineSet
201 211 m 256
 102 211 53 282 53 373 c 256
 53 472 112 522 202 522 c 257
 197 462 l 257
 165 462 152 419 152 383 c 256
 152 350 163 307 196 307 c 256
 228 307 238 348 238 385 c 256
 238 448 209 462 195 462 c 258
 -171 462 l 257
 -171 560 l 257
 157 560 l 258
 238 560 348 539 348 385 c 256
 348 272 293 211 201 211 c 256
EndSplineSet
Layer: 2
SplineSet
201 211 m 256
 102 211 53 282 53 373 c 256
 53 472 112 522 202 522 c 257
 197 462 l 257
 165 462 152 419 152 383 c 256
 152 350 163 307 196 307 c 256
 228 307 238 348 238 385 c 256
 238 448 209 462 195 462 c 258
 -171 462 l 257
 -171 560 l 257
 157 560 l 258
 238 560 348 539 348 385 c 256
 348 272 293 211 201 211 c 256
EndSplineSet
EndChar

StartChar: tml_MatraU.alt1
Encoding: 66 -1 66
GlifName: tml_M_atraU_.alt1
Width: 0
VWidth: 0
GlyphClass: 2
Flags: W
AnchorPoint: "MatraU.alt1" -169 33 mark 0
LayerCount: 3
Fore
SplineSet
-169 -153 m 257
 -169 33 l 257
 -60 33 l 257
 -60 -153 l 257
 -169 -153 l 257
EndSplineSet
Layer: 2
SplineSet
-169 -153 m 257
 -169 33 l 257
 -60 33 l 257
 -60 -153 l 257
 -169 -153 l 257
EndSplineSet
EndChar

StartChar: tml_MatraUu
Encoding: 67 3010 67
GlifName: tml_M_atraU_u
Width: 549
VWidth: 0
GlyphClass: 2
Flags: W
AnchorPoint: "MatraUu" -181 560 mark 0
LayerCount: 3
Fore
SplineSet
445 196 m 257
 363 230 l 257
 363 230 414 315 414 402 c 256
 414 491 360 562 284 562 c 256
 197 562 143 470 143 392 c 256
 143 351 164 316 200 316 c 256
 226 316 241 344 241 385 c 256
 241 433 218 462 162 462 c 258
 -181 462 l 257
 -181 560 l 257
 134 560 l 257
 175 550 l 257
 222 550 348 526 348 385 c 256
 348 276 291 218 199 218 c 256
 94 218 43 293 43 397 c 256
 43 538 138 645 281 645 c 256
 439 645 504 523 504 414 c 256
 504 296 445 196 445 196 c 257
EndSplineSet
Layer: 2
SplineSet
445 196 m 257
 363 230 l 257
 363 230 414 315 414 402 c 256
 414 491 360 562 284 562 c 256
 197 562 143 470 143 392 c 256
 143 351 164 316 200 316 c 256
 226 316 241 344 241 385 c 256
 241 433 218 462 162 462 c 258
 -181 462 l 257
 -181 560 l 257
 134 560 l 257
 175 550 l 257
 222 550 348 526 348 385 c 256
 348 276 291 218 199 218 c 256
 94 218 43 293 43 397 c 256
 43 538 138 645 281 645 c 256
 439 645 504 523 504 414 c 256
 504 296 445 196 445 196 c 257
EndSplineSet
EndChar

StartChar: tml_Month
Encoding: 68 3060 68
GlifName: tml_M_onth
Width: 1021
VWidth: 0
GlyphClass: 2
Flags: W
LayerCount: 3
Fore
SplineSet
590 800 m 256
 717 800 783 724 783 640 c 256
 783 567 730 532 672 532 c 256
 613 532 561 567 561 640 c 256
 561 730 639 800 753 800 c 256
 853 800 944 740 925 644 c 257
 1051 644 l 257
 1051 557 l 257
 833 557 l 257
 833 616 l 257
 865 645 840 719 767 719 c 256
 696 719 639 699 639 642 c 256
 639 616 654 605 672 605 c 256
 689 605 705 615 705 642 c 256
 705 699 633 721 586 721 c 256
 523 721 440 681 480 550 c 257
 398 532 l 257
 346 686 436 800 590 800 c 256
  PathStart: -2
EndSplineSet
Refer: 41 2990 N 1 0 0 1 30 0 2
Layer: 2
SplineSet
590 800 m 256
 717 800 783 724 783 640 c 256
 783 567 730 532 672 532 c 256
 613 532 561 567 561 640 c 256
 561 730 639 800 753 800 c 256
 853 800 944 740 925 644 c 257
 1051 644 l 257
 1051 557 l 257
 833 557 l 257
 833 616 l 257
 865 645 840 719 767 719 c 256
 696 719 639 699 639 642 c 256
 639 616 654 605 672 605 c 256
 689 605 705 615 705 642 c 256
 705 699 633 721 586 721 c 256
 523 721 440 681 480 550 c 257
 398 532 l 257
 346 686 436 800 590 800 c 256
EndSplineSet
Refer: 41 2990 N 1 0 0 1 30 0 2
EndChar

StartChar: tml_NU
Encoding: 69 -1 69
GlifName: tml_N_U_
Width: 887
VWidth: 0
GlyphClass: 2
Flags: HW
LayerCount: 3
Fore
SplineSet
90 1 m 257
 90 560 l 257
 539 560 l 257
 539 462 l 257
 436 462 l 257
 436 1 l 257
 328 1 l 257
 328 462 l 257
 197 462 l 257
 197 1 l 257
 90 1 l 257
326 -349 m 256
 112 -349 42 -252 42 -180 c 256
 42 -125 83 -64 181 -64 c 258
 720 -62 l 257
 720 560 l 257
 827 560 l 257
 827 -159 l 257
 195 -158 l 258
 164 -158 149 -165 149 -190 c 256
 149 -222 206 -252 326 -252 c 256
 504 -252 561 -108 561 97 c 256
 561 174 537 266 485 266 c 256
 442 266 436 218 436 179 c 257
 367 220 l 257
 369 265 407 359 496 358 c 256
 615 357 664 227 664 92 c 256
 664 -175 567 -349 326 -349 c 256
EndSplineSet
EndChar

StartChar: tml_NUu
Encoding: 70 -1 70
GlifName: tml_N_U_u
Width: 1162
VWidth: 0
GlyphClass: 2
Flags: HW
LayerCount: 3
Fore
SplineSet
1142 560 m 257
 1142 463 l 257
 1042 463 l 257
 1042 -13 l 257
 935 -13 l 257
 935 463 l 257
 820 463 l 257
 820 560 l 257
 1142 560 l 257
EndSplineSet
Refer: 69 -1 N 1 0 0 1 0 0 2
Layer: 2
SplineSet
1381 573 m 257
 1381 476 l 257
 1281 476 l 257
 1281 -13 l 257
 1174 -13 l 257
 1174 476 l 257
 1059 476 l 257
 1059 573 l 257
 1381 573 l 257
EndSplineSet
Refer: 69 -1 N 1 0 0 1 -5 0 2
EndChar

StartChar: tml_Na
Encoding: 71 2984 71
GlifName: tml_N_a
Width: 662
VWidth: 0
GlyphClass: 2
Flags: W
AnchorPoint: "MatraIi" 457 560 basechar 0
AnchorPoint: "MatraI.alt1" 472 560 basechar 0
AnchorPoint: "virama" 358 0 basechar 0
LayerCount: 3
Fore
SplineSet
63 1 m 257
 63 560 l 257
 512 560 l 257
 512 462 l 257
 409 462 l 257
 409 1 l 257
 301 1 l 257
 301 462 l 257
 170 462 l 257
 170 1 l 257
 63 1 l 257
253 -61 m 258
 357 -61 l 258
 470 -60 534 -1 529 123 c 256
 529 200 510 266 458 266 c 256
 415 266 409 218 409 179 c 257
 340 220 l 257
 342 265 380 359 469 358 c 256
 588 357 632 253 632 118 c 256
 632 -46 551 -155 363 -157 c 258
 259 -158 l 258
 161 -159 171 -197 170 -236 c 257
 60 -236 l 257
 61 -129 103 -61 253 -61 c 258
  PathStart: -2
EndSplineSet
PickledDataWithLists: "(dp1
S'com.typemytype.robofont.guides'
p2
(lp3
(dp4
S'y'
I1
sS'x'
I150
sS'angle'
p5
I90
sS'isGlobal'
p6
I00
sas."
Layer: 2
SplineSet
63 1 m 257
 63 560 l 257
 512 560 l 257
 512 462 l 257
 409 462 l 257
 409 1 l 257
 301 1 l 257
 301 462 l 257
 170 462 l 257
 170 1 l 257
 63 1 l 257
253 -61 m 258
 357 -61 l 258
 470 -60 534 -1 529 123 c 256
 529 200 510 266 458 266 c 256
 415 266 409 218 409 179 c 257
 340 220 l 257
 342 265 380 359 469 358 c 256
 588 357 632 253 632 118 c 256
 632 -46 551 -155 363 -157 c 258
 259 -158 l 258
 161 -159 171 -197 170 -236 c 257
 60 -236 l 257
 61 -129 103 -61 253 -61 c 258
EndSplineSet
EndChar

StartChar: tml_NgUu
Encoding: 72 -1 72
GlifName: tml_N_gU_u
Width: 921
VWidth: 0
GlyphClass: 2
Flags: W
LayerCount: 3
Fore
SplineSet
651 -153 m 257
 651 32 l 257
 760 33 l 257
 760 -153 l 257
 651 -153 l 257
319 -176 m 256
 319 -212 409 -251 555 -252 c 256
 692 -253 833 -198 833 -95 c 256
 833 -44 806 -22 784 -22 c 256
 771 -22 760 -30 760 -47 c 257
 704 5 l 257
 732 43 764 59 795 58 c 256
 862 58 931 9 931 -98 c 256
 931 -246 765 -350 555 -350 c 256
 358 -350 211 -271 211 -176 c 256
 211 -112 260 -59 361 -59 c 257
 528 -59 l 257
 528 -151 l 257
 361 -151 l 257
 335 -151 319 -158 319 -176 c 256
  PathStart: -2
EndSplineSet
Refer: 73 2969 N 1 0 0 1 20 0 2
Layer: 2
SplineSet
651 -153 m 257
 651 32 l 257
 760 33 l 257
 760 -153 l 257
 651 -153 l 257
319 -176 m 256
 319 -212 409 -251 555 -252 c 256
 692 -253 833 -198 833 -95 c 256
 833 -44 806 -22 784 -22 c 256
 771 -22 760 -30 760 -47 c 257
 704 5 l 257
 732 43 764 59 795 58 c 256
 862 58 931 9 931 -98 c 256
 931 -246 765 -350 555 -350 c 256
 358 -350 211 -271 211 -176 c 256
 211 -112 260 -59 361 -59 c 257
 528 -59 l 257
 528 -151 l 257
 361 -151 l 257
 335 -151 319 -158 319 -176 c 256
EndSplineSet
Refer: 73 2969 N 1 0 0 1 20 0 2
EndChar

StartChar: tml_Nga
Encoding: 73 2969 73
GlifName: tml_N_ga
Width: 810
VWidth: 0
GlyphClass: 2
Flags: W
AnchorPoint: "MatraIi" 693 560 basechar 0
AnchorPoint: "virama" 380 0 basechar 0
AnchorPoint: "MatraU.alt1" 641 33 basechar 0
AnchorPoint: "MatraI.alt4" 669 560 basechar 0
LayerCount: 3
Fore
SplineSet
60 0 m 257
 60 560 l 257
 470 560 l 257
 470 462 l 257
 368 462 l 257
 368 164 l 257
 260 164 l 257
 260 462 l 257
 167 462 l 257
 167 0 l 257
 60 0 l 257
258 98 m 257
 727 97 l 257
 727 0 l 257
 258 0 l 257
 258 98 l 257
328 98 m 257
 445 98 473 187 473 240 c 256
 473 283 454 317 417 317 c 256
 378 317 368 279 368 254 c 257
 319 285 l 257
 319 358 370 408 443 408 c 256
 521 408 578 352 578 257 c 256
 578 136 484 22 337 22 c 257
 328 98 l 257
643 560 m 257
 750 560 l 257
 750 0 l 257
 643 0 l 257
 643 560 l 257
EndSplineSet
Layer: 2
SplineSet
60 0 m 257
 60 560 l 257
 470 560 l 257
 470 462 l 257
 368 462 l 257
 368 164 l 257
 260 164 l 257
 260 462 l 257
 167 462 l 257
 167 0 l 257
 60 0 l 257
258 98 m 257
 727 97 l 257
 727 0 l 257
 258 0 l 257
 258 98 l 257
328 98 m 257
 445 98 473 187 473 240 c 256
 473 283 454 317 417 317 c 256
 378 317 368 279 368 254 c 257
 319 285 l 257
 319 358 370 408 443 408 c 256
 521 408 578 352 578 257 c 256
 578 136 484 22 337 22 c 257
 328 98 l 257
643 560 m 257
 750 560 l 257
 750 0 l 257
 643 0 l 257
 643 560 l 257
EndSplineSet
EndChar

StartChar: tml_Nine
Encoding: 74 3055 74
GlifName: tml_N_ine
Width: 969
VWidth: 0
GlyphClass: 2
Flags: W
LayerCount: 3
Fore
SplineSet
535 341 m 257
 712 351 752 223 752 144 c 256
 752 50 697 -1 622 -1 c 256
 551 -1 493 50 493 139 c 256
 493 302 616 360 720 360 c 256
 843 360 927 280 927 165 c 256
 927 80 885 15 849 -14 c 257
 784 46 l 257
 817 81 838 120 838 171 c 256
 838 233 780 279 720 279 c 256
 634 279 579 223 579 147 c 256
 579 121 595 77 624 77 c 256
 653 77 665 112 665 138 c 256
 665 214 620 242 570 244 c 257
 442 244 l 257
 429 341 l 257
 535 341 l 257
EndSplineSet
Refer: 10 2970 N 1 0 0 1 12 0 2
Layer: 2
SplineSet
535 341 m 257
 712 351 752 223 752 144 c 256
 752 50 697 -1 622 -1 c 256
 551 -1 493 50 493 139 c 256
 493 302 616 360 720 360 c 256
 843 360 927 280 927 165 c 256
 927 80 885 15 849 -14 c 257
 784 46 l 257
 817 81 838 120 838 171 c 256
 838 233 780 279 720 279 c 256
 634 279 579 223 579 147 c 256
 579 121 595 77 624 77 c 256
 653 77 665 112 665 138 c 256
 665 214 620 242 570 244 c 257
 442 244 l 257
 429 341 l 257
 535 341 l 257
EndSplineSet
Refer: 10 2970 N 1 0 0 1 12 0 2
EndChar

StartChar: tml_NnAa.alt
Encoding: 75 -1 75
GlifName: tml_N_nA_a.alt
Width: 1479
VWidth: 0
GlyphClass: 2
Flags: HW
LayerCount: 3
Fore
SplineSet
1009 208 m 256
 1009 133 1026 65 1062 65 c 256
 1100 65 1115 137 1115 209 c 256
 1115 424 980 474 884 474 c 256
 719 474 670 327 670 199 c 256
 670 123 687 65 723 65 c 256
 762 65 775 124 775 194 c 256
 775 397 650 476 527 474 c 256
 453 473 327 418 327 233 c 256
 327 165 344 64 394 64 c 256
 437 64 447 139 447 179 c 256
 447 238 425 281 390 281 c 256
 353 281 329 234 333 167 c 257
 277 196 l 257
 277 269 319 362 405 362 c 256
 477 362 543 298 543 171 c 256
 543 50 483 -24 396 -24 c 256
 287 -24 225 91 225 236 c 256
 225 483 407 570 536 570 c 256
 644 570 883 510 883 200 c 256
 883 52 815 -23 723 -23 c 256
 629 -23 565 57 565 206 c 256
 565 401 666 572 884 572 c 256
 1046 572 1221 475 1221 207 c 256
 1221 57 1167 -23 1064 -23 c 256
 963 -23 904 55 904 215 c 256
 904 410 1010 573 1195 573 c 257
 1357 574 1427 472 1427 358 c 256
 1427 254 1378 225 1378 225 c 257
 1378 225 1439 189 1439 79 c 256
 1439 -127 1230 -271 790 -271 c 256
 328 -271 42 -143 42 242 c 256
 42 388 90 510 138 572 c 257
 227 527 l 257
 218 514 146 416 146 251 c 256
 146 -85 389 -168 786 -168 c 256
 1092 -168 1335 -70 1335 79 c 256
 1335 176 1266 171 1266 171 c 257
 1266 269 l 257
 1266 269 1329 267 1329 359 c 256
 1329 426 1277 475 1196 475 c 257
 1077 475 1009 359 1009 208 c 256
EndSplineSet
Layer: 2
SplineSet
620 -271 m 256
 270 -271 42 -113 42 242 c 256
 42 388 90 510 138 572 c 257
 227 527 l 257
 218 514 146 416 146 251 c 256
 146 -61 341 -168 616 -168 c 256
 832 -168 985 -50 985 79 c 256
 985 176 916 171 916 171 c 257
 916 269 l 257
 916 269 979 267 979 359 c 256
 979 426 927 475 846 475 c 256
 725 475 679 368 679 214 c 256
 679 142 694 75 723 75 c 256
 751 75 763 134 763 213 c 256
 763 414 645 474 552 474 c 257
 552 572 l 257
 707 572 871 470 871 214 c 256
 871 53 828 -23 723 -23 c 256
 621 -23 571 55 571 214 c 256
 571 425 653 572 845 573 c 256
 1007 574 1077 472 1077 358 c 256
 1077 254 1028 225 1028 225 c 257
 1028 225 1089 189 1089 79 c 256
 1089 -127 886 -271 620 -271 c 256
389 -23 m 256
 284 -23 222 91 222 246 c 256
 222 450 337 571 532 572 c 257
 532 474 l 257
 383 474 324 378 324 256 c 256
 324 159 341 75 389 75 c 256
 435 75 444 139 444 178 c 256
 444 239 416 272 390 272 c 256
 350 272 322 222 334 148 c 256
 247 217 l 256
 269 267 299 373 396 373 c 256
 465 373 546 316 546 175 c 256
 546 54 487 -23 389 -23 c 256
532 474 m 257
 532 572 l 257
 554 572 l 257
 554 474 l 257
 532 474 l 257
EndSplineSet
EndChar

StartChar: tml_NnU
Encoding: 76 -1 76
GlifName: tml_N_nU_
Width: 1498
VWidth: 0
GlyphClass: 2
Flags: HW
LayerCount: 3
Fore
SplineSet
826 208 m 260
 826 133 843 65 879 65 c 260
 917 65 932 137 932 209 c 260
 932 424 797 474 701 474 c 260
 536 474 487 327 487 199 c 260
 487 123 504 65 540 65 c 260
 579 65 592 124 592 194 c 260
 592 397 467 476 344 474 c 260
 270 473 144 418 144 233 c 260
 144 165 161 64 211 64 c 260
 254 64 264 139 264 179 c 260
 264 238 242 281 207 281 c 260
 170 281 146 234 150 167 c 261
 94 196 l 261
 94 269 136 362 222 362 c 260
 294 362 360 298 360 171 c 260
 360 50 300 -24 213 -24 c 260
 104 -24 42 91 42 236 c 260
 42 483 224 570 353 570 c 260
 461 570 700 510 700 200 c 260
 700 52 632 -23 540 -23 c 260
 446 -23 382 57 382 206 c 260
 382 401 483 572 701 572 c 260
 863 572 1038 475 1038 207 c 260
 1038 57 984 -23 881 -23 c 260
 780 -23 721 55 721 215 c 260
 721 410 827 573 1012 573 c 260
 1197 573 1269 381 1269 215 c 260
 1269 -90 1109 -349 606 -349 c 260
 168 -349 80 -268 80 -185 c 260
 80 -106 128 -61 223 -61 c 262
 1331 -61 l 261
 1331 559 l 261
 1438 559 l 261
 1438 -158 l 261
 220 -158 l 262
 199 -158 187 -169 187 -184 c 260
 187 -208 261 -250 601 -250 c 260
 1044 -250 1147 0 1147 207 c 260
 1147 371 1109 474 1013 474 c 260
 895 474 826 359 826 208 c 260
EndSplineSet
Layer: 2
SplineSet
90 1 m 257
 90 560 l 257
 539 560 l 257
 539 462 l 257
 436 462 l 257
 436 1 l 257
 328 1 l 257
 328 462 l 257
 197 462 l 257
 197 1 l 257
 90 1 l 257
326 -349 m 256
 112 -349 42 -252 42 -180 c 256
 42 -125 83 -64 181 -64 c 258
 720 -62 l 257
 720 560 l 257
 827 560 l 257
 827 -159 l 257
 195 -158 l 258
 164 -158 149 -165 149 -190 c 256
 149 -222 206 -252 326 -252 c 256
 504 -252 561 -108 561 97 c 256
 561 174 537 266 485 266 c 256
 442 266 436 218 436 179 c 257
 367 220 l 257
 369 265 407 359 496 358 c 256
 615 357 664 227 664 92 c 256
 664 -175 567 -349 326 -349 c 256
EndSplineSet
EndChar

StartChar: tml_NnUu
Encoding: 77 -1 77
GlifName: tml_N_nU_u
Width: 1782
VWidth: 0
GlyphClass: 2
Flags: HW
LayerCount: 3
Fore
SplineSet
1762 558 m 257
 1762 461 l 257
 1662 461 l 257
 1662 -13 l 257
 1555 -13 l 257
 1555 461 l 257
 1440 461 l 257
 1440 558 l 257
 1762 558 l 257
EndSplineSet
Refer: 76 -1 S 1 0 0 1 20 0 2
Layer: 2
SplineSet
1132 560 m 257
 1132 463 l 257
 1032 463 l 257
 1032 -13 l 257
 925 -13 l 257
 925 463 l 257
 810 463 l 257
 810 560 l 257
 1132 560 l 257
EndSplineSet
Refer: 76 -1 N 1 0 0 1 20 0 2
EndChar

StartChar: tml_Nna
Encoding: 78 2979 78
GlifName: tml_N_na
Width: 1331
VWidth: 0
GlyphClass: 2
Flags: W
AnchorPoint: "MatraIi" 1259 561 basechar 0
AnchorPoint: "MatraAi.alt" 42 244 basechar 0
AnchorPoint: "virama" 712 0 basechar 0
AnchorPoint: "MatraI.alt2" 1214 561 basechar 0
LayerCount: 3
Fore
SplineSet
213 -24 m 256
 104 -24 42 91 42 236 c 256
 42 483 224 570 353 570 c 256
 461 570 700 510 700 200 c 256
 700 52 632 -23 540 -23 c 256
 446 -23 382 57 382 206 c 256
 382 401 483 572 701 572 c 256
 863 572 1038 475 1038 207 c 256
 1038 57 984 -23 881 -23 c 256
 780 -23 721 55 721 215 c 256
 721 410 827 561 1012 561 c 258
 1289 561 l 257
 1289 461 l 257
 1186 461 l 257
 1186 1 l 257
 1078 1 l 257
 1078 461 l 257
 1013 461 l 258
 894 461 826 359 826 208 c 256
 826 133 843 65 879 65 c 256
 917 65 932 137 932 209 c 256
 932 424 797 474 701 474 c 256
 536 474 487 327 487 199 c 256
 487 123 504 65 540 65 c 256
 579 65 592 124 592 194 c 256
 592 397 467 476 344 474 c 256
 270 473 144 418 144 233 c 256
 144 165 161 64 211 64 c 256
 254 64 264 139 264 179 c 256
 264 238 242 281 207 281 c 256
 170 281 146 234 150 167 c 257
 94 196 l 257
 94 269 136 362 222 362 c 256
 294 362 360 298 360 171 c 256
 360 50 300 -24 213 -24 c 256
EndSplineSet
Layer: 2
SplineSet
213 -24 m 256
 104 -24 42 91 42 236 c 256
 42 483 224 570 353 570 c 256
 461 570 700 510 700 200 c 256
 700 52 632 -23 540 -23 c 256
 446 -23 382 57 382 206 c 256
 382 401 483 572 701 572 c 256
 863 572 1038 475 1038 207 c 256
 1038 57 984 -23 881 -23 c 256
 780 -23 721 55 721 215 c 256
 721 410 827 561 1012 561 c 258
 1289 561 l 257
 1289 461 l 257
 1186 461 l 257
 1186 1 l 257
 1078 1 l 257
 1078 461 l 257
 1013 461 l 258
 894 461 826 359 826 208 c 256
 826 133 843 65 879 65 c 256
 917 65 932 137 932 209 c 256
 932 424 797 474 701 474 c 256
 536 474 487 327 487 199 c 256
 487 123 504 65 540 65 c 256
 579 65 592 124 592 194 c 256
 592 397 467 476 344 474 c 256
 270 473 144 418 144 233 c 256
 144 165 161 64 211 64 c 256
 254 64 264 139 264 179 c 256
 264 238 242 281 207 281 c 256
 170 281 146 234 150 167 c 257
 94 196 l 257
 94 269 136 362 222 362 c 256
 294 362 360 298 360 171 c 256
 360 50 300 -24 213 -24 c 256
EndSplineSet
EndChar

StartChar: tml_NnnAa.alt
Encoding: 79 -1 79
GlifName: tml_N_nnA_a.alt
Width: 1131
VWidth: 0
GlyphClass: 2
Flags: HW
LayerCount: 3
Fore
SplineSet
620 -271 m 260
 270 -271 42 -113 42 242 c 260
 42 388 90 510 138 572 c 261
 227 527 l 261
 218 514 146 416 146 251 c 260
 146 -61 341 -168 616 -168 c 260
 832 -168 985 -50 985 79 c 260
 985 176 916 171 916 171 c 261
 916 269 l 261
 916 269 979 267 979 359 c 260
 979 426 927 475 846 475 c 260
 725 475 679 368 679 214 c 260
 679 142 694 75 723 75 c 260
 751 75 763 134 763 213 c 260
 763 414 645 474 552 474 c 261
 552 572 l 261
 707 572 871 470 871 214 c 260
 871 53 828 -23 723 -23 c 260
 621 -23 571 55 571 214 c 260
 571 425 653 572 845 573 c 260
 1007 574 1077 472 1077 358 c 260
 1077 254 1028 225 1028 225 c 261
 1028 225 1089 189 1089 79 c 260
 1089 -127 886 -271 620 -271 c 260
389 -23 m 260
 284 -23 222 91 222 246 c 260
 222 450 337 571 532 572 c 261
 532 474 l 261
 383 474 324 378 324 256 c 260
 324 159 341 75 389 75 c 260
 435 75 444 139 444 178 c 260
 444 239 416 272 390 272 c 260
 350 272 322 222 334 148 c 260
 247 217 l 260
 269 267 299 373 396 373 c 260
 465 373 546 316 546 175 c 260
 546 54 487 -23 389 -23 c 260
532 474 m 261
 532 572 l 261
 554 572 l 261
 554 474 l 261
 532 474 l 261
EndSplineSet
EndChar

StartChar: tml_NnnU
Encoding: 80 -1 80
GlifName: tml_N_nnU_
Width: 1136
VWidth: 0
GlyphClass: 2
Flags: HW
LayerCount: 3
Fore
SplineSet
406 -349 m 256
 155 -349 55 -270 55 -185 c 256
 55 -114 109 -61 204 -61 c 258
 969 -61 l 257
 969 573 l 257
 1076 573 l 257
 1076 -158 l 257
 197 -158 l 258
 176 -158 162 -165 162 -183 c 256
 162 -225 258 -250 406 -250 c 256
 701 -250 800 -26 800 207 c 256
 800 361 763 475 666 475 c 256
 545 475 499 368 499 214 c 256
 499 142 514 75 543 75 c 256
 571 75 583 134 583 213 c 256
 583 414 465 474 362 474 c 256
 203 474 144 378 144 256 c 256
 144 159 161 75 209 75 c 256
 255 75 264 139 264 178 c 256
 264 239 236 272 210 272 c 256
 170 272 142 222 154 148 c 257
 67 217 l 257
 89 267 119 373 216 373 c 256
 285 373 366 316 366 175 c 256
 366 54 307 -23 209 -23 c 256
 104 -23 42 91 42 246 c 256
 42 450 157 572 362 573 c 256
 527 573 691 470 691 214 c 256
 691 53 648 -23 543 -23 c 256
 441 -23 391 55 391 214 c 256
 391 425 473 572 665 573 c 256
 850 573 906 381 907 215 c 256
 908 -102 763 -349 406 -349 c 256
EndSplineSet
EndChar

StartChar: tml_NnnUu
Encoding: 81 -1 81
GlifName: tml_N_nnU_u
Width: 1448
VWidth: 0
GlyphClass: 2
Flags: HW
LayerCount: 3
Fore
SplineSet
1403 573 m 257
 1403 476 l 257
 1303 476 l 257
 1303 -13 l 257
 1196 -13 l 257
 1196 476 l 257
 1081 476 l 257
 1081 573 l 257
 1403 573 l 257
EndSplineSet
Refer: 80 -1 N 1 0 0 1 12 0 2
Layer: 2
SplineSet
1743 573 m 257
 1743 476 l 257
 1643 476 l 257
 1643 -13 l 257
 1536 -13 l 257
 1536 476 l 257
 1421 476 l 257
 1421 573 l 257
 1743 573 l 257
EndSplineSet
Refer: 80 -1 S 1 0 0 1 12 0 2
EndChar

StartChar: tml_Nnna
Encoding: 82 2985 82
GlifName: tml_N_nna
Width: 992
VWidth: 0
GlyphClass: 2
Flags: W
AnchorPoint: "MatraIi" 920 561 basechar 0
AnchorPoint: "MatraAi.alt" 42 244 basechar 0
AnchorPoint: "virama" 498 0 basechar 0
AnchorPoint: "MatraI.alt2" 875 561 basechar 0
LayerCount: 3
Fore
SplineSet
372 474 m 257
 372 572 l 257
 527 572 691 470 691 214 c 256
 691 53 648 -23 543 -23 c 256
 441 -23 391 55 391 214 c 256
 391 425 485 561 677 561 c 258
 950 561 l 257
 950 463 l 257
 848 463 l 257
 848 1 l 257
 740 1 l 257
 740 463 l 257
 666 463 l 258
 545 463 499 368 499 214 c 256
 499 142 514 75 543 75 c 256
 571 75 583 134 583 213 c 256
 583 414 465 474 372 474 c 257
  PathStart: -2
209 -23 m 256
 104 -23 42 91 42 246 c 256
 42 450 157 571 352 572 c 257
 352 474 l 257
 203 474 144 378 144 256 c 256
 144 159 161 75 209 75 c 256
 255 75 264 139 264 178 c 256
 264 239 236 272 210 272 c 256
 170 272 142 222 154 148 c 256
 67 217 l 256
 89 267 119 373 216 373 c 256
 285 373 366 316 366 175 c 256
 366 54 307 -23 209 -23 c 256
352 474 m 257
 352 572 l 257
 374 572 l 257
 374 474 l 257
 352 474 l 257
EndSplineSet
Layer: 2
SplineSet
372 474 m 257
 372 572 l 257
 527 572 691 470 691 214 c 256
 691 53 648 -23 543 -23 c 256
 441 -23 391 55 391 214 c 256
 391 425 485 561 677 561 c 258
 950 561 l 257
 950 463 l 257
 848 463 l 257
 848 1 l 257
 740 1 l 257
 740 463 l 257
 666 463 l 258
 545 463 499 368 499 214 c 256
 499 142 514 75 543 75 c 256
 571 75 583 134 583 213 c 256
 583 414 465 474 372 474 c 257
209 -23 m 256
 104 -23 42 91 42 246 c 256
 42 450 157 571 352 572 c 257
 352 474 l 257
 203 474 144 378 144 256 c 256
 144 159 161 75 209 75 c 256
 255 75 264 139 264 178 c 256
 264 239 236 272 210 272 c 256
 170 272 142 222 154 148 c 256
 67 217 l 256
 89 267 119 373 216 373 c 256
 285 373 366 316 366 175 c 256
 366 54 307 -23 209 -23 c 256
352 474 m 257
 352 572 l 257
 374 572 l 257
 374 474 l 257
 352 474 l 257
EndSplineSet
EndChar

StartChar: tml_Number
Encoding: 83 3066 83
GlifName: tml_N_umber
Width: 1087
VWidth: 0
GlyphClass: 2
Flags: W
LayerCount: 3
Fore
SplineSet
357 537 m 257
 321 627 366 755 510 755 c 256
 677 755 860 620 860 375 c 256
 860 288 835 204 736 204 c 256
 654 204 607 274 607 376 c 256
 607 482 692 574 798 574 c 256
 912 574 1027 503 1029 325 c 256
 1030 218 982 140 940 98 c 257
 1067 98 l 257
 1067 0 l 257
 802 0 l 257
 801 83 l 257
 860 130 928 204 928 315 c 256
 928 443 865 471 798 471 c 256
 728 471 699 419 699 363 c 256
 699 314 715 295 736 295 c 256
 756 295 771 311 771 355 c 256
 771 540 663 659 516 657 c 256
 459 656 406 621 440 537 c 257
 357 537 l 257
60 0 m 257
 60 560 l 257
 470 560 l 257
 470 462 l 257
 368 462 l 257
 368 0 l 257
 260 0 l 257
 260 462 l 257
 167 462 l 257
 167 0 l 257
 60 0 l 257
417 76 m 257
 453 76 479 141 479 213 c 256
 479 276 454 317 417 317 c 256
 378 317 368 279 368 254 c 257
 319 285 l 257
 319 358 370 408 443 408 c 256
 521 408 576 327 576 232 c 256
 576 121 531 0 417 0 c 257
 417 76 l 257
EndSplineSet
Layer: 2
SplineSet
357 537 m 257
 321 627 366 755 510 755 c 256
 677 755 860 620 860 375 c 256
 860 288 835 204 736 204 c 256
 654 204 607 274 607 376 c 256
 607 482 692 574 798 574 c 256
 912 574 1027 503 1029 325 c 256
 1030 218 982 140 940 98 c 257
 1067 98 l 257
 1067 0 l 257
 802 0 l 257
 801 83 l 257
 860 130 928 204 928 315 c 256
 928 443 865 471 798 471 c 256
 728 471 699 419 699 363 c 256
 699 314 715 295 736 295 c 256
 756 295 771 311 771 355 c 256
 771 540 663 659 516 657 c 256
 459 656 406 621 440 537 c 257
 357 537 l 257
60 0 m 257
 60 560 l 257
 470 560 l 257
 470 462 l 257
 368 462 l 257
 368 0 l 257
 260 0 l 257
 260 462 l 257
 167 462 l 257
 167 0 l 257
 60 0 l 257
417 76 m 257
 453 76 479 141 479 213 c 256
 479 276 454 317 417 317 c 256
 378 317 368 279 368 254 c 257
 319 285 l 257
 319 358 370 408 443 408 c 256
 521 408 576 327 576 232 c 256
 576 121 531 0 417 0 c 257
 417 76 l 257
EndSplineSet
EndChar

StartChar: tml_NyU
Encoding: 84 -1 84
GlifName: tml_N_yU_
Width: 990
VWidth: 0
GlyphClass: 2
Flags: W
LayerCount: 3
Fore
SplineSet
326 -349 m 256
 112 -349 42 -252 42 -180 c 256
 42 -125 83 -64 181 -64 c 258
 823 -64 l 257
 823 560 l 257
 930 560 l 257
 930 -159 l 257
 195 -158 l 258
 164 -158 149 -165 149 -190 c 256
 149 -222 206 -252 326 -252 c 256
 564 -250 660 -84 660 124 c 256
 660 203 633 267 592 267 c 256
 550 267 541 229 541 204 c 257
 492 235 l 256
 492 308 540 358 604 358 c 256
 698 358 762 270 762 121 c 256
 762 -142 634 -350 326 -349 c 256
EndSplineSet
Refer: 14 2958 N 1 0 0 1 20 0 2
Layer: 2
SplineSet
326 -349 m 256
 112 -349 42 -252 42 -180 c 256
 42 -125 83 -64 181 -64 c 258
 823 -64 l 257
 823 560 l 257
 930 560 l 257
 930 -159 l 257
 195 -158 l 258
 164 -158 149 -165 149 -190 c 256
 149 -222 206 -252 326 -252 c 256
 564 -250 660 -84 660 124 c 256
 660 203 633 267 592 267 c 256
 550 267 541 229 541 204 c 257
 492 235 l 256
 492 308 540 358 604 358 c 256
 698 358 762 270 762 121 c 256
 762 -142 634 -350 326 -349 c 256
EndSplineSet
Refer: 14 2958 N 1 0 0 1 20 0 2
EndChar

StartChar: tml_NyUu
Encoding: 85 -1 85
GlifName: tml_N_yU_u
Width: 1235
VWidth: 0
GlyphClass: 2
Flags: W
LayerCount: 3
Fore
SplineSet
1235 560 m 257
 1235 463 l 257
 1135 463 l 257
 1135 -13 l 257
 1028 -13 l 257
 1028 463 l 257
 913 463 l 257
 913 560 l 257
 1235 560 l 257
EndSplineSet
Refer: 84 -1 N 1 0 0 1 12 0 2
Layer: 2
SplineSet
1235 560 m 257
 1235 463 l 257
 1135 463 l 257
 1135 -13 l 257
 1028 -13 l 257
 1028 463 l 257
 913 463 l 257
 913 560 l 257
 1235 560 l 257
EndSplineSet
Refer: 84 -1 N 1 0 0 1 12 0 2
EndChar

StartChar: tml_Nya
Encoding: 86 2974 86
GlifName: tml_N_ya
Width: 998
VWidth: 0
GlyphClass: 2
Flags: W
AnchorPoint: "MatraIi" 783 560 basechar 0
AnchorPoint: "MatraI.alt1" 798 560 basechar 0
AnchorPoint: "virama" 602 0 basechar 0
LayerCount: 3
Fore
SplineSet
421 -24 m 256
 316 -24 254 90 254 245 c 256
 254 442 347 560 503 560 c 256
 501 462 l 256
 402 462 356 370 356 255 c 256
 356 158 373 74 421 74 c 256
 467 74 476 139 476 178 c 256
 476 246 448 281 422 281 c 256
 379 281 359 235 362 167 c 257
 306 196 l 257
 306 269 349 362 433 362 c 256
 506 362 572 297 572 174 c 256
 572 53 515 -24 421 -24 c 256
530 -275 m 256
 235 -274 43 -84 42 227 c 256
 42 368 92 477 150 572 c 257
 239 527 l 257
 183 434 146 350 146 227 c 256
 146 -17 302 -176 531 -175 c 256
 769 -174 854 -54 854 134 c 256
 854 213 827 267 786 267 c 256
 744 267 735 229 735 204 c 257
 686 235 l 256
 686 308 734 358 798 358 c 256
 892 358 956 280 956 131 c 256
 956 -117 838 -276 530 -275 c 256
  PathStart: -2
493 462 m 257
 501 560 l 257
 838 560 l 257
 838 462 l 257
 735 462 l 257
 735 1 l 257
 628 1 l 257
 628 462 l 257
 493 462 l 257
EndSplineSet
Layer: 2
SplineSet
421 -24 m 256
 316 -24 254 90 254 245 c 256
 254 442 347 560 503 560 c 256
 501 462 l 256
 402 462 356 370 356 255 c 256
 356 158 373 74 421 74 c 256
 467 74 476 139 476 178 c 256
 476 246 448 281 422 281 c 256
 379 281 359 235 362 167 c 257
 306 196 l 257
 306 269 349 362 433 362 c 256
 506 362 572 297 572 174 c 256
 572 53 515 -24 421 -24 c 256
530 -275 m 256
 235 -274 43 -84 42 227 c 256
 42 368 92 477 150 572 c 257
 239 527 l 257
 183 434 146 350 146 227 c 256
 146 -17 302 -176 531 -175 c 256
 769 -174 854 -54 854 134 c 256
 854 213 827 267 786 267 c 256
 744 267 735 229 735 204 c 257
 686 235 l 256
 686 308 734 358 798 358 c 256
 892 358 956 280 956 131 c 256
 956 -117 838 -276 530 -275 c 256
493 462 m 257
 501 560 l 257
 838 560 l 257
 838 462 l 257
 735 462 l 257
 735 1 l 257
 628 1 l 257
 628 462 l 257
 493 462 l 257
EndSplineSet
EndChar

StartChar: tml_O
Encoding: 87 2962 87
GlifName: tml_O_
Width: 686
VWidth: 0
GlyphClass: 2
Flags: W
LayerCount: 3
Fore
SplineSet
477 152 m 256
 390 152 338 230 338 299 c 257
 437 299 l 257
 437 269 445 243 478 243 c 256
 515 243 542 286 542 345 c 256
 542 442 459 512 355 512 c 256
 212 512 133 423 133 300 c 256
 133 260 145 231 175 231 c 256
 207 231 220 255 220 289 c 256
 220 320 208 343 177 343 c 256
 147 343 134 321 133 290 c 257
 75 296 l 257
 75 369 119 422 193 422 c 256
 263 422 304 364 304 285 c 256
 304 204 257 146 177 146 c 256
 93 146 42 214 42 307 c 256
 42 483 159 610 355 610 c 256
 518 610 644 501 644 350 c 256
 644 235 574 152 477 152 c 256
  PathStart: -1
333 -164 m 256
 226 -164 149 -85 149 23 c 257
 248 23 l 257
 248 -27 286 -63 339 -63 c 256
 409 -63 429 -10 436 62 c 257
 462 14 l 257
 388 14 338 73 338 160 c 258
 338 299 l 257
 435 299 l 257
 435 159 l 258
 435 109 452 98 487 98 c 258
 608 98 l 257
 608 12 l 257
 492 12 l 257
 529 15 l 257
 516 -89 443 -164 333 -164 c 256
  PathStart: -1
EndSplineSet
Layer: 2
SplineSet
477 152 m 256
 390 152 338 230 338 299 c 257
 437 299 l 257
 437 269 445 243 478 243 c 256
 515 243 542 286 542 345 c 256
 542 442 459 512 355 512 c 256
 212 512 133 423 133 300 c 256
 133 260 145 231 175 231 c 256
 207 231 220 255 220 289 c 256
 220 320 208 343 177 343 c 256
 147 343 134 321 133 290 c 257
 75 296 l 257
 75 369 119 422 193 422 c 256
 263 422 304 364 304 285 c 256
 304 204 257 146 177 146 c 256
 93 146 42 214 42 307 c 256
 42 483 159 610 355 610 c 256
 518 610 644 501 644 350 c 256
 644 235 574 152 477 152 c 256
333 -164 m 256
 226 -164 149 -85 149 23 c 257
 248 23 l 257
 248 -27 286 -63 339 -63 c 256
 409 -63 429 -10 436 62 c 257
 462 14 l 257
 388 14 338 73 338 160 c 258
 338 299 l 257
 435 299 l 257
 435 159 l 258
 435 109 452 98 487 98 c 258
 608 98 l 257
 608 12 l 257
 492 12 l 257
 529 15 l 257
 516 -89 443 -164 333 -164 c 256
EndSplineSet
EndChar

StartChar: tml_Om
Encoding: 88 3024 88
GlifName: tml_O_m
Width: 726
VWidth: 0
GlyphClass: 2
Flags: W
LayerCount: 3
Fore
SplineSet
108 23 m 257
 207 23 l 257
 207 -27 258 -66 335 -66 c 257
 425 -66 469 -10 476 62 c 257
 502 14 l 257
 428 14 378 73 378 160 c 258
 378 299 l 257
 475 299 l 257
 475 159 l 258
 475 109 492 98 527 98 c 258
 648 98 l 257
 648 12 l 257
 532 12 l 257
 569 15 l 257
 547 -86 465 -164 335 -164 c 256
 211 -164 108 -85 108 23 c 257
  PathStart: -2
274 -41 m 257
 274 76 l 257
 301 76 l 257
 301 -16 l 257
 344 -16 l 257
 349 -41 l 257
 274 -41 l 257
322 -24 m 257
 322 50 l 258
 322 70 331 79 350 79 c 256
 383 79 398 50 398 24 c 256
 398 -12 377 -41 349 -41 c 257
 343 -16 l 257
 365 -16 373 7 373 24 c 256
 373 37 368 53 355 53 c 256
 350 53 349 48 349 42 c 258
 349 -24 l 257
 322 -24 l 257
308 108 m 256
 308 118 316 127 325 127 c 256
 336 127 344 118 344 108 c 256
 344 96 336 90 325 90 c 256
 316 90 308 96 308 108 c 256
  PathStart: -2
42 307 m 256
 42 449 134 610 370 610 c 256
 573 610 684 481 684 350 c 256
 684 235 614 152 517 152 c 256
 430 152 378 230 378 299 c 257
 477 299 l 257
 477 269 485 243 518 243 c 256
 555 243 582 286 582 345 c 256
 582 437 492 512 370 512 c 256
 196 512 133 413 133 300 c 256
 133 260 145 231 175 231 c 256
 207 231 220 255 220 289 c 256
 220 320 208 343 177 343 c 256
 147 343 134 321 133 290 c 257
 75 296 l 257
 75 369 119 422 193 422 c 256
 263 422 304 364 304 285 c 256
 304 204 257 146 177 146 c 256
 93 146 42 214 42 307 c 256
  PathStart: -2
EndSplineSet
PickledDataWithLists: "(dp1
S'com.typemytype.robofont.layerData'
p2
(dp3
S'Bold Jan 21 16, 03:31'
p4
(dp5
S'name'
p6
S'tml_Om'
p7
sS'lib'
p8
(dp9
sS'unicodes'
p10
(lp11
sS'width'
p12
I683
sS'contours'
p13
(lp14
(dp15
S'points'
p16
(lp17
(dp18
S'segmentType'
p19
S'line'
p20
sS'x'
I309
sS'smooth'
p21
I00
sS'y'
I-41
sa(dp22
g19
S'line'
p23
sS'x'
I309
sg21
I00
sS'y'
I27
sa(dp24
g19
S'line'
p25
sS'x'
I325
sg21
I00
sS'y'
I27
sa(dp26
g19
S'line'
p27
sS'x'
I325
sg21
I00
sS'y'
I-26
sa(dp28
g19
S'line'
p29
sS'x'
I350
sg21
I00
sS'y'
I-26
sa(dp30
g19
S'line'
p31
sS'x'
I352
sg21
I00
sS'y'
I-41
sasa(dp32
g16
(lp33
(dp34
g19
S'line'
p35
sS'x'
I337
sg21
I00
sS'y'
I-30
sa(dp36
g19
S'line'
p37
sS'x'
I337
sg21
I01
sS'y'
I12
sa(dp38
S'y'
I23
sS'x'
I337
sg21
I00
sa(dp39
S'y'
I29
sS'x'
I342
sg21
I00
sa(dp40
g19
S'curve'
p41
sS'x'
I353
sg21
I01
sS'y'
I29
sa(dp42
S'y'
I29
sS'x'
I372
sg21
I00
sa(dp43
S'y'
I12
sS'x'
I381
sg21
I00
sa(dp44
g19
S'curve'
p45
sS'x'
I381
sg21
I01
sS'y'
I-3
sa(dp46
S'y'
I-24
sS'x'
I381
sg21
I00
sa(dp47
S'y'
I-41
sS'x'
I369
sg21
I00
sa(dp48
g19
S'curve'
p49
sS'x'
I352
sg21
I00
sS'y'
I-41
sa(dp50
g19
S'line'
p51
sS'x'
I349
sg21
I00
sS'y'
I-26
sa(dp52
S'y'
I-26
sS'x'
I362
sg21
I00
sa(dp53
S'y'
I-13
sS'x'
I366
sg21
I00
sa(dp54
g19
S'curve'
p55
sS'x'
I366
sg21
I01
sS'y'
I-3
sa(dp56
S'y'
I5
sS'x'
I366
sg21
I00
sa(dp57
S'y'
I14
sS'x'
I363
sg21
I00
sa(dp58
g19
S'curve'
p59
sS'x'
I356
sg21
I01
sS'y'
I14
sa(dp60
S'y'
I14
sS'x'
I353
sg21
I00
sa(dp61
S'y'
I11
sS'x'
I352
sg21
I00
sa(dp62
g19
S'curve'
p63
sS'x'
I352
sg21
I01
sS'y'
I7
sa(dp64
g19
S'line'
p65
sS'x'
I352
sg21
I00
sS'y'
I-30
sasa(dp66
g16
(lp67
(dp68
S'y'
I35
sS'x'
I345
sg21
I00
sa(dp69
S'y'
I39
sS'x'
I350
sg21
I00
sa(dp70
g19
S'curve'
p71
sS'x'
I350
sg21
I01
sS'y'
I45
sa(dp72
S'y'
I51
sS'x'
I350
sg21
I00
sa(dp73
S'y'
I56
sS'x'
I345
sg21
I00
sa(dp74
g19
S'curve'
p75
sS'x'
I339
sg21
I01
sS'y'
I56
sa(dp76
S'y'
I56
sS'x'
I333
sg21
I00
sa(dp77
S'y'
I51
sS'x'
I329
sg21
I00
sa(dp78
g19
S'curve'
p79
sS'x'
I329
sg21
I01
sS'y'
I45
sa(dp80
S'y'
I39
sS'x'
I329
sg21
I00
sa(dp81
S'y'
I35
sS'x'
I333
sg21
I00
sa(dp82
g19
S'curve'
p83
sS'x'
I339
sg21
I01
sS'y'
I35
sasa(dp84
g16
(lp85
(dp86
S'y'
I512
sS'x'
I211
sg21
I00
sa(dp87
S'y'
I423
sS'x'
I132
sg21
I00
sa(dp88
g19
S'curve'
p89
sS'x'
I132
sg21
I01
sS'y'
I300
sa(dp90
S'y'
I260
sS'x'
I132
sg21
I00
sa(dp91
S'y'
I231
sS'x'
I144
sg21
I00
sa(dp92
g19
S'curve'
p93
sS'x'
I174
sg21
I01
sS'y'
I231
sa(dp94
S'y'
I231
sS'x'
I206
sg21
I00
sa(dp95
S'y'
I255
sS'x'
I219
sg21
I00
sa(dp96
g19
S'curve'
p97
sS'x'
I219
sg21
I01
sS'y'
I289
sa(dp98
S'y'
I320
sS'x'
I219
sg21
I00
sa(dp99
S'y'
I343
sS'x'
I207
sg21
I00
sa(dp100
g19
S'curve'
p101
sS'x'
I176
sg21
I01
sS'y'
I343
sa(dp102
S'y'
I343
sS'x'
I146
sg21
I00
sa(dp103
S'y'
I321
sS'x'
I133
sg21
I00
sa(dp104
g19
S'curve'
p105
sS'x'
I132
sg21
I00
sS'y'
I290
sa(dp106
g19
S'line'
p107
sS'x'
I74
sg21
I00
sS'y'
I296
sa(dp108
S'y'
I369
sS'x'
I74
sg21
I00
sa(dp109
S'y'
I422
sS'x'
I118
sg21
I00
sa(dp110
g19
S'curve'
p111
sS'x'
I192
sg21
I01
sS'y'
I422
sa(dp112
S'y'
I422
sS'x'
I262
sg21
I00
sa(dp113
S'y'
I364
sS'x'
I303
sg21
I00
sa(dp114
g19
S'curve'
p115
sS'x'
I303
sg21
I01
sS'y'
I285
sa(dp116
S'y'
I204
sS'x'
I303
sg21
I00
sa(dp117
S'y'
I146
sS'x'
I256
sg21
I00
sa(dp118
g19
S'curve'
p119
sS'x'
I176
sg21
I01
sS'y'
I146
sa(dp120
S'y'
I146
sS'x'
I92
sg21
I00
sa(dp121
S'y'
I214
sS'x'
I41
sg21
I00
sa(dp122
g19
S'curve'
p123
sS'x'
I41
sg21
I01
sS'y'
I307
sa(dp124
S'y'
I483
sS'x'
I41
sg21
I00
sa(dp125
S'y'
I610
sS'x'
I158
sg21
I00
sa(dp126
g19
S'curve'
p127
sS'x'
I354
sg21
I00
sS'y'
I610
sa(dp128
S'y'
I610
sS'x'
I517
sg21
I00
sa(dp129
S'y'
I501
sS'x'
I643
sg21
I00
sa(dp130
g19
S'curve'
p131
sS'x'
I643
sg21
I01
sS'y'
I350
sa(dp132
S'y'
I235
sS'x'
I643
sg21
I00
sa(dp133
S'y'
I152
sS'x'
I573
sg21
I00
sa(dp134
g19
S'curve'
p135
sS'x'
I476
sg21
I01
sS'y'
I152
sa(dp136
S'y'
I152
sS'x'
I389
sg21
I00
sa(dp137
S'y'
I230
sS'x'
I337
sg21
I00
sa(dp138
g19
S'curve'
p139
sS'x'
I337
sg21
I00
sS'y'
I299
sa(dp140
g19
S'line'
p141
sS'x'
I436
sg21
I00
sS'y'
I299
sa(dp142
S'y'
I269
sS'x'
I436
sg21
I00
sa(dp143
S'y'
I243
sS'x'
I444
sg21
I00
sa(dp144
g19
S'curve'
p145
sS'x'
I477
sg21
I01
sS'y'
I243
sa(dp146
S'y'
I243
sS'x'
I514
sg21
I00
sa(dp147
S'y'
I286
sS'x'
I541
sg21
I00
sa(dp148
g19
S'curve'
p149
sS'x'
I541
sg21
I01
sS'y'
I345
sa(dp150
S'y'
I442
sS'x'
I541
sg21
I00
sa(dp151
S'y'
I512
sS'x'
I458
sg21
I00
sa(dp152
g19
S'curve'
p153
sS'x'
I354
sg21
I00
sS'y'
I512
sasa(dp154
g16
(lp155
(dp156
S'y'
I-164
sS'x'
I225
sg21
I00
sa(dp157
S'y'
I-85
sS'x'
I148
sg21
I00
sa(dp158
g19
S'curve'
p159
sS'x'
I148
sg21
I00
sS'y'
I23
sa(dp160
g19
S'line'
p161
sS'x'
I247
sg21
I00
sS'y'
I23
sa(dp162
S'y'
I-27
sS'x'
I247
sg21
I00
sa(dp163
S'y'
I-63
sS'x'
I285
sg21
I00
sa(dp164
g19
S'curve'
p165
sS'x'
I338
sg21
I00
sS'y'
I-63
sa(dp166
S'y'
I-63
sS'x'
I408
sg21
I00
sa(dp167
S'y'
I-10
sS'x'
I428
sg21
I00
sa(dp168
g19
S'curve'
p169
sS'x'
I435
sg21
I00
sS'y'
I62
sa(dp170
g19
S'line'
p171
sS'x'
I461
sg21
I00
sS'y'
I14
sa(dp172
S'y'
I14
sS'x'
I387
sg21
I00
sa(dp173
S'y'
I73
sS'x'
I337
sg21
I00
sa(dp174
g19
S'curve'
p175
sS'x'
I337
sg21
I01
sS'y'
I160
sa(dp176
g19
S'line'
p177
sS'x'
I337
sg21
I00
sS'y'
I299
sa(dp178
g19
S'line'
p179
sS'x'
I434
sg21
I00
sS'y'
I299
sa(dp180
g19
S'line'
p181
sS'x'
I434
sg21
I01
sS'y'
I159
sa(dp182
S'y'
I109
sS'x'
I434
sg21
I00
sa(dp183
S'y'
I98
sS'x'
I451
sg21
I00
sa(dp184
g19
S'curve'
p185
sS'x'
I486
sg21
I01
sS'y'
I98
sa(dp186
g19
S'line'
p187
sS'x'
I607
sg21
I00
sS'y'
I98
sa(dp188
g19
S'line'
p189
sS'x'
I607
sg21
I00
sS'y'
I12
sa(dp190
g19
S'line'
p191
sS'x'
I491
sg21
I00
sS'y'
I12
sa(dp192
g19
S'line'
p193
sS'x'
I528
sg21
I00
sS'y'
I15
sa(dp194
S'y'
I-89
sS'x'
I515
sg21
I00
sa(dp195
S'y'
I-164
sS'x'
I442
sg21
I00
sa(dp196
g19
S'curve'
p197
sS'x'
I332
sg21
I00
sS'y'
I-164
sasasS'components'
p198
(lp199
sS'anchors'
p200
(lp201
sss."
Layer: 2
SplineSet
108 23 m 257
 207 23 l 257
 207 -27 258 -66 335 -66 c 257
 425 -66 469 -10 476 62 c 257
 502 14 l 257
 428 14 378 73 378 160 c 258
 378 299 l 257
 475 299 l 257
 475 159 l 258
 475 109 492 98 527 98 c 258
 648 98 l 257
 648 12 l 257
 532 12 l 257
 569 15 l 257
 547 -86 465 -164 335 -164 c 256
 211 -164 108 -85 108 23 c 257
274 -41 m 257
 274 76 l 257
 301 76 l 257
 301 -16 l 257
 344 -16 l 257
 349 -41 l 257
 274 -41 l 257
322 -24 m 257
 322 50 l 258
 322 70 331 79 350 79 c 256
 383 79 398 50 398 24 c 256
 398 -12 377 -41 349 -41 c 257
 343 -16 l 257
 365 -16 373 7 373 24 c 256
 373 37 368 53 355 53 c 256
 350 53 349 48 349 42 c 258
 349 -24 l 257
 322 -24 l 257
308 108 m 256
 308 118 316 127 325 127 c 256
 336 127 344 118 344 108 c 256
 344 96 336 90 325 90 c 256
 316 90 308 96 308 108 c 256
42 307 m 256
 42 449 134 610 370 610 c 256
 573 610 684 481 684 350 c 256
 684 235 614 152 517 152 c 256
 430 152 378 230 378 299 c 257
 477 299 l 257
 477 269 485 243 518 243 c 256
 555 243 582 286 582 345 c 256
 582 437 492 512 370 512 c 256
 196 512 133 413 133 300 c 256
 133 260 145 231 175 231 c 256
 207 231 220 255 220 289 c 256
 220 320 208 343 177 343 c 256
 147 343 134 321 133 290 c 257
 75 296 l 257
 75 369 119 422 193 422 c 256
 263 422 304 364 304 285 c 256
 304 204 257 146 177 146 c 256
 93 146 42 214 42 307 c 256
EndSplineSet
EndChar

StartChar: tml_Oo
Encoding: 90 2963 90
GlifName: tml_O_o
Width: 686
VWidth: 0
GlyphClass: 2
Flags: W
LayerCount: 3
Fore
SplineSet
177 146 m 256
 93 146 42 214 42 307 c 256
 42 483 159 610 355 610 c 256
 518 610 644 501 644 350 c 256
 644 235 574 152 477 152 c 256
 390 152 338 230 338 299 c 257
 437 299 l 257
 437 269 445 243 478 243 c 256
 515 243 542 286 542 345 c 256
 542 442 459 512 355 512 c 256
 212 512 133 423 133 300 c 256
 133 260 145 231 175 231 c 256
 207 231 220 255 220 289 c 256
 220 320 208 343 177 343 c 256
 147 343 134 321 133 290 c 257
 75 296 l 257
 75 369 119 422 193 422 c 256
 263 422 304 364 304 285 c 256
 304 204 257 146 177 146 c 256
333 -164 m 256
 226 -164 129 -100 129 8 c 256
 129 74 178 121 246 121 c 256
 313 121 361 77 361 17 c 256
 361 -68 287 -107 264 -120 c 257
 227 -62 l 257
 253 -46 279 -34 279 9 c 256
 279 28 268 41 254 41 c 256
 239 41 228 24 228 5 c 256
 228 -37 263 -73 327 -73 c 256
 397 -73 429 -10 436 62 c 257
 462 14 l 257
 388 14 338 73 338 160 c 258
 338 299 l 257
 435 299 l 257
 435 159 l 258
 435 109 452 98 487 98 c 258
 608 98 l 257
 608 12 l 257
 492 12 l 257
 529 15 l 257
 516 -89 443 -164 333 -164 c 256
EndSplineSet
Layer: 2
SplineSet
177 146 m 256
 93 146 42 214 42 307 c 256
 42 483 159 610 355 610 c 256
 518 610 644 501 644 350 c 256
 644 235 574 152 477 152 c 256
 390 152 338 230 338 299 c 257
 437 299 l 257
 437 269 445 243 478 243 c 256
 515 243 542 286 542 345 c 256
 542 442 459 512 355 512 c 256
 212 512 133 423 133 300 c 256
 133 260 145 231 175 231 c 256
 207 231 220 255 220 289 c 256
 220 320 208 343 177 343 c 256
 147 343 134 321 133 290 c 257
 75 296 l 257
 75 369 119 422 193 422 c 256
 263 422 304 364 304 285 c 256
 304 204 257 146 177 146 c 256
333 -164 m 256
 226 -164 129 -100 129 8 c 256
 129 74 178 121 246 121 c 256
 313 121 361 77 361 17 c 256
 361 -68 287 -107 264 -120 c 257
 227 -62 l 257
 253 -46 279 -34 279 9 c 256
 279 28 268 41 254 41 c 256
 239 41 228 24 228 5 c 256
 228 -37 263 -73 327 -73 c 256
 397 -73 429 -10 436 62 c 257
 462 14 l 257
 388 14 338 73 338 160 c 258
 338 299 l 257
 435 299 l 257
 435 159 l 258
 435 109 452 98 487 98 c 258
 608 98 l 257
 608 12 l 257
 492 12 l 257
 529 15 l 257
 516 -89 443 -164 333 -164 c 256
EndSplineSet
EndChar

StartChar: tml_PUu
Encoding: 91 -1 91
GlifName: tml_P_U_u
Width: 722
VWidth: 0
GlyphClass: 2
Flags: W
LayerCount: 3
Fore
SplineSet
422 -153 m 257
 422 32 l 257
 531 33 l 257
 531 -153 l 257
 422 -153 l 257
150 -176 m 256
 150 -212 230 -251 356 -252 c 256
 483 -253 604 -198 604 -95 c 256
 604 -44 577 -22 555 -22 c 256
 542 -22 531 -30 531 -47 c 257
 475 5 l 257
 503 43 535 59 566 58 c 256
 633 58 702 9 702 -98 c 256
 702 -246 566 -350 356 -350 c 256
 169 -350 42 -271 42 -176 c 256
 42 -112 91 -59 192 -59 c 257
 299 -59 l 257
 299 -151 l 257
 192 -151 l 257
 166 -151 150 -158 150 -176 c 256
  PathStart: -2
EndSplineSet
Refer: 92 2986 N 1 0 0 1 42 0 2
Layer: 2
SplineSet
422 -153 m 257
 422 32 l 257
 531 33 l 257
 531 -153 l 257
 422 -153 l 257
150 -176 m 256
 150 -212 230 -251 356 -252 c 256
 483 -253 604 -198 604 -95 c 256
 604 -44 577 -22 555 -22 c 256
 542 -22 531 -30 531 -47 c 257
 475 5 l 257
 503 43 535 59 566 58 c 256
 633 58 702 9 702 -98 c 256
 702 -246 566 -350 356 -350 c 256
 169 -350 42 -271 42 -176 c 256
 42 -112 91 -59 192 -59 c 257
 299 -59 l 257
 299 -151 l 257
 192 -151 l 257
 166 -151 150 -158 150 -176 c 256
EndSplineSet
Refer: 92 2986 N 1 0 0 1 42 0 2
EndChar

StartChar: tml_Pa
Encoding: 92 2986 92
GlifName: tml_P_a
Width: 570
VWidth: 0
GlyphClass: 2
Flags: W
AnchorPoint: "MatraIi" 472 560 basechar 0
AnchorPoint: "MatraI.alt3" 402 530 basechar 0
AnchorPoint: "virama" 292 0 basechar 0
AnchorPoint: "MatraU.alt1" 401 33 basechar 0
LayerCount: 3
Fore
SplineSet
60 1 m 257
 60 560 l 257
 167 560 l 257
 167 99 l 257
 402 99 l 257
 402 560 l 257
 510 560 l 257
 510 1 l 257
 60 1 l 257
EndSplineSet
Layer: 2
SplineSet
60 1 m 257
 60 560 l 257
 167 560 l 257
 167 99 l 257
 402 99 l 257
 402 560 l 257
 510 560 l 257
 510 1 l 257
 60 1 l 257
EndSplineSet
EndChar

StartChar: tml_RI.alt
Encoding: 93 -1 93
GlifName: tml_R_I_.alt
Width: 771
VWidth: 0
GlyphClass: 2
Flags: HW
LayerCount: 3
Fore
SplineSet
60 1 m 257
 60 560 l 257
 539 560 l 257
 539 462 l 257
 436 462 l 257
 436 1 l 257
 328 1 l 257
 328 462 l 257
 167 462 l 257
 167 1 l 257
 60 1 l 257
EndSplineSet
Refer: 50 -1 S 1 0 0 1 569 0 2
Layer: 2
SplineSet
60 1 m 257
 60 560 l 257
 539 560 l 257
 539 462 l 257
 436 462 l 257
 436 1 l 257
 328 1 l 257
 328 462 l 257
 167 462 l 257
 167 1 l 257
 60 1 l 257
EndSplineSet
Refer: 50 -1 S 1 0 0 1 569 0 2
EndChar

StartChar: tml_RIi.alt
Encoding: 94 -1 94
GlifName: tml_R_I_i.alt
Width: 583
VWidth: 0
GlyphClass: 2
Flags: W
LayerCount: 3
Fore
SplineSet
60 1 m 257
 60 560 l 257
 539 560 l 257
 539 462 l 257
 436 462 l 257
 436 1 l 257
 328 1 l 257
 328 462 l 257
 167 462 l 257
 167 1 l 257
 60 1 l 257
EndSplineSet
Refer: 58 3008 N 1 0 0 1 479 0 2
Layer: 2
SplineSet
60 1 m 257
 60 560 l 257
 539 560 l 257
 539 462 l 257
 436 462 l 257
 436 1 l 257
 328 1 l 257
 328 462 l 257
 167 462 l 257
 167 1 l 257
 60 1 l 257
EndSplineSet
Refer: 58 3008 N 1 0 0 1 479 0 2
EndChar

StartChar: tml_RU
Encoding: 95 -1 95
GlifName: tml_R_U_
Width: 968
VWidth: 0
GlyphClass: 2
Flags: W
LayerCount: 3
Fore
SplineSet
339 0 m 257
 339 560 l 257
 808 560 l 257
 808 462 l 257
 705 462 l 257
 705 0 l 257
 597 0 l 257
 597 462 l 257
 446 462 l 257
 446 0 l 257
 339 0 l 257
229 526 m 257
 183 457 149 354 149 234 c 256
 149 10 292 -161 531 -160 c 256
 722 -159 824 -34 824 134 c 256
 824 213 797 267 756 267 c 256
 714 267 705 229 705 204 c 257
 656 235 l 256
 656 308 704 358 768 358 c 256
 862 358 926 280 926 131 c 256
 926 -96 799 -268 520 -267 c 256
 225 -266 42 -65 42 229 c 256
 42 356 74 484 133 574 c 257
 229 526 l 257
EndSplineSet
Layer: 2
SplineSet
339 0 m 257
 339 560 l 257
 808 560 l 257
 808 462 l 257
 705 462 l 257
 705 0 l 257
 597 0 l 257
 597 462 l 257
 446 462 l 257
 446 0 l 257
 339 0 l 257
229 526 m 257
 183 457 149 354 149 234 c 256
 149 10 292 -161 531 -160 c 256
 722 -159 824 -34 824 134 c 256
 824 213 797 267 756 267 c 256
 714 267 705 229 705 204 c 257
 656 235 l 256
 656 308 704 358 768 358 c 256
 862 358 926 280 926 131 c 256
 926 -96 799 -268 520 -267 c 256
 225 -266 42 -65 42 229 c 256
 42 356 74 484 133 574 c 257
 229 526 l 257
EndSplineSet
EndChar

StartChar: tml_RUu
Encoding: 96 -1 96
GlifName: tml_R_U_u
Width: 1041
VWidth: 0
GlyphClass: 2
Flags: W
LayerCount: 3
Fore
SplineSet
412 0 m 257
 412 560 l 257
 881 560 l 257
 881 462 l 257
 778 462 l 257
 778 0 l 257
 670 0 l 257
 670 462 l 257
 519 462 l 257
 519 0 l 257
 412 0 l 257
563 -267 m 256
 302 -266 42 -134 42 191 c 256
 42 344 94 573 249 573 c 256
 340 573 377 492 377 428 c 256
 377 362 338 287 255 287 c 256
 176 287 145 354 145 408 c 256
 145 461 176 501 221 511 c 257
 240 487 l 257
 219 482 206 460 206 426 c 256
 206 390 221 366 250 366 c 256
 277 366 293 390 293 425 c 256
 293 460 280 488 251 488 c 256
 176 488 142 326 142 204 c 256
 142 -64 387 -160 574 -160 c 256
 765 -160 897 -34 897 134 c 256
 897 213 870 267 829 267 c 256
 787 267 778 229 778 204 c 257
 729 235 l 256
 729 308 777 358 841 358 c 256
 935 358 999 280 999 131 c 256
 999 -96 842 -268 563 -267 c 256
EndSplineSet
Layer: 2
SplineSet
412 0 m 257
 412 560 l 257
 881 560 l 257
 881 462 l 257
 778 462 l 257
 778 0 l 257
 670 0 l 257
 670 462 l 257
 519 462 l 257
 519 0 l 257
 412 0 l 257
563 -267 m 256
 302 -266 42 -134 42 191 c 256
 42 344 94 573 249 573 c 256
 340 573 377 492 377 428 c 256
 377 362 338 287 255 287 c 256
 176 287 145 354 145 408 c 256
 145 461 176 501 221 511 c 257
 240 487 l 257
 219 482 206 460 206 426 c 256
 206 390 221 366 250 366 c 256
 277 366 293 390 293 425 c 256
 293 460 280 488 251 488 c 256
 176 488 142 326 142 204 c 256
 142 -64 387 -160 574 -160 c 256
 765 -160 897 -34 897 134 c 256
 897 213 870 267 829 267 c 256
 787 267 778 229 778 204 c 257
 729 235 l 256
 729 308 777 358 841 358 c 256
 935 358 999 280 999 131 c 256
 999 -96 842 -268 563 -267 c 256
EndSplineSet
EndChar

StartChar: tml_Ra
Encoding: 97 2992 97
GlifName: tml_R_a
Width: 549
VWidth: 0
GlyphClass: 2
Flags: W
AnchorPoint: "MatraIi" 474 560 basechar 0
AnchorPoint: "MatraI.alt2" 454 560 basechar 0
AnchorPoint: "virama" 285 0 basechar 0
LayerCount: 3
Fore
SplineSet
60 0 m 257
 60 560 l 257
 529 560 l 257
 529 461 l 257
 426 461 l 257
 426 0 l 257
 318 0 l 257
 318 461 l 257
 167 461 l 257
 167 0 l 257
 60 0 l 257
98 -174 m 257
 319 33 l 257
 426 0 l 257
 164 -241 l 257
 98 -174 l 257
EndSplineSet
Layer: 2
SplineSet
60 0 m 257
 60 560 l 257
 529 560 l 257
 529 461 l 257
 426 461 l 257
 426 0 l 257
 318 0 l 257
 318 461 l 257
 167 461 l 257
 167 0 l 257
 60 0 l 257
98 -174 m 257
 319 33 l 257
 426 0 l 257
 164 -241 l 257
 98 -174 l 257
EndSplineSet
EndChar

StartChar: tml_Ra.alt
Encoding: 98 -1 98
GlifName: tml_R_a.alt
Width: 559
VWidth: 0
GlyphClass: 2
Flags: W
LayerCount: 3
Fore
SplineSet
60 1 m 257
 60 560 l 257
 539 560 l 257
 539 462 l 257
 436 462 l 257
 436 1 l 257
 328 1 l 257
 328 462 l 257
 167 462 l 257
 167 1 l 257
 60 1 l 257
EndSplineSet
Layer: 2
SplineSet
60 1 m 257
 60 560 l 257
 539 560 l 257
 539 462 l 257
 436 462 l 257
 436 1 l 257
 328 1 l 257
 328 462 l 257
 167 462 l 257
 167 1 l 257
 60 1 l 257
EndSplineSet
EndChar

StartChar: tml_RrAa.alt
Encoding: 99 -1 99
GlifName: tml_R_rA_a.alt
Width: 930
VWidth: 0
GlyphClass: 2
Flags: W
LayerCount: 3
Fore
SplineSet
601 426 m 257
 521 390 l 257
 522 443 497 473 455 473 c 256
 425 473 391 452 389 392 c 258
 389 0 l 257
 280 0 l 257
 280 408 l 258
 280 506 356 575 445 574 c 256
 521 573 598 534 601 426 c 257
  PathStart: -2
521 1 m 257
 521 460 l 257
 628 460 l 257
 626 -1 l 257
 521 1 l 257
876 359 m 256
 876 255 827 226 827 226 c 257
 827 226 888 190 888 80 c 256
 888 -126 754 -270 519 -270 c 256
 205 -270 42 -92 42 217 c 256
 42 373 109 511 157 573 c 257
 246 528 l 257
 237 515 146 382 146 207 c 256
 146 24 222 -167 505 -167 c 256
 705 -167 784 -49 784 80 c 256
 784 177 715 172 715 172 c 257
 715 270 l 257
 715 270 778 268 778 360 c 256
 778 427 746 476 700 476 c 256
 639 476 627 420 626 390 c 257
 556 431 l 257
 556 506 606 572 705 573 c 256
 818 574 876 473 876 359 c 256
  PathStart: -2
EndSplineSet
Layer: 2
SplineSet
601 426 m 257
 521 390 l 257
 522 443 497 473 455 473 c 256
 425 473 391 452 389 392 c 258
 389 0 l 257
 280 0 l 257
 280 408 l 258
 280 506 356 575 445 574 c 256
 521 573 598 534 601 426 c 257
521 1 m 257
 521 460 l 257
 628 460 l 257
 626 -1 l 257
 521 1 l 257
876 359 m 256
 876 255 827 226 827 226 c 257
 827 226 888 190 888 80 c 256
 888 -126 754 -270 519 -270 c 256
 205 -270 42 -92 42 217 c 256
 42 373 109 511 157 573 c 257
 246 528 l 257
 237 515 146 382 146 207 c 256
 146 24 222 -167 505 -167 c 256
 705 -167 784 -49 784 80 c 256
 784 177 715 172 715 172 c 257
 715 270 l 257
 715 270 778 268 778 360 c 256
 778 427 746 476 700 476 c 256
 639 476 627 420 626 390 c 257
 556 431 l 257
 556 506 606 572 705 573 c 256
 818 574 876 473 876 359 c 256
EndSplineSet
EndChar

StartChar: tml_RrU
Encoding: 100 -1 100
GlifName: tml_R_rU_
Width: 917
VWidth: 0
GlyphClass: 2
Flags: W
LayerCount: 3
Fore
SplineSet
381 426 m 257
 301 390 l 257
 302 443 277 473 235 473 c 256
 205 473 171 452 169 392 c 258
 169 0 l 257
 60 0 l 257
 60 408 l 258
 60 506 136 575 225 574 c 256
 301 573 378 534 381 426 c 257
  PathStart: -2
301 0 m 257
 301 460 l 257
 408 460 l 257
 406 -1 l 257
 301 0 l 257
42 -180 m 256
 42 -125 83 -64 181 -64 c 258
 750 -62 l 257
 750 560 l 257
 857 560 l 257
 857 -159 l 257
 195 -158 l 258
 164 -158 149 -165 149 -190 c 256
 149 -222 219 -252 316 -252 c 256
 578 -252 581 43 579 234 c 256
 577 416 549 476 480 476 c 256
 419 476 407 420 406 390 c 257
 336 431 l 257
 336 506 386 573 485 573 c 256
 627 573 689 461 689 234 c 256
 689 -28 657 -349 316 -349 c 256
 119 -349 42 -252 42 -180 c 256
  PathStart: -2
EndSplineSet
Layer: 2
SplineSet
381 426 m 257
 301 390 l 257
 302 443 277 473 235 473 c 256
 205 473 171 452 169 392 c 258
 169 0 l 257
 60 0 l 257
 60 408 l 258
 60 506 136 575 225 574 c 256
 301 573 378 534 381 426 c 257
301 0 m 257
 301 460 l 257
 408 460 l 257
 406 -1 l 257
 301 0 l 257
42 -180 m 256
 42 -125 83 -64 181 -64 c 258
 750 -62 l 257
 750 560 l 257
 857 560 l 257
 857 -159 l 257
 195 -158 l 258
 164 -158 149 -165 149 -190 c 256
 149 -222 219 -252 316 -252 c 256
 578 -252 581 43 579 234 c 256
 577 416 549 476 480 476 c 256
 419 476 407 420 406 390 c 257
 336 431 l 257
 336 506 386 573 485 573 c 256
 627 573 689 461 689 234 c 256
 689 -28 657 -349 316 -349 c 256
 119 -349 42 -252 42 -180 c 256
EndSplineSet
EndChar

StartChar: tml_RrUu
Encoding: 101 -1 101
GlifName: tml_R_rU_u
Width: 1182
VWidth: 0
GlyphClass: 2
Flags: W
LayerCount: 3
Fore
SplineSet
1162 560 m 257
 1162 463 l 257
 1062 463 l 257
 1062 -13 l 257
 955 -13 l 257
 955 463 l 257
 840 463 l 257
 840 560 l 257
 1162 560 l 257
EndSplineSet
Refer: 100 -1 N 1 0 0 1 12 0 2
Layer: 2
SplineSet
1162 560 m 257
 1162 463 l 257
 1062 463 l 257
 1062 -13 l 257
 955 -13 l 257
 955 463 l 257
 840 463 l 257
 840 560 l 257
 1162 560 l 257
EndSplineSet
Refer: 100 -1 N 1 0 0 1 12 0 2
EndChar

StartChar: tml_Rra
Encoding: 102 2993 102
GlifName: tml_R_ra
Width: 713
VWidth: 0
GlyphClass: 2
Flags: W
AnchorPoint: "MatraIi.alt1" 559 552 basechar 0
AnchorPoint: "MatraI.alt6" 557 553 basechar 0
AnchorPoint: "virama" 339 0 basechar 0
LayerCount: 3
Fore
SplineSet
363 426 m 257
 283 390 l 257
 284 443 259 473 217 473 c 256
 187 473 153 452 151 392 c 258
 151 0 l 257
 42 0 l 257
 42 408 l 258
 42 506 118 575 207 574 c 256
 283 573 360 534 363 426 c 257
  PathStart: -2
283 1 m 257
 283 460 l 257
 390 460 l 257
 388 -1 l 257
 283 1 l 257
375 -164 m 258
 231 -165 l 258
 163 -165 153 -204 152 -243 c 257
 42 -243 l 257
 43 -136 85 -61 225 -61 c 258
 369 -61 l 258
 488 -61 563 13 561 234 c 256
 559 416 531 476 462 476 c 256
 401 476 389 420 388 390 c 257
 318 431 l 257
 318 506 368 573 467 573 c 256
 609 573 671 461 671 234 c 256
 671 -8 602 -162 375 -164 c 258
  PathStart: -2
EndSplineSet
Layer: 2
SplineSet
363 426 m 257
 283 390 l 257
 284 443 259 473 217 473 c 256
 187 473 153 452 151 392 c 258
 151 0 l 257
 42 0 l 257
 42 408 l 258
 42 506 118 575 207 574 c 256
 283 573 360 534 363 426 c 257
283 1 m 257
 283 460 l 257
 390 460 l 257
 388 -1 l 257
 283 1 l 257
375 -164 m 258
 231 -165 l 258
 163 -165 153 -204 152 -243 c 257
 42 -243 l 257
 43 -136 85 -61 225 -61 c 258
 369 -61 l 258
 488 -61 563 13 561 234 c 256
 559 416 531 476 462 476 c 256
 401 476 389 420 388 390 c 257
 318 431 l 257
 318 506 368 573 467 573 c 256
 609 573 671 461 671 234 c 256
 671 -8 602 -162 375 -164 c 258
EndSplineSet
EndChar

StartChar: tml_Rupee
Encoding: 103 3065 103
GlifName: tml_R_upee
Width: 916
VWidth: 0
GlyphClass: 2
Flags: W
LayerCount: 3
Fore
SplineSet
305 1 m 257
 305 560 l 257
 754 560 l 257
 754 462 l 257
 651 462 l 257
 651 1 l 257
 543 1 l 257
 543 462 l 257
 412 462 l 257
 412 1 l 257
 305 1 l 257
152 341 m 256
 152 74 243 -160 490 -160 c 256
 649 -160 771 -56 771 129 c 256
 771 197 752 266 700 266 c 256
 657 266 651 218 651 179 c 257
 582 220 l 257
 586 268 617 358 717 358 c 256
 826 358 874 252 874 118 c 256
 874 -104 714 -267 482 -267 c 256
 178 -267 42 4 42 340 c 256
 42 746 264 954 515 954 c 256
 715 954 833 862 833 734 c 256
 833 654 777 601 701 601 c 256
 626 601 575 653 575 724 c 256
 575 793 624 843 691 843 c 256
 756 843 800 796 800 731 c 257
 746 729 l 257
 745 754 727 772 702 772 c 256
 677 772 659 754 659 727 c 256
 659 700 677 680 702 680 c 256
 728 680 746 701 746 729 c 256
 746 771 705 796 681 815 c 256
 644 844 583 850 515 848 c 256
 259 843 152 601 152 341 c 256
  PathStart: -2
EndSplineSet
Layer: 2
SplineSet
305 1 m 257
 305 560 l 257
 754 560 l 257
 754 462 l 257
 651 462 l 257
 651 1 l 257
 543 1 l 257
 543 462 l 257
 412 462 l 257
 412 1 l 257
 305 1 l 257
152 341 m 256
 152 74 243 -160 490 -160 c 256
 649 -160 771 -56 771 129 c 256
 771 197 752 266 700 266 c 256
 657 266 651 218 651 179 c 257
 582 220 l 257
 586 268 617 358 717 358 c 256
 826 358 874 252 874 118 c 256
 874 -104 714 -267 482 -267 c 256
 178 -267 42 4 42 340 c 256
 42 746 264 954 515 954 c 256
 715 954 833 862 833 734 c 256
 833 654 777 601 701 601 c 256
 626 601 575 653 575 724 c 256
 575 793 624 843 691 843 c 256
 756 843 800 796 800 731 c 257
 746 729 l 257
 745 754 727 772 702 772 c 256
 677 772 659 754 659 727 c 256
 659 700 677 680 702 680 c 256
 728 680 746 701 746 729 c 256
 746 771 705 796 681 815 c 256
 644 844 583 850 515 848 c 256
 259 843 152 601 152 341 c 256
EndSplineSet
EndChar

StartChar: tml_SI
Encoding: 104 -1 104
GlifName: tml_S_I_
Width: 1232
VWidth: 0
GlyphClass: 2
Flags: W
LayerCount: 3
Fore
SplineSet
209 -24 m 256
 104 -24 42 90 42 245 c 256
 42 450 131 573 294 573 c 256
 399 573 516 502 516 340 c 258
 516 0 l 257
 415 1 l 257
 415 339 l 258
 415 427 359 476 294 476 c 256
 188 476 144 378 144 255 c 256
 144 158 161 74 209 74 c 256
 255 74 264 139 264 178 c 256
 264 246 236 281 210 281 c 256
 167 281 147 235 150 167 c 257
 91 196 l 257
 91 259 134 362 219 362 c 256
 294 362 362 297 362 174 c 256
 362 53 305 -24 209 -24 c 256
820 -23 m 256
 675 -23 646 74 646 180 c 258
 646 385 l 258
 645 445 617 472 584 472 c 256
 528 472 516 404 516 338 c 257
 443 368 l 257
 443 471 487 574 594 574 c 256
 698 574 748 487 748 382 c 258
 748 171 l 258
 748 116 768 75 820 75 c 256
 881 75 910 161 910 256 c 256
 910 445 821 531 821 531 c 257
 908 584 l 257
 963 525 1016 401 1016 255 c 256
 1016 151 976 -23 820 -23 c 256
884 478 m 257
 817 467 735 503 735 592 c 256
 735 686 830 758 935 758 c 256
 1078 758 1169 666 1170 497 c 258
 1172 1 l 257
 1064 1 l 257
 1063 501 l 258
 1063 592 1017 650 931 650 c 256
 876 650 839 624 839 591 c 256
 839 570 864 557 890 573 c 257
 884 478 l 257
EndSplineSet
Layer: 2
SplineSet
209 -24 m 256
 104 -24 42 90 42 245 c 256
 42 450 131 573 294 573 c 256
 399 573 516 502 516 340 c 258
 516 0 l 257
 415 1 l 257
 415 339 l 258
 415 427 359 476 294 476 c 256
 188 476 144 378 144 255 c 256
 144 158 161 74 209 74 c 256
 255 74 264 139 264 178 c 256
 264 246 236 281 210 281 c 256
 167 281 147 235 150 167 c 257
 91 196 l 257
 91 259 134 362 219 362 c 256
 294 362 362 297 362 174 c 256
 362 53 305 -24 209 -24 c 256
820 -23 m 256
 675 -23 646 74 646 180 c 258
 646 385 l 258
 645 445 617 472 584 472 c 256
 528 472 516 404 516 338 c 257
 443 368 l 257
 443 471 487 574 594 574 c 256
 698 574 748 487 748 382 c 258
 748 171 l 258
 748 116 768 75 820 75 c 256
 881 75 910 161 910 256 c 256
 910 445 821 531 821 531 c 257
 908 584 l 257
 963 525 1016 401 1016 255 c 256
 1016 151 976 -23 820 -23 c 256
884 478 m 257
 817 467 735 503 735 592 c 256
 735 686 830 758 935 758 c 256
 1078 758 1169 666 1170 497 c 258
 1172 1 l 257
 1064 1 l 257
 1063 501 l 258
 1063 592 1017 650 931 650 c 256
 876 650 839 624 839 591 c 256
 839 570 864 557 890 573 c 257
 884 478 l 257
EndSplineSet
EndChar

StartChar: tml_SIi
Encoding: 105 -1 105
GlifName: tml_S_I_i
Width: 1057
VWidth: 0
GlyphClass: 2
Flags: W
LayerCount: 3
Fore
SplineSet
209 -24 m 256
 104 -24 42 90 42 245 c 256
 42 450 131 573 294 573 c 256
 399 573 516 502 516 340 c 258
 516 0 l 257
 415 1 l 257
 415 339 l 258
 415 427 359 476 294 476 c 256
 188 476 144 378 144 255 c 256
 144 158 161 74 209 74 c 256
 255 74 264 139 264 178 c 256
 264 246 236 281 210 281 c 256
 167 281 147 235 150 167 c 257
 91 196 l 257
 91 259 134 362 219 362 c 256
 294 362 362 297 362 174 c 256
 362 53 305 -24 209 -24 c 256
820 -23 m 256
 675 -23 646 74 646 180 c 258
 646 385 l 258
 645 445 617 472 584 472 c 256
 528 472 516 404 516 338 c 257
 443 368 l 257
 443 471 487 574 594 574 c 256
 698 574 748 487 748 382 c 258
 748 171 l 258
 748 116 768 75 820 75 c 256
 881 75 910 161 910 256 c 256
 910 445 821 531 821 531 c 257
 908 584 l 257
 963 525 1016 401 1016 255 c 256
 1016 151 976 -23 820 -23 c 256
684 666 m 256
 684 833 814 903 927 902 c 256
 1029 901 1077 830 1077 738 c 256
 1077 616 1007 590 953 590 c 256
 885 590 829 629 828 728 c 256
 828 797 879 855 916 881 c 257
 952 806 l 257
 926 806 910 768 910 736 c 256
 910 684 929 664 954 664 c 256
 980 664 993 693 993 738 c 256
 993 764 987 806 951 806 c 256
 855 806 788 764 788 666 c 256
 788 589 847 546 908 584 c 257
 903 482 l 257
 826 445 684 509 684 666 c 256
  PathStart: -2
EndSplineSet
Layer: 2
SplineSet
209 -24 m 256
 104 -24 42 90 42 245 c 256
 42 450 131 573 294 573 c 256
 399 573 516 502 516 340 c 258
 516 0 l 257
 415 1 l 257
 415 339 l 258
 415 427 359 476 294 476 c 256
 188 476 144 378 144 255 c 256
 144 158 161 74 209 74 c 256
 255 74 264 139 264 178 c 256
 264 246 236 281 210 281 c 256
 167 281 147 235 150 167 c 257
 91 196 l 257
 91 259 134 362 219 362 c 256
 294 362 362 297 362 174 c 256
 362 53 305 -24 209 -24 c 256
820 -23 m 256
 675 -23 646 74 646 180 c 258
 646 385 l 258
 645 445 617 472 584 472 c 256
 528 472 516 404 516 338 c 257
 443 368 l 257
 443 471 487 574 594 574 c 256
 698 574 748 487 748 382 c 258
 748 171 l 258
 748 116 768 75 820 75 c 256
 881 75 910 161 910 256 c 256
 910 445 821 531 821 531 c 257
 908 584 l 257
 963 525 1016 401 1016 255 c 256
 1016 151 976 -23 820 -23 c 256
684 666 m 256
 684 833 814 903 927 902 c 256
 1029 901 1077 830 1077 738 c 256
 1077 616 1007 590 953 590 c 256
 885 590 829 629 828 728 c 256
 828 797 879 855 916 881 c 257
 952 806 l 257
 926 806 910 768 910 736 c 256
 910 684 929 664 954 664 c 256
 980 664 993 693 993 738 c 256
 993 764 987 806 951 806 c 256
 855 806 788 764 788 666 c 256
 788 589 847 546 908 584 c 257
 903 482 l 257
 826 445 684 509 684 666 c 256
EndSplineSet
EndChar

StartChar: tml_SU
Encoding: 106 -1 106
GlifName: tml_S_U_
Width: 1360
VWidth: 0
GlyphClass: 2
Flags: W
LayerCount: 3
Fore
SplineSet
209 -24 m 256
 104 -24 42 90 42 245 c 256
 42 450 131 573 294 573 c 256
 399 573 516 502 516 340 c 258
 516 0 l 257
 415 1 l 257
 415 339 l 258
 415 427 359 476 294 476 c 256
 188 476 144 378 144 255 c 256
 144 158 161 74 209 74 c 256
 255 74 264 139 264 178 c 256
 264 246 236 281 210 281 c 256
 167 281 147 235 150 167 c 257
 91 196 l 257
 91 259 134 362 219 362 c 256
 294 362 362 297 362 174 c 256
 362 53 305 -24 209 -24 c 256
802 -23 m 256
 657 -23 646 74 646 180 c 258
 646 385 l 258
 645 445 617 472 584 472 c 256
 528 472 516 404 516 338 c 257
 443 368 l 257
 443 471 487 574 594 574 c 256
 698 574 748 487 748 382 c 258
 748 171 l 258
 748 116 750 75 802 75 c 256
 863 75 870 161 870 256 c 256
 870 445 825 462 825 462 c 257
 903 523 l 257
 958 464 976 401 976 255 c 256
 976 151 958 -23 802 -23 c 256
  PathStart: -2
1183 211 m 256
 1084 211 1035 282 1035 373 c 256
 1035 472 1094 522 1184 522 c 257
 1179 462 l 257
 1147 462 1134 419 1134 383 c 256
 1134 350 1145 307 1178 307 c 256
 1210 307 1220 348 1220 385 c 256
 1220 448 1191 462 1177 462 c 258
 825 462 l 257
 825 560 l 257
 1139 560 l 258
 1220 560 1330 539 1330 385 c 256
 1330 272 1275 211 1183 211 c 256
EndSplineSet
Layer: 2
SplineSet
209 -24 m 256
 104 -24 42 90 42 245 c 256
 42 450 131 573 294 573 c 256
 399 573 516 502 516 340 c 258
 516 0 l 257
 415 1 l 257
 415 339 l 258
 415 427 359 476 294 476 c 256
 188 476 144 378 144 255 c 256
 144 158 161 74 209 74 c 256
 255 74 264 139 264 178 c 256
 264 246 236 281 210 281 c 256
 167 281 147 235 150 167 c 257
 91 196 l 257
 91 259 134 362 219 362 c 256
 294 362 362 297 362 174 c 256
 362 53 305 -24 209 -24 c 256
802 -23 m 256
 657 -23 646 74 646 180 c 258
 646 385 l 258
 645 445 617 472 584 472 c 256
 528 472 516 404 516 338 c 257
 443 368 l 257
 443 471 487 574 594 574 c 256
 698 574 748 487 748 382 c 258
 748 171 l 258
 748 116 750 75 802 75 c 256
 863 75 870 161 870 256 c 256
 870 445 825 462 825 462 c 257
 903 523 l 257
 958 464 976 401 976 255 c 256
 976 151 958 -23 802 -23 c 256
1183 211 m 256
 1084 211 1035 282 1035 373 c 256
 1035 472 1094 522 1184 522 c 257
 1179 462 l 257
 1147 462 1134 419 1134 383 c 256
 1134 350 1145 307 1178 307 c 256
 1210 307 1220 348 1220 385 c 256
 1220 448 1191 462 1177 462 c 258
 825 462 l 257
 825 560 l 257
 1139 560 l 258
 1220 560 1330 539 1330 385 c 256
 1330 272 1275 211 1183 211 c 256
EndSplineSet
EndChar

StartChar: tml_SUu
Encoding: 107 -1 107
GlifName: tml_S_U_u
Width: 1520
VWidth: 0
GlyphClass: 2
Flags: W
LayerCount: 3
Fore
SplineSet
209 -24 m 256
 104 -24 42 90 42 245 c 256
 42 450 131 573 294 573 c 256
 399 573 516 502 516 340 c 258
 516 0 l 257
 415 1 l 257
 415 339 l 258
 415 427 359 476 294 476 c 256
 188 476 144 378 144 255 c 256
 144 158 161 74 209 74 c 256
 255 74 264 139 264 178 c 256
 264 246 236 281 210 281 c 256
 167 281 147 235 150 167 c 257
 91 196 l 257
 91 259 134 362 219 362 c 256
 294 362 362 297 362 174 c 256
 362 53 305 -24 209 -24 c 256
  PathStart: -2
802 -23 m 256
 657 -23 646 74 646 180 c 258
 646 385 l 258
 645 445 617 472 584 472 c 256
 528 472 516 404 516 338 c 257
 443 368 l 257
 443 471 487 574 594 574 c 256
 698 574 748 487 748 382 c 258
 748 171 l 258
 748 116 750 75 802 75 c 256
 863 75 870 161 870 256 c 256
 870 445 825 462 825 462 c 257
 903 523 l 257
 958 464 976 401 976 255 c 256
 976 151 958 -23 802 -23 c 256
  PathStart: -2
1431 196 m 257
 1349 230 l 257
 1349 230 1400 315 1400 402 c 256
 1400 491 1346 562 1270 562 c 256
 1183 562 1129 470 1129 392 c 256
 1129 351 1150 316 1186 316 c 256
 1212 316 1227 344 1227 385 c 256
 1227 433 1204 462 1148 462 c 258
 825 462 l 257
 825 560 l 257
 1120 560 l 257
 1161 550 l 257
 1208 550 1334 526 1334 385 c 256
 1334 276 1277 218 1185 218 c 256
 1080 218 1029 293 1029 397 c 256
 1029 538 1124 645 1267 645 c 256
 1425 645 1490 523 1490 414 c 256
 1490 296 1431 196 1431 196 c 257
EndSplineSet
Layer: 2
SplineSet
209 -24 m 256
 104 -24 42 90 42 245 c 256
 42 450 131 573 294 573 c 256
 399 573 516 502 516 340 c 258
 516 0 l 257
 415 1 l 257
 415 339 l 258
 415 427 359 476 294 476 c 256
 188 476 144 378 144 255 c 256
 144 158 161 74 209 74 c 256
 255 74 264 139 264 178 c 256
 264 246 236 281 210 281 c 256
 167 281 147 235 150 167 c 257
 91 196 l 257
 91 259 134 362 219 362 c 256
 294 362 362 297 362 174 c 256
 362 53 305 -24 209 -24 c 256
802 -23 m 256
 657 -23 646 74 646 180 c 258
 646 385 l 258
 645 445 617 472 584 472 c 256
 528 472 516 404 516 338 c 257
 443 368 l 257
 443 471 487 574 594 574 c 256
 698 574 748 487 748 382 c 258
 748 171 l 258
 748 116 750 75 802 75 c 256
 863 75 870 161 870 256 c 256
 870 445 825 462 825 462 c 257
 903 523 l 257
 958 464 976 401 976 255 c 256
 976 151 958 -23 802 -23 c 256
1431 196 m 257
 1349 230 l 257
 1349 230 1400 315 1400 402 c 256
 1400 491 1346 562 1270 562 c 256
 1183 562 1129 470 1129 392 c 256
 1129 351 1150 316 1186 316 c 256
 1212 316 1227 344 1227 385 c 256
 1227 433 1204 462 1148 462 c 258
 825 462 l 257
 825 560 l 257
 1120 560 l 257
 1161 550 l 257
 1208 550 1334 526 1334 385 c 256
 1334 276 1277 218 1185 218 c 256
 1080 218 1029 293 1029 397 c 256
 1029 538 1124 645 1267 645 c 256
 1425 645 1490 523 1490 414 c 256
 1490 296 1431 196 1431 196 c 257
EndSplineSet
EndChar

StartChar: tml_Sa
Encoding: 108 3000 108
GlifName: tml_S_a
Width: 1018
VWidth: 0
GlyphClass: 2
Flags: W
AnchorPoint: "virama" 462 0 basechar 0
LayerCount: 3
Fore
SplineSet
209 -24 m 256
 104 -24 42 90 42 245 c 256
 42 450 131 573 294 573 c 256
 399 573 516 502 516 340 c 258
 516 0 l 257
 415 1 l 257
 415 339 l 258
 415 427 359 476 294 476 c 256
 188 476 144 378 144 255 c 256
 144 158 161 74 209 74 c 256
 255 74 264 139 264 178 c 256
 264 246 236 281 210 281 c 256
 167 281 147 235 150 167 c 257
 91 196 l 257
 91 259 134 362 219 362 c 256
 294 362 362 297 362 174 c 256
 362 53 305 -24 209 -24 c 256
  PathStart: -2
802 -23 m 256
 657 -23 646 74 646 180 c 258
 646 385 l 258
 645 445 617 472 584 472 c 256
 528 472 516 404 516 338 c 257
 443 368 l 257
 443 471 487 574 594 574 c 256
 698 574 748 487 748 382 c 258
 748 171 l 258
 748 116 750 75 802 75 c 256
 863 75 870 161 870 256 c 256
 870 445 781 530 781 530 c 257
 868 584 l 257
 923 525 976 401 976 255 c 256
 976 151 958 -23 802 -23 c 256
  PathStart: -2
EndSplineSet
Layer: 2
SplineSet
209 -24 m 256
 104 -24 42 90 42 245 c 256
 42 450 131 573 294 573 c 256
 399 573 516 502 516 340 c 258
 516 0 l 257
 415 1 l 257
 415 339 l 258
 415 427 359 476 294 476 c 256
 188 476 144 378 144 255 c 256
 144 158 161 74 209 74 c 256
 255 74 264 139 264 178 c 256
 264 246 236 281 210 281 c 256
 167 281 147 235 150 167 c 257
 91 196 l 257
 91 259 134 362 219 362 c 256
 294 362 362 297 362 174 c 256
 362 53 305 -24 209 -24 c 256
802 -23 m 256
 657 -23 646 74 646 180 c 258
 646 385 l 258
 645 445 617 472 584 472 c 256
 528 472 516 404 516 338 c 257
 443 368 l 257
 443 471 487 574 594 574 c 256
 698 574 748 487 748 382 c 258
 748 171 l 258
 748 116 750 75 802 75 c 256
 863 75 870 161 870 256 c 256
 870 445 781 530 781 530 c 257
 868 584 l 257
 923 525 976 401 976 255 c 256
 976 151 958 -23 802 -23 c 256
EndSplineSet
EndChar

StartChar: tml_Seven
Encoding: 109 3053 109
GlifName: tml_S_even
Width: 593
VWidth: 0
GlyphClass: 2
Flags: W
LayerCount: 3
Fore
SplineSet
209 -24 m 256
 104 -24 42 90 42 245 c 256
 42 442 135 560 291 560 c 257
 533 560 l 257
 533 1 l 257
 426 1 l 257
 426 462 l 257
 289 462 l 257
 190 462 144 370 144 255 c 256
 144 158 161 74 209 74 c 256
 255 74 264 139 264 178 c 256
 264 246 236 281 210 281 c 256
 167 281 147 235 150 167 c 257
 94 196 l 257
 94 269 137 362 221 362 c 256
 294 362 360 297 360 174 c 256
 360 53 303 -24 209 -24 c 256
EndSplineSet
Layer: 2
SplineSet
209 -24 m 256
 104 -24 42 90 42 245 c 256
 42 442 135 560 291 560 c 257
 533 560 l 257
 533 1 l 257
 426 1 l 257
 426 462 l 257
 289 462 l 257
 190 462 144 370 144 255 c 256
 144 158 161 74 209 74 c 256
 255 74 264 139 264 178 c 256
 264 246 236 281 210 281 c 256
 167 281 147 235 150 167 c 257
 94 196 l 257
 94 269 137 362 221 362 c 256
 294 362 360 297 360 174 c 256
 360 53 303 -24 209 -24 c 256
EndSplineSet
EndChar

StartChar: tml_Sha
Encoding: 110 2998 110
GlifName: tml_S_ha
Width: 803
VWidth: 0
GlyphClass: 2
Flags: W
AnchorPoint: "MatraI.alt1" 607.991 558 basechar 0
AnchorPoint: "virama" 401.991 0 basechar 0
AnchorPoint: "MatraIi.alt3" 662.991 542 basechar 0
AnchorPoint: "MatraU" 571.991 560 basechar 0
AnchorPoint: "MatraUu" 571.991 560 basechar 0
LayerCount: 3
Fore
SplineSet
41.9912 560 m 257
 148.991 560 l 257
 148.991 153 l 258
 148.991 108 163.991 83 193.991 83 c 256
 227.991 83 241.991 105 241.991 153 c 258
 241.991 560 l 257
 348.991 560 l 257
 348.991 153 l 258
 348.991 41 293.991 -17 191.991 -17 c 256
 94.9912 -17 41.9912 46 41.9912 153 c 258
 41.9912 560 l 257
241.991 462 m 257
 241.991 560 l 257
 563.991 560 l 257
 572.991 462 l 257
 241.991 462 l 257
436.991 143 m 258
 436.991 545 l 257
 541.991 545 l 257
 541.991 143 l 258
 541.991 95 572.991 86 589.991 86 c 256
 634.991 86 656.991 156 656.991 284 c 256
 656.991 427 629.991 463 567.991 462 c 257
 558.991 560 l 257
 680.991 560 761.991 521 760.991 284 c 256
 759.991 96 696.991 -15 586.991 -15 c 256
 515.991 -15 436.991 15 436.991 143 c 258
  PathStart: -2
EndSplineSet
Layer: 2
SplineSet
41.9912 560 m 257
 148.991 560 l 257
 148.991 153 l 258
 148.991 108 163.991 83 193.991 83 c 256
 227.991 83 241.991 105 241.991 153 c 258
 241.991 560 l 257
 348.991 560 l 257
 348.991 153 l 258
 348.991 41 293.991 -17 191.991 -17 c 256
 94.9912 -17 41.9912 46 41.9912 153 c 258
 41.9912 560 l 257
241.991 462 m 257
 241.991 560 l 257
 563.991 560 l 257
 572.991 462 l 257
 241.991 462 l 257
436.991 143 m 258
 436.991 545 l 257
 541.991 545 l 257
 541.991 143 l 258
 541.991 95 572.991 86 589.991 86 c 256
 634.991 86 656.991 156 656.991 284 c 256
 656.991 427 629.991 463 567.991 462 c 257
 558.991 560 l 257
 680.991 560 761.991 521 760.991 284 c 256
 759.991 96 696.991 -15 586.991 -15 c 256
 515.991 -15 436.991 15 436.991 143 c 258
EndSplineSet
EndChar

StartChar: tml_Shree
Encoding: 111 -1 111
GlifName: tml_S_hree
Width: 1430
VWidth: 0
GlyphClass: 2
Flags: W
LayerCount: 3
Fore
SplineSet
710 578 m 256
 815 578 850 493 855 402 c 257
 799 383 l 257
 799 440 774 478 731 478 c 256
 697 478 665 454 665 394 c 258
 665 1 l 257
 558 1 l 257
 558 429 l 258
 558 528 622 578 710 578 c 256
  PathStart: -2
799 1 m 257
 799 414 l 257
 839 560 l 257
 1266 559 l 257
 1266 460 l 257
 1166 461 l 257
 1166 1 l 257
 1059 1 l 257
 1059 462 l 257
 906 462 l 257
 906 1 l 257
 799 1 l 257
298 1 m 257
 298 560 l 257
 405 560 l 257
 405 99 l 257
 665 99 l 257
 665 1 l 257
 298 1 l 257
720 -271 m 256
 360 -271 42 -107 42 242 c 256
 42 388 90 510 138 572 c 257
 227 527 l 257
 218 514 146 417 146 252 c 256
 146 -64 431 -168 716 -168 c 256
 989 -168 1285 -84 1285 137 c 256
 1285 208 1261 267 1214 267 c 256
 1178 267 1166 231 1166 204 c 257
 1117 235 l 257
 1117 308 1163 358 1233 358 c 256
 1323 358 1387 274 1387 138 c 256
 1387 -147 1077 -271 720 -271 c 256
1196 465 m 256
 1129 465 1017 517 1017 664 c 256
 1017 831 1137 901 1250 900 c 256
 1352 899 1400 828 1400 736 c 256
 1400 614 1330 588 1276 588 c 256
 1208 588 1152 627 1151 726 c 256
 1151 795 1202 853 1239 879 c 257
 1275 804 l 257
 1249 804 1233 766 1233 734 c 256
 1233 682 1252 662 1277 662 c 256
 1303 662 1316 691 1316 736 c 256
 1316 762 1310 804 1274 804 c 256
 1178 804 1121 761 1121 663 c 256
 1121 598 1152 559 1196 558 c 256
 1196 465 l 256
EndSplineSet
Layer: 2
SplineSet
710 578 m 256
 815 578 850 493 855 402 c 257
 799 383 l 257
 799 440 774 478 731 478 c 256
 697 478 665 454 665 394 c 258
 665 1 l 257
 558 1 l 257
 558 429 l 258
 558 528 622 578 710 578 c 256
799 1 m 257
 799 414 l 257
 839 560 l 257
 1266 559 l 257
 1266 460 l 257
 1166 461 l 257
 1166 1 l 257
 1059 1 l 257
 1059 462 l 257
 906 462 l 257
 906 1 l 257
 799 1 l 257
298 1 m 257
 298 560 l 257
 405 560 l 257
 405 99 l 257
 665 99 l 257
 665 1 l 257
 298 1 l 257
720 -271 m 256
 360 -271 42 -107 42 242 c 256
 42 388 90 510 138 572 c 257
 227 527 l 257
 218 514 146 417 146 252 c 256
 146 -64 431 -168 716 -168 c 256
 989 -168 1285 -84 1285 137 c 256
 1285 208 1261 267 1214 267 c 256
 1178 267 1166 231 1166 204 c 257
 1117 235 l 257
 1117 308 1163 358 1233 358 c 256
 1323 358 1387 274 1387 138 c 256
 1387 -147 1077 -271 720 -271 c 256
1196 465 m 256
 1129 465 1017 517 1017 664 c 256
 1017 831 1137 901 1250 900 c 256
 1352 899 1400 828 1400 736 c 256
 1400 614 1330 588 1276 588 c 256
 1208 588 1152 627 1151 726 c 256
 1151 795 1202 853 1239 879 c 257
 1275 804 l 257
 1249 804 1233 766 1233 734 c 256
 1233 682 1252 662 1277 662 c 256
 1303 662 1316 691 1316 736 c 256
 1316 762 1310 804 1274 804 c 256
 1178 804 1121 761 1121 663 c 256
 1121 598 1152 559 1196 558 c 256
 1196 465 l 256
EndSplineSet
EndChar

StartChar: tml_Six
Encoding: 112 3052 112
GlifName: tml_S_ix
Width: 921
VWidth: 0
GlyphClass: 2
Flags: W
LayerCount: 3
Fore
SplineSet
229 -13 m 256
 94 -13 42 75 42 172 c 256
 42 271 106 341 224 341 c 258
 450 341 l 258
 548 341 587 240 587 204 c 257
 490 180 l 257
 490 212 481 244 450 244 c 258
 224 244 l 258
 171 244 142 212 142 167 c 256
 142 124 178 85 229 85 c 256
 294 85 320 140 320 207 c 258
 320 289 l 257
 330 301 l 257
 330 461 l 257
 235 461 l 257
 235 309 l 257
 151 309 l 257
 151 560 l 257
 530 560 l 257
 530 461 l 257
 427 461 l 257
 427 207 l 258
 427 103 387 -13 229 -13 c 256
490 0 m 257
 490 183 l 258
 490 265 541 341 662 341 c 258
 879 341 l 257
 879 244 l 257
 779 244 l 257
 779 0 l 257
 682 0 l 257
 682 245 l 257
 636 245 587 234 587 164 c 258
 587 0 l 257
 490 0 l 257
EndSplineSet
Layer: 2
SplineSet
229 -13 m 256
 94 -13 42 75 42 172 c 256
 42 271 106 341 224 341 c 258
 450 341 l 258
 548 341 587 240 587 204 c 257
 490 180 l 257
 490 212 481 244 450 244 c 258
 224 244 l 258
 171 244 142 212 142 167 c 256
 142 124 178 85 229 85 c 256
 294 85 320 140 320 207 c 258
 320 289 l 257
 330 301 l 257
 330 461 l 257
 235 461 l 257
 235 309 l 257
 151 309 l 257
 151 560 l 257
 530 560 l 257
 530 461 l 257
 427 461 l 257
 427 207 l 258
 427 103 387 -13 229 -13 c 256
490 0 m 257
 490 183 l 258
 490 265 541 341 662 341 c 258
 879 341 l 257
 879 244 l 257
 779 244 l 257
 779 0 l 257
 682 0 l 257
 682 245 l 257
 636 245 587 234 587 164 c 258
 587 0 l 257
 490 0 l 257
EndSplineSet
EndChar

StartChar: tml_SsU
Encoding: 113 -1 113
GlifName: tml_S_sU_
Width: 1402
VWidth: 0
GlyphClass: 2
Flags: W
LayerCount: 3
Fore
SplineSet
1225 211 m 256
 1126 211 1077 282 1077 373 c 256
 1077 472 1136 522 1226 522 c 257
 1221 462 l 257
 1189 462 1176 419 1176 383 c 256
 1176 350 1187 307 1220 307 c 256
 1252 307 1262 348 1262 385 c 256
 1262 448 1233 462 1219 462 c 258
 1031 462 l 257
 1031 452 l 257
 924 452 l 257
 924 560 l 257
 1181 560 l 258
 1262 560 1372 539 1372 385 c 256
 1372 272 1317 211 1225 211 c 256
EndSplineSet
Refer: 115 2999 N 1 0 0 1 12 0 2
Layer: 2
SplineSet
1225 211 m 256
 1126 211 1077 282 1077 373 c 256
 1077 472 1136 522 1226 522 c 257
 1221 462 l 257
 1189 462 1176 419 1176 383 c 256
 1176 350 1187 307 1220 307 c 256
 1252 307 1262 348 1262 385 c 256
 1262 448 1233 462 1219 462 c 258
 1031 462 l 257
 1031 452 l 257
 924 452 l 257
 924 560 l 257
 1181 560 l 258
 1262 560 1372 539 1372 385 c 256
 1372 272 1317 211 1225 211 c 256
EndSplineSet
Refer: 115 2999 N 1 0 0 1 12 0 2
EndChar

StartChar: tml_SsUu
Encoding: 114 -1 114
GlifName: tml_S_sU_u
Width: 1568
VWidth: 0
GlyphClass: 2
Flags: W
LayerCount: 3
Fore
SplineSet
1479 196 m 257
 1397 230 l 257
 1397 230 1448 315 1448 402 c 256
 1448 491 1394 562 1318 562 c 256
 1231 562 1177 470 1177 392 c 256
 1177 351 1198 316 1234 316 c 256
 1260 316 1275 344 1275 385 c 256
 1275 433 1252 462 1196 462 c 258
 1031 462 l 257
 1031 452 l 257
 924 452 l 257
 924 560 l 257
 1168 560 l 257
 1209 550 l 257
 1256 550 1382 526 1382 385 c 256
 1382 276 1325 218 1233 218 c 256
 1128 218 1077 293 1077 397 c 256
 1077 538 1172 645 1315 645 c 256
 1473 645 1538 523 1538 414 c 256
 1538 296 1479 196 1479 196 c 257
EndSplineSet
Refer: 115 2999 N 1 0 0 1 12 0 2
Layer: 2
SplineSet
1479 196 m 257
 1397 230 l 257
 1397 230 1448 315 1448 402 c 256
 1448 491 1394 562 1318 562 c 256
 1231 562 1177 470 1177 392 c 256
 1177 351 1198 316 1234 316 c 256
 1260 316 1275 344 1275 385 c 256
 1275 433 1252 462 1196 462 c 258
 1031 462 l 257
 1031 452 l 257
 924 452 l 257
 924 560 l 257
 1168 560 l 257
 1209 550 l 257
 1256 550 1382 526 1382 385 c 256
 1382 276 1325 218 1233 218 c 256
 1128 218 1077 293 1077 397 c 256
 1077 538 1172 645 1315 645 c 256
 1473 645 1538 523 1538 414 c 256
 1538 296 1479 196 1479 196 c 257
EndSplineSet
Refer: 115 2999 N 1 0 0 1 12 0 2
EndChar

StartChar: tml_Ssa
Encoding: 115 2999 115
GlifName: tml_S_sa
Width: 1079
VWidth: 0
GlyphClass: 2
Flags: W
AnchorPoint: "MatraIi.alt1" 777 552 basechar 0
AnchorPoint: "MatraI.alt8" 815 510 basechar 0
AnchorPoint: "virama" 562 0 basechar 0
LayerCount: 3
Fore
SplineSet
42 245 m 256
 42 448 135 573 291 573 c 256
 426 573 520 452 520 279 c 256
 520 144 479 59 479 59 c 257
 390 81 l 257
 408 121 421 182 421 263 c 256
 421 389 370 476 291 476 c 256
 191 476 144 376 144 255 c 256
 144 158 161 74 209 74 c 256
 255 74 264 139 264 178 c 256
 264 246 236 281 210 281 c 256
 167 281 147 235 150 167 c 257
 66 216 l 257
 66 272 126 362 211 362 c 256
 292 362 366 297 366 174 c 256
 366 53 307 -24 209 -24 c 256
 104 -24 42 90 42 245 c 256
  PathStart: -2
834 -146 m 257
 727 -146 l 257
 727 428 l 258
 727 450 721 475 696 475 c 256
 673 475 654 452 654 401 c 256
 654 360 666 256 784 256 c 256
 890 256 911 308 912 379 c 256
 967 376 l 256
 967 271 940 155 780 155 c 256
 662 155 553 240 551 410 c 256
 550 514 617 573 692 573 c 256
 815 573 835 483 834 418 c 258
 834 -146 l 257
390 0 m 257
 390 81 l 257
 497 99 l 257
 912 99 l 257
 912 473 l 257
 1019 473 l 257
 1019 0 l 257
 390 0 l 257
EndSplineSet
Layer: 2
SplineSet
42 245 m 256
 42 448 135 573 291 573 c 256
 426 573 520 452 520 279 c 256
 520 144 479 59 479 59 c 257
 390 81 l 257
 408 121 421 182 421 263 c 256
 421 389 370 476 291 476 c 256
 191 476 144 376 144 255 c 256
 144 158 161 74 209 74 c 256
 255 74 264 139 264 178 c 256
 264 246 236 281 210 281 c 256
 167 281 147 235 150 167 c 257
 66 216 l 257
 66 272 126 362 211 362 c 256
 292 362 366 297 366 174 c 256
 366 53 307 -24 209 -24 c 256
 104 -24 42 90 42 245 c 256
834 -146 m 257
 727 -146 l 257
 727 428 l 258
 727 450 721 475 696 475 c 256
 673 475 654 452 654 401 c 256
 654 360 666 256 784 256 c 256
 890 256 911 308 912 379 c 256
 967 376 l 256
 967 271 940 155 780 155 c 256
 662 155 553 240 551 410 c 256
 550 514 617 573 692 573 c 256
 815 573 835 483 834 418 c 258
 834 -146 l 257
390 0 m 257
 390 81 l 257
 497 99 l 257
 912 99 l 257
 912 473 l 257
 1019 473 l 257
 1019 0 l 257
 390 0 l 257
EndSplineSet
EndChar

StartChar: tml_TU
Encoding: 116 -1 116
GlifName: tml_T_U_
Width: 842
VWidth: 0
GlyphClass: 2
Flags: W
LayerCount: 3
Fore
SplineSet
305 -349 m 256
 147 -349 43 -271 43 -189 c 256
 43 -120 87 -54 170 -54 c 258
 675 -54 l 257
 675 573 l 257
 782 573 l 257
 782 -151 l 257
 195 -149 l 258
 160 -149 150 -167 150 -189 c 256
 150 -205 169 -252 305 -252 c 256
 423 -252 516 -143 516 47 c 256
 516 139 490 241 400 242 c 258
 203 244 l 258
 162 244 142 214 142 175 c 256
 142 123 173 96 224 96 c 256
 289 96 320 140 320 207 c 258
 320 289 l 257
 330 301 l 257
 330 464 l 257
 235 464 l 257
 235 309 l 257
 151 309 l 257
 151 560 l 257
 530 560 l 257
 530 464 l 257
 427 464 l 257
 427 207 l 258
 427 100 387 1 224 1 c 256
 94 1 43 75 42 175 c 256
 41 268 96 341 184 341 c 258
 403 341 l 258
 550 341 615 199 615 46 c 256
 615 -127 538 -349 305 -349 c 256
EndSplineSet
PickledDataWithLists: "(dp1
S'com.typemytype.robofont.layerData'
p2
(dp3
S'background'
p4
(dp5
S'name'
p6
S'tml_TU'
p7
sS'lib'
p8
(dp9
sS'unicodes'
p10
(lp11
sS'width'
p12
I800
sS'contours'
p13
(lp14
(dp15
S'points'
p16
(lp17
(dp18
S'y'
I239
sS'x'
I603
sS'smooth'
p19
I00
sa(dp20
S'y'
I341
sS'x'
I538
sg19
I00
sa(dp21
S'segmentType'
p22
S'curve'
p23
sS'x'
I391
sg19
I01
sS'y'
I341
sa(dp24
g22
S'line'
p25
sS'x'
I172
sg19
I01
sS'y'
I341
sa(dp26
S'y'
I341
sS'x'
I84
sg19
I00
sa(dp27
S'y'
I268
sS'x'
I29
sg19
I00
sa(dp28
g22
S'curve'
p29
sS'x'
I30
sg19
I01
sS'y'
I175
sa(dp30
S'y'
I75
sS'x'
I31
sg19
I00
sa(dp31
S'y'
I1
sS'x'
I82
sg19
I00
sa(dp32
g22
S'curve'
p33
sS'x'
I212
sg19
I01
sS'y'
I1
sa(dp34
S'y'
I1
sS'x'
I375
sg19
I00
sa(dp35
S'y'
I100
sS'x'
I415
sg19
I00
sa(dp36
g22
S'curve'
p37
sS'x'
I415
sg19
I01
sS'y'
I207
sa(dp38
g22
S'line'
p39
sS'x'
I415
sg19
I00
sS'y'
I464
sa(dp40
g22
S'line'
p41
sS'x'
I518
sg19
I00
sS'y'
I464
sa(dp42
g22
S'line'
p43
sS'x'
I518
sg19
I00
sS'y'
I560
sa(dp44
g22
S'line'
p45
sS'x'
I139
sg19
I00
sS'y'
I560
sa(dp46
g22
S'line'
p47
sS'x'
I139
sg19
I00
sS'y'
I309
sa(dp48
g22
S'line'
p49
sS'x'
I223
sg19
I00
sS'y'
I309
sa(dp50
g22
S'line'
p51
sS'x'
I223
sg19
I00
sS'y'
I464
sa(dp52
g22
S'line'
p53
sS'x'
I318
sg19
I00
sS'y'
I464
sa(dp54
g22
S'line'
p55
sS'x'
I318
sg19
I00
sS'y'
I301
sa(dp56
g22
S'line'
p57
sS'x'
I308
sg19
I00
sS'y'
I289
sa(dp58
g22
S'line'
p59
sS'x'
I308
sg19
I01
sS'y'
I207
sa(dp60
S'y'
I140
sS'x'
I308
sg19
I00
sa(dp61
S'y'
I96
sS'x'
I277
sg19
I00
sa(dp62
g22
S'curve'
p63
sS'x'
I212
sg19
I01
sS'y'
I96
sa(dp64
S'y'
I96
sS'x'
I161
sg19
I00
sa(dp65
S'y'
I123
sS'x'
I130
sg19
I00
sa(dp66
g22
S'curve'
p67
sS'x'
I130
sg19
I01
sS'y'
I175
sa(dp68
S'y'
I214
sS'x'
I130
sg19
I00
sa(dp69
S'y'
I244
sS'x'
I150
sg19
I00
sa(dp70
g22
S'curve'
p71
sS'x'
I191
sg19
I01
sS'y'
I244
sa(dp72
g22
S'line'
p73
sS'x'
I388
sg19
I01
sS'y'
I242
sa(dp74
S'y'
I241
sS'x'
I478
sg19
I00
sa(dp75
S'y'
I179
sS'x'
I504
sg19
I00
sa(dp76
g22
S'curve'
p77
sS'x'
I504
sg19
I00
sS'y'
I87
sa(dp78
S'y'
I-103
sS'x'
I504
sg19
I00
sa(dp79
S'y'
I-252
sS'x'
I421
sg19
I00
sa(dp80
g22
S'curve'
p81
sS'x'
I303
sg19
I01
sS'y'
I-252
sa(dp82
S'y'
I-252
sS'x'
I154
sg19
I00
sa(dp83
S'y'
I-215
sS'x'
I138
sg19
I00
sa(dp84
g22
S'curve'
p85
sS'x'
I138
sg19
I01
sS'y'
I-199
sa(dp86
S'y'
I-177
sS'x'
I138
sg19
I00
sa(dp87
S'y'
I-169
sS'x'
I155
sg19
I00
sa(dp88
g22
S'curve'
p89
sS'x'
I173
sg19
I00
sS'y'
I-169
sa(dp90
g22
S'line'
p91
sS'x'
I889
sg19
I00
sS'y'
I-171
sa(dp92
g22
S'line'
p93
sS'x'
I889
sg19
I00
sS'y'
I573
sa(dp94
g22
S'line'
p95
sS'x'
I782
sg19
I00
sS'y'
I573
sa(dp96
g22
S'line'
p97
sS'x'
I782
sg19
I00
sS'y'
I-74
sa(dp98
g22
S'line'
p99
sS'x'
I158
sg19
I00
sS'y'
I-74
sa(dp100
S'y'
I-74
sS'x'
I82
sg19
I00
sa(dp101
S'y'
I-124
sS'x'
I31
sg19
I00
sa(dp102
g22
S'curve'
p103
sS'x'
I31
sg19
I01
sS'y'
I-193
sa(dp104
S'y'
I-275
sS'x'
I31
sg19
I00
sa(dp105
S'y'
I-349
sS'x'
I145
sg19
I00
sa(dp106
g22
S'curve'
p107
sS'x'
I303
sg19
I01
sS'y'
I-349
sa(dp108
S'y'
I-349
sS'x'
I536
sg19
I00
sa(dp109
S'y'
I-87
sS'x'
I603
sg19
I00
sa(dp110
g22
S'curve'
p111
sS'x'
I603
sg19
I00
sS'y'
I86
sasasS'components'
p112
(lp113
sS'anchors'
p114
(lp115
sss."
Layer: 2
SplineSet
305 -349 m 256
 147 -349 43 -271 43 -189 c 256
 43 -120 87 -54 170 -54 c 258
 675 -54 l 257
 675 573 l 257
 782 573 l 257
 782 -151 l 257
 195 -149 l 258
 160 -149 150 -167 150 -189 c 256
 150 -205 169 -252 305 -252 c 256
 423 -252 516 -143 516 47 c 256
 516 139 490 241 400 242 c 258
 203 244 l 258
 162 244 142 214 142 175 c 256
 142 123 173 96 224 96 c 256
 289 96 320 140 320 207 c 258
 320 289 l 257
 330 301 l 257
 330 464 l 257
 235 464 l 257
 235 309 l 257
 151 309 l 257
 151 560 l 257
 530 560 l 257
 530 464 l 257
 427 464 l 257
 427 207 l 258
 427 100 387 1 224 1 c 256
 94 1 43 75 42 175 c 256
 41 268 96 341 184 341 c 258
 403 341 l 258
 550 341 615 199 615 46 c 256
 615 -127 538 -349 305 -349 c 256
EndSplineSet
EndChar

StartChar: tml_TUu
Encoding: 117 -1 117
GlifName: tml_T_U_u
Width: 1097
VWidth: 0
GlyphClass: 2
Flags: W
LayerCount: 3
Fore
SplineSet
880 -13 m 257
 880 476 l 257
 765 476 l 257
 765 573 l 257
 1087 573 l 257
 1087 476 l 257
 987 476 l 257
 987 -13 l 257
 880 -13 l 257
EndSplineSet
Refer: 116 -1 N 1 0 0 1 11.9989 0 2
Layer: 2
SplineSet
880 -13 m 257
 880 476 l 257
 765 476 l 257
 765 573 l 257
 1087 573 l 257
 1087 476 l 257
 987 476 l 257
 987 -13 l 257
 880 -13 l 257
EndSplineSet
Refer: 116 -1 N 1 0 0 1 11.9989 0 2
EndChar

StartChar: tml_Ta
Encoding: 118 2980 118
GlifName: tml_T_a
Width: 657
VWidth: 0
GlyphClass: 2
Flags: W
AnchorPoint: "MatraI.alt2" 455 560 basechar 0
AnchorPoint: "MatraIi" 475 560 basechar 0
AnchorPoint: "MatraI.stylalt1" 127 275 basechar 0
AnchorPoint: "virama" 380 0 basechar 0
AnchorPoint: "MatraIi.stylalt1" 130 280 basechar 0
AnchorPoint: "MatraI.alt1" 450 560 basechar 0
LayerCount: 3
Fore
SplineSet
242 -158 m 258
 154 -158 164 -197 163 -236 c 257
 53 -236 l 257
 54 -129 96 -61 236 -61 c 258
 340 -61 l 258
 448 -60 516 14 516 87 c 256
 516 179 490 241 400 242 c 258
 203 244 l 258
 162 244 142 214 142 175 c 256
 142 123 173 96 224 96 c 256
 289 96 320 140 320 207 c 258
 320 289 l 257
 330 301 l 257
 330 464 l 257
 235 464 l 257
 235 309 l 257
 151 309 l 257
 151 560 l 257
 530 560 l 257
 530 464 l 257
 427 464 l 257
 427 207 l 258
 427 100 387 1 224 1 c 256
 94 1 43 75 42 175 c 256
 41 268 96 341 184 341 c 258
 403 341 l 258
 550 341 615 239 615 86 c 256
 615 -35 501 -156 346 -157 c 258
 242 -158 l 258
EndSplineSet
Layer: 2
SplineSet
242 -158 m 258
 154 -158 164 -197 163 -236 c 257
 53 -236 l 257
 54 -129 96 -61 236 -61 c 258
 340 -61 l 258
 448 -60 516 14 516 87 c 256
 516 179 490 241 400 242 c 258
 203 244 l 258
 162 244 142 214 142 175 c 256
 142 123 173 96 224 96 c 256
 289 96 320 140 320 207 c 258
 320 289 l 257
 330 301 l 257
 330 464 l 257
 235 464 l 257
 235 309 l 257
 151 309 l 257
 151 560 l 257
 530 560 l 257
 530 464 l 257
 427 464 l 257
 427 207 l 258
 427 100 387 1 224 1 c 256
 94 1 43 75 42 175 c 256
 41 268 96 341 184 341 c 258
 403 341 l 258
 550 341 615 239 615 86 c 256
 615 -35 501 -156 346 -157 c 258
 242 -158 l 258
EndSplineSet
EndChar

StartChar: tml_Ten
Encoding: 119 3056 119
GlifName: tml_T_en
Width: 757
VWidth: 0
GlyphClass: 2
Flags: W
LayerCount: 3
Fore
SplineSet
329 291 m 257
 425 292 l 257
 429 148 448 88 523 90 c 256
 586 91 607 184 607 291 c 256
 607 382 579 475 499 475 c 256
 467 475 440 453 406 419 c 257
 336 499 l 257
 365 525 421 575 506 575 c 256
 657 575 715 429 715 261 c 256
 715 94 643 -10 524 -10 c 256
 369 -10 334 94 329 291 c 257
  PathStart: -2
42 234 m 256
 42 364 95 470 135 550 c 257
 233 508 l 257
 210 464 150 366 150 254 c 256
 150 147 174 87 239 87 c 256
 302 87 333 140 329 291 c 257
 424 292 l 257
 431 88 388 -17 233 -17 c 256
 114 -17 42 67 42 234 c 256
  PathStart: -2
EndSplineSet
Layer: 2
SplineSet
329 291 m 257
 425 292 l 257
 429 148 448 88 523 90 c 256
 586 91 607 184 607 291 c 256
 607 382 579 475 499 475 c 256
 467 475 440 453 406 419 c 257
 336 499 l 257
 365 525 421 575 506 575 c 256
 657 575 715 429 715 261 c 256
 715 94 643 -10 524 -10 c 256
 369 -10 334 94 329 291 c 257
42 234 m 256
 42 364 95 470 135 550 c 257
 233 508 l 257
 210 464 150 366 150 254 c 256
 150 147 174 87 239 87 c 256
 302 87 333 140 329 291 c 257
 424 292 l 257
 431 88 388 -17 233 -17 c 256
 114 -17 42 67 42 234 c 256
EndSplineSet
EndChar

StartChar: tml_Thousand
Encoding: 120 3058 120
GlifName: tml_T_housand
Width: 939
VWidth: 0
GlyphClass: 2
Flags: W
LayerCount: 3
Fore
SplineSet
643 -81 m 258
 699 -81 l 258
 779 -80 801 -26 801 19 c 256
 801 90 764 118 692 118 c 258
 586 118 l 258
 551 118 539 99 539 73 c 256
 539 52 558 36 586 36 c 256
 626 36 634 62 634 102 c 258
 634 246 l 257
 733 246 l 257
 732 96 l 258
 732 25 703 -52 587 -51 c 256
 480 -51 445 23 445 73 c 256
 445 126 486 205 570 205 c 258
 683 205 l 258
 742 205 897 208 897 21 c 256
 897 -75 842 -170 713 -170 c 258
 661 -170 l 258
 589 -170 598 -221 598 -237 c 257
 493 -237 l 257
 493 -191 502 -83 643 -81 c 258
  PathStart: -2
498 341 m 257
 823 341 l 257
 823 244 l 257
 498 244 l 257
 498 341 l 257
EndSplineSet
Refer: 10 2970 N 1 0 0 1 12 0 2
Layer: 2
SplineSet
643 -81 m 258
 699 -81 l 258
 779 -80 801 -26 801 19 c 256
 801 90 764 118 692 118 c 258
 586 118 l 258
 551 118 539 99 539 73 c 256
 539 52 558 36 586 36 c 256
 626 36 634 62 634 102 c 258
 634 246 l 257
 733 246 l 257
 732 96 l 258
 732 25 703 -52 587 -51 c 256
 480 -51 445 23 445 73 c 256
 445 126 486 205 570 205 c 258
 683 205 l 258
 742 205 897 208 897 21 c 256
 897 -75 842 -170 713 -170 c 258
 661 -170 l 258
 589 -170 598 -221 598 -237 c 257
 493 -237 l 257
 493 -191 502 -83 643 -81 c 258
498 341 m 257
 823 341 l 257
 823 244 l 257
 498 244 l 257
 498 341 l 257
EndSplineSet
Refer: 10 2970 N 1 0 0 1 12 0 2
EndChar

StartChar: tml_Three
Encoding: 121 3049 121
GlifName: tml_T_hree
Width: 767
VWidth: 0
GlyphClass: 2
Flags: W
LayerCount: 3
Fore
SplineSet
60 0 m 257
 60 560 l 257
 470 560 l 257
 470 462 l 257
 368 462 l 257
 368 164 l 257
 260 164 l 257
 260 462 l 257
 167 462 l 257
 167 0 l 257
 60 0 l 257
258 98 m 257
 727 97 l 257
 727 -2 l 257
 258 -1 l 257
 258 98 l 257
328 98 m 257
 445 98 473 187 473 240 c 256
 473 283 454 317 417 317 c 256
 378 317 368 279 368 254 c 257
 319 285 l 257
 319 358 370 408 443 408 c 256
 521 408 578 352 578 257 c 256
 578 136 484 22 337 22 c 257
 328 98 l 257
EndSplineSet
Layer: 2
SplineSet
60 0 m 257
 60 560 l 257
 470 560 l 257
 470 462 l 257
 368 462 l 257
 368 164 l 257
 260 164 l 257
 260 462 l 257
 167 462 l 257
 167 0 l 257
 60 0 l 257
258 98 m 257
 727 97 l 257
 727 -2 l 257
 258 -1 l 257
 258 98 l 257
328 98 m 257
 445 98 473 187 473 240 c 256
 473 283 454 317 417 317 c 256
 378 317 368 279 368 254 c 257
 319 285 l 257
 319 358 370 408 443 408 c 256
 521 408 578 352 578 257 c 256
 578 136 484 22 337 22 c 257
 328 98 l 257
EndSplineSet
EndChar

StartChar: tml_TtI
Encoding: 122 -1 122
GlifName: tml_T_tI_
Width: 654
VWidth: 0
GlyphClass: 2
Flags: W
LayerCount: 3
Fore
SplineSet
438 45 m 256
 304 47 249 200 249 319 c 256
 249 471 308 572 426 573 c 256
 512 573 591 525 592 374 c 258
 594 -146 l 257
 486 -146 l 257
 485 393 l 258
 485 444 465 475 426 475 c 256
 379 475 347 417 347 319 c 256
 347 189 401 98 474 98 c 256
 438 45 l 256
EndSplineSet
Refer: 126 2975 N 1 0 0 1 30 0 2
Layer: 2
SplineSet
438 45 m 256
 304 47 249 200 249 319 c 256
 249 471 308 572 426 573 c 256
 512 573 591 525 592 374 c 258
 594 -146 l 257
 486 -146 l 257
 485 393 l 258
 485 444 465 475 426 475 c 256
 379 475 347 417 347 319 c 256
 347 189 401 98 474 98 c 256
 438 45 l 256
EndSplineSet
Refer: 126 2975 N 1 0 0 1 30 0 2
EndChar

StartChar: tml_TtIi
Encoding: 123 -1 123
GlifName: tml_T_tI_i
Width: 674
VWidth: 0
GlyphClass: 2
Flags: W
LayerCount: 3
Fore
SplineSet
249 205 m 256
 249 372 369 442 482 441 c 256
 584 440 632 369 632 277 c 256
 632 155 562 129 508 129 c 256
 440 129 384 168 383 267 c 256
 383 336 434 394 471 420 c 257
 507 345 l 257
 481 345 465 307 465 275 c 256
 465 223 484 203 509 203 c 256
 535 203 548 232 548 277 c 256
 548 303 542 345 506 345 c 256
 410 345 353 302 353 204 c 256
 353 139 384 100 428 99 c 256
 428 6 l 256
 361 6 249 58 249 205 c 256
EndSplineSet
Refer: 126 2975 N 1 0 0 1 30 0 2
Layer: 2
SplineSet
249 205 m 256
 249 372 369 442 482 441 c 256
 584 440 632 369 632 277 c 256
 632 155 562 129 508 129 c 256
 440 129 384 168 383 267 c 256
 383 336 434 394 471 420 c 257
 507 345 l 257
 481 345 465 307 465 275 c 256
 465 223 484 203 509 203 c 256
 535 203 548 232 548 277 c 256
 548 303 542 345 506 345 c 256
 410 345 353 302 353 204 c 256
 353 139 384 100 428 99 c 256
 428 6 l 256
 361 6 249 58 249 205 c 256
EndSplineSet
Refer: 126 2975 N 1 0 0 1 30 0 2
EndChar

StartChar: tml_TtU
Encoding: 124 -1 124
GlifName: tml_T_tU_
Width: 900
VWidth: 0
GlyphClass: 2
Flags: W
LayerCount: 3
Fore
SplineSet
434 560 m 257
 435 0 l 257
 327 0 l 257
 327 560 l 257
 434 560 l 257
375 -163 m 256
 516 -162 554 -34 554 104 c 256
 554 183 527 267 486 267 c 256
 444 267 435 229 435 204 c 257
 386 235 l 256
 386 308 434 358 498 358 c 256
 592 358 656 250 656 101 c 256
 656 -76 594 -268 375 -268 c 256
 169 -268 42 -84 42 249 c 256
 42 573 198 800 455 800 c 256
 742 800 840 611 840 338 c 257
 840 -13 l 257
 731 -13 l 257
 731 357 l 257
 731 596 612 692 455 690 c 256
 233 687 149 456 149 254 c 256
 149 -13 226 -164 375 -163 c 256
  PathStart: -2
EndSplineSet
Layer: 2
SplineSet
434 560 m 257
 435 0 l 257
 327 0 l 257
 327 560 l 257
 434 560 l 257
375 -163 m 256
 516 -162 554 -34 554 104 c 256
 554 183 527 267 486 267 c 256
 444 267 435 229 435 204 c 257
 386 235 l 256
 386 308 434 358 498 358 c 256
 592 358 656 250 656 101 c 256
 656 -76 594 -268 375 -268 c 256
 169 -268 42 -84 42 249 c 256
 42 573 198 800 455 800 c 256
 742 800 840 611 840 338 c 257
 840 -13 l 257
 731 -13 l 257
 731 357 l 257
 731 596 612 692 455 690 c 256
 233 687 149 456 149 254 c 256
 149 -13 226 -164 375 -163 c 256
EndSplineSet
EndChar

StartChar: tml_TtUu
Encoding: 125 -1 125
GlifName: tml_T_tU_u
Width: 796
VWidth: 0
GlyphClass: 2
Flags: W
LayerCount: 3
Fore
SplineSet
444 560 m 257
 445 0 l 257
 337 0 l 257
 337 560 l 257
 444 560 l 257
385 -268 m 256
 179 -268 42 -84 42 249 c 256
 42 603 218 800 455 800 c 256
 692 800 754 658 754 569 c 256
 754 466 704 404 630 404 c 256
 539 404 502 485 502 549 c 256
 502 615 541 690 624 690 c 256
 703 690 754 623 754 569 c 256
 754 516 703 476 658 466 c 257
 639 490 l 257
 660 495 673 517 673 551 c 256
 673 587 658 611 629 611 c 256
 602 611 586 587 586 552 c 256
 586 517 599 489 628 489 c 256
 669 489 683 536 683 567 c 256
 683 606 650 713 455 710 c 256
 250 707 149 516 149 254 c 256
 149 -13 236 -164 385 -163 c 256
 526 -162 564 -34 564 104 c 256
 564 183 537 267 496 267 c 256
 454 267 445 229 445 204 c 257
 396 235 l 256
 396 308 444 358 508 358 c 256
 602 358 666 250 666 101 c 256
 666 -76 604 -268 385 -268 c 256
EndSplineSet
Layer: 2
SplineSet
444 560 m 257
 445 0 l 257
 337 0 l 257
 337 560 l 257
 444 560 l 257
385 -268 m 256
 179 -268 42 -84 42 249 c 256
 42 603 218 800 455 800 c 256
 692 800 754 658 754 569 c 256
 754 466 704 404 630 404 c 256
 539 404 502 485 502 549 c 256
 502 615 541 690 624 690 c 256
 703 690 754 623 754 569 c 256
 754 516 703 476 658 466 c 257
 639 490 l 257
 660 495 673 517 673 551 c 256
 673 587 658 611 629 611 c 256
 602 611 586 587 586 552 c 256
 586 517 599 489 628 489 c 256
 669 489 683 536 683 567 c 256
 683 606 650 713 455 710 c 256
 250 707 149 516 149 254 c 256
 149 -13 236 -164 385 -163 c 256
 526 -162 564 -34 564 104 c 256
 564 183 537 267 496 267 c 256
 454 267 445 229 445 204 c 257
 396 235 l 256
 396 308 444 358 508 358 c 256
 602 358 666 250 666 101 c 256
 666 -76 604 -268 385 -268 c 256
EndSplineSet
EndChar

StartChar: tml_Tta
Encoding: 126 2975 126
GlifName: tml_T_ta
Width: 637
VWidth: 0
GlyphClass: 2
Flags: W
AnchorPoint: "virama" 360 0 basechar 0
LayerCount: 3
Fore
SplineSet
60 1 m 257
 60 560 l 257
 167 560 l 257
 167 99 l 257
 577 99 l 257
 577 1 l 257
 60 1 l 257
EndSplineSet
Layer: 2
SplineSet
60 1 m 257
 60 560 l 257
 167 560 l 257
 167 99 l 257
 577 99 l 257
 577 1 l 257
 60 1 l 257
EndSplineSet
EndChar

StartChar: tml_Two
Encoding: 127 3048 127
GlifName: tml_T_wo
Width: 558
VWidth: 0
GlyphClass: 2
Flags: W
LayerCount: 3
Fore
SplineSet
181 1 m 257
 92 0 48 46 48 108 c 256
 48 182 97 224 166 224 c 258
 226 224 l 258
 330 226 362 302 362 376 c 256
 362 447 323 512 243 512 c 256
 151 512 129 425 129 386 c 256
 129 355 143 333 173 333 c 256
 206 333 215 367 215 387 c 256
 215 419 197 438 173 438 c 256
 145 438 130 413 129 385 c 257
 75 397 l 257
 75 436 114 509 183 509 c 256
 229 509 302 481 302 381 c 256
 302 303 254 247 176 247 c 256
 92 247 42 313 42 402 c 256
 42 516 124 596 247 597 c 256
 380 598 459 501 459 371 c 256
 459 245 387 135 231 132 c 258
 165 131 l 258
 155 131 144 125 144 113 c 256
 144 99 159 96 174 96 c 257
 181 1 l 257
172 1 m 257
 168 96 l 257
 516 97 l 257
 516 1 l 257
 172 1 l 257
EndSplineSet
Layer: 2
SplineSet
181 1 m 257
 92 0 48 46 48 108 c 256
 48 182 97 224 166 224 c 258
 226 224 l 258
 330 226 362 302 362 376 c 256
 362 447 323 512 243 512 c 256
 151 512 129 425 129 386 c 256
 129 355 143 333 173 333 c 256
 206 333 215 367 215 387 c 256
 215 419 197 438 173 438 c 256
 145 438 130 413 129 385 c 257
 75 397 l 257
 75 436 114 509 183 509 c 256
 229 509 302 481 302 381 c 256
 302 303 254 247 176 247 c 256
 92 247 42 313 42 402 c 256
 42 516 124 596 247 597 c 256
 380 598 459 501 459 371 c 256
 459 245 387 135 231 132 c 258
 165 131 l 258
 155 131 144 125 144 113 c 256
 144 99 159 96 174 96 c 257
 181 1 l 257
172 1 m 257
 168 96 l 257
 516 97 l 257
 516 1 l 257
 172 1 l 257
EndSplineSet
EndChar

StartChar: tml_U
Encoding: 128 2953 128
GlifName: tml_U_
Width: 828
VWidth: 0
GlyphClass: 2
Flags: W
LayerCount: 3
Fore
SplineSet
786 96 m 257
 786 0 l 257
 181 0 l 258
 104 0 48 45 48 108 c 256
 48 175 98 224 171 224 c 258
 211 224 l 258
 335 224 377 302 377 376 c 256
 377 447 333 512 253 512 c 256
 161 512 139 425 139 386 c 256
 139 355 153 333 183 333 c 256
 216 333 225 367 225 387 c 256
 225 419 207 438 183 438 c 256
 155 438 140 413 139 385 c 257
 85 397 l 257
 85 436 124 509 193 509 c 256
 239 509 316 481 316 381 c 256
 316 303 264 247 186 247 c 256
 102 247 42 313 42 402 c 256
 42 516 134 596 257 597 c 256
 390 598 485 506 485 376 c 256
 485 250 397 135 241 132 c 258
 185 131 l 258
 163 131 154 125 154 113 c 256
 154 101 163 95 186 95 c 258
 786 96 l 257
EndSplineSet
Layer: 2
SplineSet
786 96 m 257
 786 0 l 257
 181 0 l 258
 104 0 48 45 48 108 c 256
 48 175 98 224 171 224 c 258
 211 224 l 258
 335 224 377 302 377 376 c 256
 377 447 333 512 253 512 c 256
 161 512 139 425 139 386 c 256
 139 355 153 333 183 333 c 256
 216 333 225 367 225 387 c 256
 225 419 207 438 183 438 c 256
 155 438 140 413 139 385 c 257
 85 397 l 257
 85 436 124 509 193 509 c 256
 239 509 316 481 316 381 c 256
 316 303 264 247 186 247 c 256
 102 247 42 313 42 402 c 256
 42 516 134 596 257 597 c 256
 390 598 485 506 485 376 c 256
 485 250 397 135 241 132 c 258
 185 131 l 258
 163 131 154 125 154 113 c 256
 154 101 163 95 186 95 c 258
 786 96 l 257
EndSplineSet
EndChar

StartChar: tml_Uu
Encoding: 129 2954 129
GlifName: tml_U_u
Width: 1198
VWidth: 0
GlyphClass: 2
Flags: W
LayerCount: 3
Fore
SplineSet
180 1 m 257
 92 0 48 46 48 108 c 256
 48 182 97 224 166 224 c 258
 226 224 l 258
 330 226 362 302 362 376 c 256
 362 447 323 512 243 512 c 256
 151 512 129 425 129 386 c 256
 129 355 143 333 173 333 c 256
 206 333 215 367 215 387 c 256
 215 419 197 438 173 438 c 256
 145 438 130 413 129 385 c 257
 75 397 l 257
 75 436 114 509 183 509 c 256
 229 509 302 481 302 381 c 256
 302 303 254 247 176 247 c 256
 92 247 42 313 42 402 c 256
 42 516 124 596 247 597 c 256
 380 598 459 501 459 371 c 256
 459 245 387 135 231 132 c 258
 165 131 l 258
 155 131 144 125 144 113 c 256
 144 99 159 96 173 96 c 257
 1156 97 l 257
 1156 1 l 257
 180 1 l 257
633 124 m 256
 554 124 511 208 511 325 c 256
 511 477 572 569 684 569 c 256
 781 569 855 467 855 317 c 256
 795 333 l 256
 795 431 743 488 690 488 c 256
 606 488 593 387 593 298 c 256
 593 249 604 209 635 209 c 256
 668 209 677 247 677 272 c 256
 677 325 654 341 636 341 c 256
 613 341 592 321 594 270 c 257
 547 287 l 257
 547 335 580 422 643 422 c 256
 700 422 750 363 750 271 c 256
 750 180 705 124 633 124 c 256
806 560 m 257
 1145 560 l 257
 1145 476 l 257
 1078 476 l 257
 1078 142 l 257
 988 142 l 257
 988 476 l 257
 886 476 l 257
 886 142 l 257
 795 142 l 257
 795 486 l 257
 806 489 l 257
 806 560 l 257
EndSplineSet
Layer: 2
SplineSet
180 1 m 257
 92 0 48 46 48 108 c 256
 48 182 97 224 166 224 c 258
 226 224 l 258
 330 226 362 302 362 376 c 256
 362 447 323 512 243 512 c 256
 151 512 129 425 129 386 c 256
 129 355 143 333 173 333 c 256
 206 333 215 367 215 387 c 256
 215 419 197 438 173 438 c 256
 145 438 130 413 129 385 c 257
 75 397 l 257
 75 436 114 509 183 509 c 256
 229 509 302 481 302 381 c 256
 302 303 254 247 176 247 c 256
 92 247 42 313 42 402 c 256
 42 516 124 596 247 597 c 256
 380 598 459 501 459 371 c 256
 459 245 387 135 231 132 c 258
 165 131 l 258
 155 131 144 125 144 113 c 256
 144 99 159 96 173 96 c 257
 1156 97 l 257
 1156 1 l 257
 180 1 l 257
633 124 m 256
 554 124 511 208 511 325 c 256
 511 477 572 569 684 569 c 256
 781 569 855 467 855 317 c 256
 795 333 l 256
 795 431 743 488 690 488 c 256
 606 488 593 387 593 298 c 256
 593 249 604 209 635 209 c 256
 668 209 677 247 677 272 c 256
 677 325 654 341 636 341 c 256
 613 341 592 321 594 270 c 257
 547 287 l 257
 547 335 580 422 643 422 c 256
 700 422 750 363 750 271 c 256
 750 180 705 124 633 124 c 256
806 560 m 257
 1145 560 l 257
 1145 476 l 257
 1078 476 l 257
 1078 142 l 257
 988 142 l 257
 988 476 l 257
 886 476 l 257
 886 142 l 257
 795 142 l 257
 795 486 l 257
 806 489 l 257
 806 560 l 257
EndSplineSet
EndChar

StartChar: tml_VUu
Encoding: 130 -1 130
GlifName: tml_V_U_u
Width: 925
VWidth: 0
GlyphClass: 2
Flags: W
LayerCount: 3
Fore
SplineSet
603 -153 m 257
 603 32 l 257
 712 33 l 257
 712 -153 l 257
 603 -153 l 257
271 -176 m 256
 271 -212 361 -251 507 -252 c 256
 644 -253 785 -198 785 -95 c 256
 785 -44 758 -22 736 -22 c 256
 723 -22 712 -30 712 -47 c 257
 656 5 l 257
 684 43 716 59 747 58 c 256
 814 58 883 9 883 -98 c 256
 883 -246 717 -350 507 -350 c 256
 310 -350 163 -271 163 -176 c 256
 163 -112 212 -59 313 -59 c 257
 480 -59 l 257
 480 -151 l 257
 313 -151 l 257
 287 -151 271 -158 271 -176 c 256
  PathStart: -2
EndSplineSet
Refer: 131 2997 N 1 0 0 1 12 0 2
Layer: 2
SplineSet
603 -153 m 257
 603 32 l 257
 712 33 l 257
 712 -153 l 257
 603 -153 l 257
271 -176 m 256
 271 -212 361 -251 507 -252 c 256
 644 -253 785 -198 785 -95 c 256
 785 -44 758 -22 736 -22 c 256
 723 -22 712 -30 712 -47 c 257
 656 5 l 257
 684 43 716 59 747 58 c 256
 814 58 883 9 883 -98 c 256
 883 -246 717 -350 507 -350 c 256
 310 -350 163 -271 163 -176 c 256
 163 -112 212 -59 313 -59 c 257
 480 -59 l 257
 480 -151 l 257
 313 -151 l 257
 287 -151 271 -158 271 -176 c 256
EndSplineSet
Refer: 131 2997 N 1 0 0 1 12 0 2
EndChar

StartChar: tml_Va
Encoding: 131 2997 131
GlifName: tml_V_a
Width: 772
VWidth: 0
GlyphClass: 2
Flags: W
AnchorPoint: "MatraIi" 675 559 basechar 0
AnchorPoint: "MatraI.alt3" 606 530 basechar 0
AnchorPoint: "virama" 425 0 basechar 0
AnchorPoint: "MatraU.alt1" 603 33 basechar 0
LayerCount: 3
Fore
SplineSet
42 245 m 256
 42 448 135 573 291 573 c 256
 428 573 526 455 524 280 c 256
 523 185 501 101 482 59 c 257
 391 84 l 257
 408 123 421 174 421 263 c 256
 421 389 369 476 289 476 c 256
 190 476 144 376 144 255 c 256
 144 158 161 74 209 74 c 256
 255 74 264 139 264 178 c 256
 264 246 236 281 210 281 c 256
 167 281 147 235 150 167 c 257
 94 196 l 257
 94 269 137 362 221 362 c 256
 294 362 360 297 360 174 c 256
 360 53 303 -24 209 -24 c 256
 104 -24 42 90 42 245 c 256
  PathStart: -2
391 84 m 257
 496 101 l 257
 605 101 l 257
 605 559 l 257
 712 559 l 257
 712 1 l 257
 391 1 l 257
 391 84 l 257
EndSplineSet
PickledDataWithLists: "(dp1
S'com.schriftgestaltung.Glyphs.rightMetricsKey'
p2
S'=tml_Pa'
p3
s."
Layer: 2
SplineSet
42 245 m 256
 42 448 135 573 291 573 c 256
 428 573 526 455 524 280 c 256
 523 185 501 101 482 59 c 257
 391 84 l 257
 408 123 421 174 421 263 c 256
 421 389 369 476 289 476 c 256
 190 476 144 376 144 255 c 256
 144 158 161 74 209 74 c 256
 255 74 264 139 264 178 c 256
 264 246 236 281 210 281 c 256
 167 281 147 235 150 167 c 257
 94 196 l 257
 94 269 137 362 221 362 c 256
 294 362 360 297 360 174 c 256
 360 53 303 -24 209 -24 c 256
 104 -24 42 90 42 245 c 256
391 84 m 257
 496 101 l 257
 605 101 l 257
 605 559 l 257
 712 559 l 257
 712 1 l 257
 391 1 l 257
 391 84 l 257
EndSplineSet
EndChar

StartChar: tml_Virama
Encoding: 132 3021 132
GlifName: tml_V_irama
Width: 0
VWidth: 0
GlyphClass: 2
Flags: W
AnchorPoint: "virama" 0 0 mark 0
LayerCount: 3
Fore
SplineSet
-74 710 m 256
 -74 750 -40 784 0 784 c 256
 40 784 74 750 74 710 c 256
 74 670 40 636 0 636 c 256
 -40 636 -74 670 -74 710 c 256
  PathStart: -2
EndSplineSet
PickledDataWithLists: "(dp1
S'com.typemytype.robofont.guides'
p2
(lp3
(dp4
S'y'
I710
sS'x'
I-183
sS'angle'
p5
I0
sS'isGlobal'
p6
I00
sas."
Layer: 2
SplineSet
-74 710 m 256
 -74 750 -40 784 0 784 c 256
 40 784 74 750 74 710 c 256
 74 670 40 636 0 636 c 256
 -40 636 -74 670 -74 710 c 256
EndSplineSet
EndChar

StartChar: tml_Visarga
Encoding: 133 2947 133
GlifName: tml_V_isarga
Width: 746
VWidth: 0
GlyphClass: 2
Flags: W
LayerCount: 3
Fore
SplineSet
505 282 m 256
 505 360 442 423 364 423 c 256
 285 423 222 360 222 282 c 256
 222 204 285 141 364 141 c 256
 442 141 505 204 505 282 c 256
  PathStart: -2
313 285 m 256
 313 313 336 336 365 336 c 256
 393 336 416 313 416 285 c 256
 416 256 393 233 365 233 c 256
 336 233 313 256 313 285 c 256
  PathStart: -2
704 -69 m 256
 704 9 641 72 563 72 c 256
 484 72 421 9 421 -69 c 256
 421 -147 484 -210 563 -210 c 256
 641 -210 704 -147 704 -69 c 256
  PathStart: -2
512 -66 m 256
 512 -38 535 -15 564 -15 c 256
 592 -15 615 -38 615 -66 c 256
 615 -95 592 -118 564 -118 c 256
 535 -118 512 -95 512 -66 c 256
  PathStart: -2
325 -69 m 256
 325 9 262 72 184 72 c 256
 105 72 42 9 42 -69 c 256
 42 -147 105 -210 184 -210 c 256
 262 -210 325 -147 325 -69 c 256
  PathStart: -2
133 -66 m 256
 133 -38 156 -15 185 -15 c 256
 213 -15 236 -38 236 -66 c 256
 236 -95 213 -118 185 -118 c 256
 156 -118 133 -95 133 -66 c 256
  PathStart: -2
EndSplineSet
Layer: 2
SplineSet
505 282 m 256
 505 360 442 423 364 423 c 256
 285 423 222 360 222 282 c 256
 222 204 285 141 364 141 c 256
 442 141 505 204 505 282 c 256
313 285 m 256
 313 313 336 336 365 336 c 256
 393 336 416 313 416 285 c 256
 416 256 393 233 365 233 c 256
 336 233 313 256 313 285 c 256
704 -69 m 256
 704 9 641 72 563 72 c 256
 484 72 421 9 421 -69 c 256
 421 -147 484 -210 563 -210 c 256
 641 -210 704 -147 704 -69 c 256
512 -66 m 256
 512 -38 535 -15 564 -15 c 256
 592 -15 615 -38 615 -66 c 256
 615 -95 592 -118 564 -118 c 256
 535 -118 512 -95 512 -66 c 256
325 -69 m 256
 325 9 262 72 184 72 c 256
 105 72 42 9 42 -69 c 256
 42 -147 105 -210 184 -210 c 256
 262 -210 325 -147 325 -69 c 256
133 -66 m 256
 133 -38 156 -15 185 -15 c 256
 213 -15 236 -38 236 -66 c 256
 236 -95 213 -118 185 -118 c 256
 156 -118 133 -95 133 -66 c 256
EndSplineSet
EndChar

StartChar: tml_YUu
Encoding: 134 -1 134
GlifName: tml_Y_U_u
Width: 823
VWidth: 0
GlyphClass: 2
Flags: W
LayerCount: 3
Fore
SplineSet
553 -153 m 257
 553 32 l 257
 662 33 l 257
 662 -153 l 257
 553 -153 l 257
221 -176 m 256
 221 -212 311 -251 457 -252 c 256
 594 -253 735 -198 735 -95 c 256
 735 -44 708 -22 686 -22 c 256
 673 -22 662 -30 662 -47 c 257
 606 5 l 257
 634 43 666 59 697 58 c 256
 764 58 833 9 833 -98 c 256
 833 -246 667 -350 457 -350 c 256
 260 -350 113 -271 113 -176 c 256
 113 -112 162 -59 263 -59 c 257
 430 -59 l 257
 430 -151 l 257
 263 -151 l 257
 237 -151 221 -158 221 -176 c 256
  PathStart: -2
EndSplineSet
Refer: 135 2991 N 1 0 0 1 12 0 2
Layer: 2
SplineSet
553 -153 m 257
 553 32 l 257
 662 33 l 257
 662 -153 l 257
 553 -153 l 257
221 -176 m 256
 221 -212 311 -251 457 -252 c 256
 594 -253 735 -198 735 -95 c 256
 735 -44 708 -22 686 -22 c 256
 673 -22 662 -30 662 -47 c 257
 606 5 l 257
 634 43 666 59 697 58 c 256
 764 58 833 9 833 -98 c 256
 833 -246 667 -350 457 -350 c 256
 260 -350 113 -271 113 -176 c 256
 113 -112 162 -59 263 -59 c 257
 430 -59 l 257
 430 -151 l 257
 263 -151 l 257
 237 -151 221 -158 221 -176 c 256
EndSplineSet
Refer: 135 2991 N 1 0 0 1 12 0 2
EndChar

StartChar: tml_Ya
Encoding: 135 2991 135
GlifName: tml_Y_a
Width: 720
VWidth: 0
GlyphClass: 2
Flags: W
AnchorPoint: "MatraIi" 623 560 basechar 0
AnchorPoint: "MatraI.alt3" 554 529 basechar 0
AnchorPoint: "virama" 342 0 basechar 0
AnchorPoint: "MatraU.alt1" 551 33 basechar 0
LayerCount: 3
Fore
SplineSet
194 -17 m 256
 106 -17 42 33 42 132 c 258
 42 560 l 257
 149 560 l 257
 149 167 l 258
 149 107 181 83 215 83 c 256
 258 83 283 121 283 178 c 257
 339 159 l 257
 334 68 299 -17 194 -17 c 256
323 0 m 257
 283 147 l 257
 283 560 l 257
 390 560 l 257
 390 99 l 257
 553 99 l 257
 553 560 l 257
 660 560 l 257
 660 0 l 257
 323 0 l 257
EndSplineSet
Layer: 2
SplineSet
194 -17 m 256
 106 -17 42 33 42 132 c 258
 42 560 l 257
 149 560 l 257
 149 167 l 258
 149 107 181 83 215 83 c 256
 258 83 283 121 283 178 c 257
 339 159 l 257
 334 68 299 -17 194 -17 c 256
323 0 m 257
 283 147 l 257
 283 560 l 257
 390 560 l 257
 390 99 l 257
 553 99 l 257
 553 560 l 257
 660 560 l 257
 660 0 l 257
 323 0 l 257
EndSplineSet
EndChar

StartChar: tml_Year
Encoding: 136 3061 136
GlifName: tml_Y_ear
Width: 1791
VWidth: 0
GlyphClass: 2
Flags: W
LayerCount: 3
Fore
SplineSet
255 245 m 256
 255 448 348 573 504 573 c 256
 641 573 739 455 737 280 c 256
 736 185 714 101 695 59 c 257
 604 84 l 257
 621 123 634 174 634 263 c 256
 634 389 582 476 502 476 c 256
 403 476 357 376 357 255 c 256
 357 158 374 74 422 74 c 256
 468 74 477 139 477 178 c 256
 477 246 449 281 423 281 c 256
 380 281 360 235 363 167 c 257
 307 196 l 257
 307 269 350 362 434 362 c 256
 507 362 573 297 573 174 c 256
 573 53 516 -24 422 -24 c 256
 317 -24 255 90 255 245 c 256
  PathStart: -2
604 84 m 257
 709 101 l 257
 818 101 l 257
 818 559 l 257
 925 559 l 257
 925 1 l 257
 604 1 l 257
 604 84 l 257
1077 0 m 257
 1077 462 l 257
 819 462 l 257
 819 560 l 257
 1288 560 l 257
 1288 462 l 257
 1185 462 l 257
 1185 0 l 257
 1077 0 l 257
798 -350 m 256
 218 -350 42 -65 42 229 c 256
 42 633 345 850 800 850 c 256
 1256 850 1512 680 1544 411 c 256
 1549 369 1572 357 1597 357 c 256
 1617 357 1642 366 1642 417 c 258
 1642 560 l 257
 1749 560 l 257
 1749 400 l 258
 1749 304 1686 250 1598 250 c 256
 1516 250 1446 307 1437 399 c 256
 1416 609 1138 743 800 743 c 256
 438 743 149 590 149 234 c 256
 149 10 284 -243 809 -243 c 256
 1181 -243 1304 -34 1304 134 c 256
 1304 213 1277 267 1236 267 c 256
 1194 267 1185 229 1185 204 c 257
 1136 235 l 256
 1136 308 1184 358 1248 358 c 256
 1342 358 1406 280 1406 131 c 256
 1406 -96 1259 -350 798 -350 c 256
EndSplineSet
Layer: 2
SplineSet
255 245 m 256
 255 448 348 573 504 573 c 256
 641 573 739 455 737 280 c 256
 736 185 714 101 695 59 c 257
 604 84 l 257
 621 123 634 174 634 263 c 256
 634 389 582 476 502 476 c 256
 403 476 357 376 357 255 c 256
 357 158 374 74 422 74 c 256
 468 74 477 139 477 178 c 256
 477 246 449 281 423 281 c 256
 380 281 360 235 363 167 c 257
 307 196 l 257
 307 269 350 362 434 362 c 256
 507 362 573 297 573 174 c 256
 573 53 516 -24 422 -24 c 256
 317 -24 255 90 255 245 c 256
604 84 m 257
 709 101 l 257
 818 101 l 257
 818 559 l 257
 925 559 l 257
 925 1 l 257
 604 1 l 257
 604 84 l 257
1077 0 m 257
 1077 462 l 257
 819 462 l 257
 819 560 l 257
 1288 560 l 257
 1288 462 l 257
 1185 462 l 257
 1185 0 l 257
 1077 0 l 257
798 -350 m 256
 218 -350 42 -65 42 229 c 256
 42 633 345 850 800 850 c 256
 1256 850 1512 680 1544 411 c 256
 1549 369 1572 357 1597 357 c 256
 1617 357 1642 366 1642 417 c 258
 1642 560 l 257
 1749 560 l 257
 1749 400 l 258
 1749 304 1686 250 1598 250 c 256
 1516 250 1446 307 1437 399 c 256
 1416 609 1138 743 800 743 c 256
 438 743 149 590 149 234 c 256
 149 10 284 -243 809 -243 c 256
 1181 -243 1304 -34 1304 134 c 256
 1304 213 1277 267 1236 267 c 256
 1194 267 1185 229 1185 204 c 257
 1136 235 l 256
 1136 308 1184 358 1248 358 c 256
 1342 358 1406 280 1406 131 c 256
 1406 -96 1259 -350 798 -350 c 256
EndSplineSet
EndChar

StartChar: tml_Zero
Encoding: 137 3046 137
GlifName: tml_Z_ero
Width: 498
VWidth: 0
GlyphClass: 2
Flags: W
LayerCount: 3
Fore
SplineSet
246 -5 m 256
 379 -5 456 95 456 203 c 256
 456 314 374 409 249 409 c 256
 134 409 42 328 42 199 c 256
 42 72 130 -5 246 -5 c 256
250 89 m 256
 170 89 131 149 131 201 c 256
 131 260 181 312 251 312 c 256
 320 312 366 262 366 201 c 256
 366 147 329 89 250 89 c 256
EndSplineSet
Layer: 2
SplineSet
246 -5 m 256
 379 -5 456 95 456 203 c 256
 456 314 374 409 249 409 c 256
 134 409 42 328 42 199 c 256
 42 72 130 -5 246 -5 c 256
250 89 m 256
 170 89 131 149 131 201 c 256
 131 260 181 312 251 312 c 256
 320 312 366 262 366 201 c 256
 366 147 329 89 250 89 c 256
EndSplineSet
EndChar
